<svg width="122" height="91" viewBox="0 0 122 91" fill="none" xmlns="http://www.w3.org/2000/svg">
<g id="Group">
<path id="Vector" d="M7.84286 0C3.52806 0 0 3.52807 0 7.84286V68.8429C0 73.1576 3.52806 76.6857 7.84286 76.6857H78.4286C81.8413 84.8692 89.9306 90.6286 99.3429 90.6286C111.835 90.6286 122 80.4639 122 67.9714C122 56.0741 112.753 46.3273 101.086 45.4232V7.84286C101.086 3.52807 97.5576 0 93.2429 0H7.84286ZM7.84286 3.48571H93.2429C95.6869 3.48571 97.6 5.39885 97.6 7.84286V45.4232C93.7461 45.7219 90.1617 46.9729 87.0884 48.9634L76.1411 38.7786C75.8613 38.5119 75.5008 38.3458 75.1163 38.3063C74.7318 38.2669 74.3451 38.3564 74.017 38.5607L61.2723 46.567L41.3384 26.633C41.1309 26.4182 40.8716 26.2602 40.5855 26.1744C40.2994 26.0886 39.996 26.0777 39.7045 26.1429C39.3978 26.2118 39.1156 26.3623 38.8875 26.5786L3.48571 58.8214V7.84286C3.48571 5.39885 5.39886 3.48571 7.84286 3.48571ZM66.2286 10.4571C61.4364 10.4571 57.5143 14.3793 57.5143 19.1714C57.5143 23.9635 61.4364 27.8857 66.2286 27.8857C71.0207 27.8857 74.9429 23.9635 74.9429 19.1714C74.9429 14.3793 71.0207 10.4571 66.2286 10.4571ZM66.2286 13.9429C69.1369 13.9429 71.4571 16.2631 71.4571 19.1714C71.4571 22.0797 69.1369 24.4 66.2286 24.4C63.3203 24.4 61 22.0797 61 19.1714C61 16.2631 63.3203 13.9429 66.2286 13.9429ZM40.0312 30.2821L59.7473 49.9982C60.0242 50.2865 60.3917 50.4709 60.7883 50.5205C61.185 50.5701 61.5866 50.4818 61.9259 50.2705L74.725 42.2643L84.2562 51.142C79.6406 55.2882 76.6857 61.2865 76.6857 67.9714C76.6857 69.7672 76.9431 71.5243 77.3393 73.2H7.84286C5.39886 73.2 3.48571 71.2869 3.48571 68.8429V63.5054L40.0312 30.2821ZM99.3429 48.8C109.952 48.8 118.514 57.3627 118.514 67.9714C118.514 78.58 109.952 87.1429 99.3429 87.1429C88.7341 87.1429 80.1714 78.58 80.1714 67.9714C80.1714 57.3627 88.7341 48.8 99.3429 48.8ZM99.125 55.717C98.6919 55.7712 98.295 55.986 98.0126 56.3188C97.7303 56.6516 97.583 57.0782 97.6 57.5143V66.2286H88.8857C88.777 66.2183 88.6676 66.2183 88.5589 66.2286C88.0967 66.2719 87.6706 66.4971 87.3744 66.8546C87.0782 67.2121 86.9361 67.6726 86.9795 68.1348C87.0228 68.5971 87.248 69.0231 87.6055 69.3194C87.963 69.6156 88.4235 69.7576 88.8857 69.7143H97.6V78.4286C97.5967 78.6595 97.6394 78.8888 97.7255 79.1031C97.8116 79.3174 97.9395 79.5125 98.1017 79.677C98.2638 79.8415 98.4571 79.9721 98.6701 80.0612C98.8832 80.1503 99.1119 80.1962 99.3429 80.1962C99.5738 80.1962 99.8025 80.1503 100.016 80.0612C100.229 79.9721 100.422 79.8415 100.584 79.677C100.746 79.5125 100.874 79.3174 100.96 79.1031C101.046 78.8888 101.089 78.6595 101.086 78.4286V69.7143H109.8C110.031 69.7176 110.26 69.6749 110.475 69.5888C110.689 69.5026 110.884 69.3748 111.048 69.2126C111.213 69.0505 111.343 68.8572 111.433 68.6441C111.522 68.4311 111.568 68.2024 111.568 67.9714C111.568 67.7405 111.522 67.5118 111.433 67.2987C111.343 67.0856 111.213 66.8924 111.048 66.7302C110.884 66.5681 110.689 66.4402 110.475 66.3541C110.26 66.268 110.031 66.2253 109.8 66.2286H101.086V57.5143C101.096 57.2613 101.05 57.0093 100.953 56.7756C100.856 56.542 100.708 56.3323 100.522 56.1613C100.335 55.9903 100.114 55.8619 99.8724 55.7852C99.6312 55.7084 99.3761 55.6852 99.125 55.717Z" fill="#666666"/>
</g>
</svg>
