<svg width="6" height="8" viewBox="0 0 6 8" fill="none" xmlns="http://www.w3.org/2000/svg">
<g id="Frame" clip-path="url(#clip0_824_5733)">
<path id="Vector" d="M5.25041 4.88128C4.80493 4.61776 4.20259 4.55502 3.33046 4.08444C4.20887 3.63896 4.81748 3.58877 5.26923 3.33779C5.66451 3.11192 5.82765 2.82957 5.68334 2.56605C5.53903 2.30253 5.20649 2.30253 4.8112 2.52213C4.35945 2.77938 4.00809 3.27505 3.1736 3.80209C3.21752 2.81702 3.47477 2.26488 3.47477 1.75038C3.47477 1.29236 3.31163 1.01001 3.01047 1.01001C2.7093 1.01001 2.54616 1.29236 2.54616 1.75038C2.54616 2.26488 2.80341 2.81075 2.84733 3.78955C2.05049 3.23113 1.72422 2.71663 1.29129 2.44056C0.908559 2.19586 0.582293 2.18331 0.41916 2.44056C0.256027 2.69781 0.412886 2.98643 0.795621 3.23113C1.23482 3.5072 1.83716 3.58249 2.69675 4.07189C1.79324 4.49227 1.18463 4.52364 0.732877 4.76834C0.331319 4.98167 0.155637 5.26402 0.299947 5.52754C0.444257 5.79734 0.770523 5.80361 1.17208 5.59028C1.63011 5.34558 1.99402 4.85618 2.84106 4.35424C2.77204 5.33931 2.50224 5.88518 2.48342 6.39967C2.47087 6.85143 2.62773 7.14005 2.9289 7.14632C3.23007 7.1526 3.39947 6.87025 3.41202 6.4185C3.42457 5.89773 3.17987 5.34558 3.16105 4.35424C3.98299 4.9001 4.3218 5.40205 4.76728 5.67185C5.15629 5.904 5.48256 5.91027 5.63942 5.65303C5.79628 5.40205 5.63942 5.11343 5.25041 4.88128Z" fill="#FF4D4F"/>
</g>
<defs>
<clipPath id="clip0_824_5733">
<rect width="6" height="6.49131" fill="white" transform="translate(0 0.799988)"/>
</clipPath>
</defs>
</svg>
