<svg width="64" height="58" viewBox="0 0 64 58" fill="none" xmlns="http://www.w3.org/2000/svg">
<rect width="64" height="58" rx="29" fill="#F3423B"/>
<path d="M32 33.9999C34.7614 33.9999 37 31.7614 37 28.9999C37 26.2385 34.7614 23.9999 32 23.9999C29.2386 23.9999 27 26.2385 27 28.9999C27 31.7614 29.2386 33.9999 32 33.9999Z" fill="white"/>
<path d="M44.5714 19.0909H40.3571C40.1429 19.0909 39.8771 18.9366 39.67 18.6932L37.8171 15.4366C37.7878 15.3849 37.7551 15.3357 37.7193 15.2894C37.0793 14.4582 36.2143 14 35.2857 14H28.7143C27.7857 14 26.9207 14.4582 26.2807 15.2894C26.2449 15.3357 26.2122 15.3849 26.1829 15.4366L24.33 18.698C24.1714 18.8905 23.9486 19.0957 23.7143 19.0957V18.4593C23.7143 18.1218 23.5939 17.798 23.3796 17.5594C23.1652 17.3207 22.8745 17.1866 22.5714 17.1866H20.8571C20.554 17.1866 20.2633 17.3207 20.049 17.5594C19.8347 17.798 19.7143 18.1218 19.7143 18.4593V19.0957H19.4286C18.5195 19.0967 17.648 19.4993 17.0052 20.2152C16.3625 20.931 16.0009 21.9015 16 22.9139V38.1818C16.0009 39.1941 16.3625 40.1647 17.0052 40.8805C17.648 41.5963 18.5195 41.9989 19.4286 42H44.5714C45.4805 41.9989 46.352 41.5963 46.9948 40.8805C47.6375 40.1647 47.9991 39.1941 48 38.1818V22.9091C47.9991 21.8968 47.6375 20.9262 46.9948 20.2104C46.352 19.4946 45.4805 19.092 44.5714 19.0909ZM32 36.9091C30.6438 36.9091 29.318 36.4612 28.1904 35.6221C27.0627 34.783 26.1838 33.5904 25.6648 32.195C25.1458 30.7997 25.01 29.2643 25.2746 27.7829C25.5392 26.3016 26.1923 24.941 27.1513 23.873C28.1103 22.805 29.3321 22.0777 30.6622 21.7831C31.9924 21.4884 33.3711 21.6397 34.6241 22.2176C35.8771 22.7956 36.948 23.7744 37.7015 25.0302C38.455 26.286 38.8571 27.7624 38.8571 29.2727C38.8551 31.2973 38.132 33.2383 36.8464 34.6699C35.5609 36.1015 33.818 36.9068 32 36.9091Z" fill="white"/>
</svg>
