<svg width="80" height="79" viewBox="0 0 80 79" fill="none" xmlns="http://www.w3.org/2000/svg">
<path d="M30.1875 64.0313H22.8281C18.2739 64.0313 13.9061 62.2221 10.6858 59.0017C7.46542 55.7814 5.65625 51.4136 5.65625 46.8594C5.65625 42.3051 7.46542 37.9374 10.6858 34.717C13.9061 31.4967 18.2739 29.6875 22.8281 29.6875C24.2648 29.687 25.6962 29.862 27.0904 30.2088" stroke="#999999" stroke-width="2.80357" stroke-linecap="round" stroke-linejoin="round"/>
<path d="M25.2812 39.5C25.2813 35.613 26.2049 31.7816 27.9762 28.3216C29.7474 24.8616 32.3155 21.872 35.4688 19.5992C38.6221 17.3264 42.2704 15.8355 46.113 15.2493C49.9555 14.6631 53.8824 14.9984 57.57 16.2276C61.2575 17.4568 64.6002 19.5447 67.3225 22.3192C70.0449 25.0937 72.0689 28.4754 73.2279 32.1856C74.3869 35.8958 74.6476 39.8283 73.9886 43.6591C73.3296 47.4898 71.7697 51.1091 69.4375 54.2188" stroke="#999999" stroke-width="2.80357" stroke-linecap="round" stroke-linejoin="round"/>
<path d="M36.9644 49.8951L47.3595 39.5L57.7546 49.8951" stroke="#999999" stroke-width="2.80357" stroke-linecap="round" stroke-linejoin="round"/>
<path d="M47.3594 64.0313V39.5" stroke="#999999" stroke-width="2.80357" stroke-linecap="round" stroke-linejoin="round"/>
</svg>
