<svg width="16" height="18" viewBox="0 0 16 18" fill="none" xmlns="http://www.w3.org/2000/svg">
<g id="Group 12193">
<path id="Vector" d="M1 4.2002H2.6H15.4" stroke="#DE4132" stroke-width="1.04" stroke-linecap="round" stroke-linejoin="round"/>
<path id="Vector_2" d="M4.99961 4.2V2.6C4.99961 2.17565 5.16818 1.76869 5.46824 1.46863C5.7683 1.16857 6.17526 1 6.59961 1H9.79961C10.224 1 10.6309 1.16857 10.931 1.46863C11.231 1.76869 11.3996 2.17565 11.3996 2.6V4.2M13.7996 4.2V15.4C13.7996 15.8243 13.631 16.2313 13.331 16.5314C13.0309 16.8314 12.624 17 12.1996 17H4.19961C3.77526 17 3.3683 16.8314 3.06824 16.5314C2.76818 16.2313 2.59961 15.8243 2.59961 15.4V4.2H13.7996Z" stroke="#DE4132" stroke-width="1.04" stroke-linecap="round" stroke-linejoin="round"/>
<path id="Vector_3" d="M6.59961 8.2002V13.0002" stroke="#DE4132" stroke-width="1.04" stroke-linecap="round" stroke-linejoin="round"/>
<path id="Vector_4" d="M9.7998 8.2002V13.0002" stroke="#DE4132" stroke-width="1.04" stroke-linecap="round" stroke-linejoin="round"/>
</g>
</svg>
