<svg width="18" height="18" viewBox="0 0 18 18" fill="none" xmlns="http://www.w3.org/2000/svg">
<g id="Group 12192">
<path id="Vector" d="M8.15659 2.68677H2.59035C2.16856 2.68677 1.76405 2.85432 1.4658 3.15257C1.16755 3.45082 1 3.85533 1 4.27712V15.4096C1 15.8314 1.16755 16.2359 1.4658 16.5341C1.76405 16.8324 2.16856 16.9999 2.59035 16.9999H13.7228C14.1446 16.9999 14.5491 16.8324 14.8474 16.5341C15.1456 16.2359 15.3132 15.8314 15.3132 15.4096V9.84335" stroke="#666666" stroke-width="1.03373" stroke-linecap="round" stroke-linejoin="round"/>
<path id="Vector_2" d="M14.1203 1.49406C14.4367 1.17772 14.8657 1 15.3131 1C15.7605 1 16.1895 1.17772 16.5059 1.49406C16.8222 1.8104 16.9999 2.23945 16.9999 2.68682C16.9999 3.1342 16.8222 3.56325 16.5059 3.87959L8.9517 11.4338L5.771 12.2289L6.56617 9.04823L14.1203 1.49406Z" stroke="#666666" stroke-width="1.03373" stroke-linecap="round" stroke-linejoin="round"/>
</g>
</svg>
