<svg width="17" height="16" viewBox="0 0 17 16" fill="none" xmlns="http://www.w3.org/2000/svg">
<g id="Group">
<g id="Clip path group">
<mask id="mask0_2556_3527" style="mask-type:luminance" maskUnits="userSpaceOnUse" x="0" y="0" width="17" height="16">
<g id="flagpackGbUkm3">
<path id="Vector" d="M0 0H17V16H0V0Z" fill="white"/>
</g>
</mask>
<g mask="url(#mask0_2556_3527)">
<g id="Group_2">
<path id="Vector_2" d="M0 0H17V16H0V0Z" fill="white"/>
<path id="Vector_3" fill-rule="evenodd" clip-rule="evenodd" d="M0 0V16H17V0H0Z" fill="#2E42A5"/>
<g id="Mask group">
<mask id="mask1_2556_3527" style="mask-type:luminance" maskUnits="userSpaceOnUse" x="0" y="0" width="17" height="16">
<g id="Group_3">
<path id="Vector_4" fill-rule="evenodd" clip-rule="evenodd" d="M0 0V16H17V0H0Z" fill="white"/>
</g>
</mask>
<g mask="url(#mask1_2556_3527)">
<g id="Group_4">
<path id="Vector_5" d="M-1.89258 14.8589L1.84848 16.8449L17.0847 2.16088L19.0583 -0.789792L15.058 -1.45312L8.84345 4.87421L3.8412 9.13821L-1.89258 14.8589Z" fill="white"/>
<path id="Vector_6" d="M-1.38086 16.2515L0.525797 17.4035L18.3498 -1.0625H15.6739L-1.38033 16.2508L-1.38086 16.2515Z" fill="#F50100"/>
<path id="Vector_7" d="M18.8923 14.8589L15.1512 16.8449L-0.0850002 2.16088L-2.05859 -0.789792L1.94172 -1.45312L8.15628 4.87421L13.1585 9.13821L18.8923 14.8589Z" fill="white"/>
<path id="Vector_8" d="M18.7655 15.8561L16.8594 17.0081L9.26999 9.10142L7.01961 8.21875L-2.24805 -0.78125H0.428391L9.6902 8.00542L12.1504 9.06408L18.7655 15.8561Z" fill="#F50100"/>
<path id="Vector_9" fill-rule="evenodd" clip-rule="evenodd" d="M10.5078 -1.32812H6.49369V5.33854H-1.04688V10.6719H6.49369V17.3385H10.5078V10.6719H18.0781V5.33854H10.5078V-1.32812Z" fill="#F50100"/>
<g id="Mask group_2">
<mask id="mask2_2556_3527" style="mask-type:luminance" maskUnits="userSpaceOnUse" x="-2" y="-2" width="21" height="20">
<g id="Group_5">
<path id="Vector_10" fill-rule="evenodd" clip-rule="evenodd" d="M10.5078 -1.32812H6.49369V5.33854H-1.04688V10.6719H6.49369V17.3385H10.5078V10.6719H18.0781V5.33854H10.5078V-1.32812Z" fill="white"/>
</g>
</mask>
<g mask="url(#mask2_2556_3527)">
<path id="Vector_11" d="M6.49369 -1.33073V-2.66406H5.43119V-1.33073H6.49369ZM10.5078 -1.33073H11.5703V-2.66406H10.5078V-1.33073ZM6.49369 5.33594V6.66927H7.55619V5.33594H6.49369ZM-1.04688 5.33594V4.0026H-2.10938V5.33594H-1.04688ZM-1.04688 10.6693H-2.10938V12.0026H-1.04688V10.6693ZM6.49369 10.6693H7.55619V9.33594H6.49369V10.6693ZM6.49369 17.3359H5.43119V18.6693H6.49369V17.3359ZM10.5078 17.3359V18.6693H11.5703V17.3359H10.5078ZM10.5078 10.6693V9.33594H9.44531V10.6693H10.5078ZM18.0781 10.6693V12.0026H19.1406V10.6693H18.0781ZM18.0781 5.33594H19.1406V4.0026H18.0781V5.33594ZM10.5078 5.33594H9.44531V6.66927H10.5078V5.33594ZM6.49369 0.00260401H10.5078V-2.66406H6.49369V0.00260401ZM7.55619 5.33594V-1.33073H5.43119V5.33594H7.55619ZM-1.04688 6.66927H6.49369V4.0026H-1.04688V6.66927ZM0.015625 10.6693V5.33594H-2.10938V10.6693H0.015625ZM6.49369 9.33594H-1.04688V12.0026H6.49369V9.33594ZM7.55619 17.3359V10.6693H5.43119V17.3359H7.55619ZM10.5078 16.0026H6.49369V18.6693H10.5078V16.0026ZM9.44531 10.6693V17.3359H11.5703V10.6693H9.44531ZM18.0781 9.33594H10.5078V12.0026H18.0781V9.33594ZM17.0156 5.33594V10.6693H19.1406V5.33594H17.0156ZM10.5078 6.66927H18.0781V4.0026H10.5078V6.66927ZM9.44531 -1.33073V5.33594H11.5703V-1.33073H9.44531Z" fill="white"/>
</g>
</g>
</g>
</g>
</g>
</g>
</g>
</g>
</g>
</svg>
