<svg width="24" height="24" viewBox="0 0 24 24" fill="none" xmlns="http://www.w3.org/2000/svg">
<g id="Group 12364">
<circle id="Container" cx="12" cy="12" r="12" fill="#F3F7FF"/>
<path id="Vector" d="M8.43235 13.3222L7.81586 14.5345C7.81224 14.5415 7.80815 14.5483 7.80338 14.5546C7.77672 14.6018 7.74215 14.6442 7.701 14.6804C7.66081 14.7157 7.61538 14.745 7.56624 14.7672C7.56071 14.7695 7.54595 14.7746 7.5369 14.7774C7.53166 14.7796 7.52633 14.7816 7.5209 14.7832C7.51576 14.7848 7.51052 14.786 7.50519 14.787C7.45842 14.8015 7.40976 14.809 7.36071 14.8095C7.34156 14.8092 7.32261 14.8072 7.30394 14.8033C7.28223 14.8013 7.26061 14.7979 7.23918 14.7934C7.21747 14.7877 7.19613 14.7807 7.17546 14.7722C7.16261 14.7684 7.15013 14.7637 7.13803 14.7582L5.88294 14.1623C5.72046 14.0852 5.61284 13.9302 5.60075 13.7557C5.58865 13.5811 5.6738 13.4136 5.82409 13.3162C5.97447 13.2187 6.16723 13.2062 6.32971 13.2833L6.51772 13.3726C6.25123 12.1666 6.38676 10.91 6.90478 9.7832C7.42289 8.65616 8.29692 7.71667 9.4017 7.09918C9.88648 6.82762 10.4089 6.62433 10.9531 6.49539C11.0837 6.46457 11.2216 6.48518 11.3364 6.55263C11.4513 6.62009 11.5338 6.72896 11.5655 6.85513C11.5972 6.9813 11.5758 7.11436 11.506 7.22525C11.4362 7.33624 11.3238 7.41584 11.1933 7.44676C10.7427 7.55369 10.3103 7.72218 9.90897 7.94719C9.01799 8.44625 8.30663 9.19709 7.8709 10.0987C7.43518 11.0004 7.29593 12.0094 7.47195 12.9898L7.52271 12.8902L7.5228 12.8901C7.58204 12.7736 7.6869 12.6845 7.81414 12.6426C7.94138 12.6008 8.08063 12.6094 8.2012 12.6666C8.32187 12.724 8.41397 12.8252 8.4574 12.9481C8.50073 13.0711 8.49178 13.2056 8.43245 13.3222L8.43235 13.3222ZM17.3609 15.2143C17.3586 15.1879 17.3541 15.1616 17.3472 15.136C17.3464 15.1321 17.3454 15.1282 17.3443 15.1245C17.317 15.0312 17.2619 14.9479 17.1858 14.8849C17.1802 14.8799 17.1614 14.864 17.1553 14.8597C17.1445 14.8525 17.1335 14.846 17.122 14.8401L17.0498 14.9684L17.0996 14.8277C17.0791 14.8168 17.0579 14.8073 17.036 14.7993C17.0245 14.7952 17.0135 14.7915 17.0015 14.788C16.9836 14.7829 16.9654 14.7787 16.947 14.7755C16.9312 14.7726 16.9157 14.7707 16.9009 14.7695C16.8851 14.768 16.8692 14.7676 16.8533 14.7679C16.8462 14.7674 16.8287 14.7674 16.8223 14.7676L15.4276 14.8579C15.247 14.8696 15.0865 14.9735 15.0067 15.1306C14.9268 15.2876 14.9397 15.4739 15.0406 15.6192C15.1413 15.7645 15.3148 15.8468 15.4954 15.8352L15.61 15.8277H15.6099C14.8192 16.4652 13.8452 16.8533 12.8192 16.9395C11.7931 17.0257 10.7645 16.8059 9.87168 16.3098C9.46938 16.0865 9.10214 15.809 8.78116 15.4854C8.6882 15.3916 8.56058 15.3372 8.42619 15.3343C8.2918 15.3314 8.16169 15.3802 8.06456 15.4699C7.96741 15.5597 7.91112 15.683 7.90808 15.8129C7.90465 15.9428 7.95522 16.0686 8.04865 16.1622C8.4362 16.5531 8.87963 16.8885 9.36536 17.1582C10.4701 17.7766 11.7494 18.0402 13.0192 17.9109C14.2888 17.7816 15.4832 17.266 16.4302 16.4387L16.444 16.6368C16.453 16.7605 16.5101 16.8764 16.6038 16.9611C16.6975 17.0458 16.821 17.0931 16.9494 17.0936C16.9612 17.0936 16.9728 17.0933 16.9834 17.0926V17.0925C17.1175 17.0837 17.2425 17.0237 17.331 16.926C17.4194 16.8282 17.4641 16.7006 17.4553 16.571L17.3617 15.2233C17.3617 15.2204 17.3613 15.2174 17.3609 15.2143L17.3609 15.2143ZM14.2184 6.60928L14.3926 6.49655C14.5429 6.3991 14.6282 6.23161 14.6161 6.05704C14.604 5.88247 14.4964 5.72741 14.3339 5.65028C14.1714 5.57315 13.9787 5.58559 13.8283 5.68304L12.6837 6.42577C12.6776 6.42872 12.6717 6.43203 12.6661 6.43562C12.6382 6.45366 12.6124 6.47436 12.589 6.49746L12.5874 6.49893H12.5875C12.5397 6.54568 12.5024 6.60145 12.4778 6.66274C12.4685 6.68584 12.4611 6.70967 12.4556 6.73396L12.5995 6.7832L12.4507 6.75688C12.4491 6.76304 12.4456 6.78136 12.4448 6.7878H12.4447C12.4435 6.79912 12.4431 6.81044 12.4438 6.82176C12.4432 6.83298 12.4432 6.84421 12.4434 6.85571V6.85581C12.4439 6.87697 12.4459 6.89805 12.4495 6.91893C12.4515 6.93044 12.4538 6.94148 12.4565 6.95262H12.4566C12.4612 6.97194 12.467 6.9909 12.4739 7.00949C12.4784 7.02154 12.4838 7.03332 12.4887 7.04391C12.4959 7.05918 12.504 7.07409 12.5129 7.08845C12.516 7.0948 12.5241 7.10869 12.528 7.11449L13.3066 8.23656C13.3836 8.34184 13.4995 8.41444 13.6304 8.43948C13.7613 8.46451 13.8971 8.43994 14.0097 8.37082C14.1212 8.2984 14.1985 8.18622 14.2246 8.05886C14.2506 7.9315 14.2233 7.79943 14.1486 7.69149L14.0846 7.5991C15.0514 7.94208 15.8862 8.56306 16.4765 9.3785C17.0667 10.1939 17.3841 11.1646 17.3859 12.1598C17.3869 12.608 17.3216 13.054 17.1923 13.4844C17.1533 13.6095 17.1674 13.7444 17.2318 13.8593C17.2962 13.974 17.4054 14.0592 17.5351 14.0959C17.6648 14.1326 17.8043 14.1177 17.9226 14.0544C18.0408 13.9912 18.1281 13.885 18.1649 13.7593C18.3215 13.2395 18.4006 12.7007 18.3996 12.1592C18.3986 10.926 17.9934 9.72488 17.2423 8.72788C16.4912 7.73089 15.4326 6.98924 14.2185 6.60936L14.2184 6.60928Z" fill="#498AF8"/>
</g>
</svg>
