<svg width="60" height="66" viewBox="0 0 60 66" fill="none" xmlns="http://www.w3.org/2000/svg">
<path fill-rule="evenodd" clip-rule="evenodd" d="M7.66602 1.35345C7.66602 0.605959 8.27198 0 9.01946 0H36.9172C37.3433 0 38.7444 0.159194 39 0.5L59.7287 18.5874C59.9044 18.8216 59.9994 19.1066 59.9994 19.3994V41.9569C59.9994 42.7044 59.3934 43.3103 58.6459 43.3103C57.8984 43.3103 57.2925 42.7044 57.2925 41.9569V20.7529H36.0884C35.3409 20.7529 34.735 20.1469 34.735 19.3994V2.7069H10.3729V14.8879C10.3729 15.6354 9.76695 16.2414 9.01946 16.2414C8.27198 16.2414 7.66602 15.6354 7.66602 14.8879V1.35345ZM37.4419 2.7069V18.046H55.939L37.4419 2.7069Z" fill="black"/>
<path fill-rule="evenodd" clip-rule="evenodd" d="M34.7363 28.4238C34.7363 27.6763 35.3423 27.0703 36.0898 27.0703H45.1128C45.8603 27.0703 46.4662 27.6763 46.4662 28.4238C46.4662 29.1712 45.8603 29.7772 45.1128 29.7772H36.0898C35.3423 29.7772 34.7363 29.1712 34.7363 28.4238Z" fill="black"/>
<path fill-rule="evenodd" clip-rule="evenodd" d="M34.7363 35.1308C34.7363 34.3833 35.3423 33.7773 36.0898 33.7773H45.1128C45.8603 33.7773 46.4662 34.3833 46.4662 35.1308C46.4662 35.8783 45.8603 36.4842 45.1128 36.4842H36.0898C35.3423 36.4842 34.7363 35.8783 34.7363 35.1308Z" fill="black"/>
<path fill-rule="evenodd" clip-rule="evenodd" d="M34.7363 41.8378C34.7363 41.0903 35.3423 40.4844 36.0898 40.4844H45.1128C45.8603 40.4844 46.4662 41.0903 46.4662 41.8378C46.4662 42.5853 45.8603 43.1913 45.1128 43.1913H36.0898C35.3423 43.1913 34.7363 42.5853 34.7363 41.8378Z" fill="black"/>
<path fill-rule="evenodd" clip-rule="evenodd" d="M9.01946 54.1465C9.76695 54.1465 10.3729 54.7524 10.3729 55.4999V63.1695H49.6229C50.3704 63.1695 50.9764 63.7754 50.9764 64.5229C50.9764 65.2704 50.3704 65.8764 49.6229 65.8764H9.02601C8.27852 65.8764 7.66602 65.2704 7.66602 64.5229V55.4999C7.66602 54.7524 8.27198 54.1465 9.01946 54.1465Z" fill="black"/>
<path fill-rule="evenodd" clip-rule="evenodd" d="M58.6231 54.1465C57.8756 54.1465 57.2697 54.7524 57.2697 55.4999V63.1695H18.0197C17.2722 63.1695 16.6662 63.7754 16.6662 64.5229C16.6662 65.2704 17.2722 65.8764 18.0197 65.8764H58.6166C59.3641 65.8764 59.9766 65.2704 59.9766 64.5229V55.4999C59.9766 54.7524 59.3706 54.1465 58.6231 54.1465Z" fill="black"/>
<path fill-rule="evenodd" clip-rule="evenodd" d="M3.83708 19.1855C1.71792 19.1855 0 20.9035 0 23.0226V47.9636C0 50.0828 1.71792 51.8007 3.83708 51.8007H26.8595C28.9787 51.8007 30.6966 50.0828 30.6966 47.9636V23.0226C30.6966 20.9035 28.9787 19.1855 26.8595 19.1855H3.83708ZM15.3474 32.4741L12.0859 26.155H7.34648L12.6337 35.3534L7.20634 44.7048H11.9967L15.3474 38.271L18.7108 44.7048H23.4884L18.0738 35.3534L23.3483 26.155H18.6089L15.3474 32.4741Z" fill="black"/>
<path d="M58.0383 50.3303C58.2491 50.0712 58.3592 49.7379 58.3467 49.3971C58.3342 49.0563 58.2 48.7329 57.9708 48.4918C57.7417 48.2506 57.4346 48.1093 57.1108 48.0961C56.787 48.0829 56.4704 48.1989 56.2243 48.4207L52.0559 52.8221L52.0559 36.3543C52.0559 35.9951 51.9204 35.6506 51.6791 35.3967C51.4378 35.1427 51.1106 35 50.7694 35C50.4282 35 50.101 35.1427 49.8597 35.3967C49.6184 35.6506 49.4829 35.9951 49.4829 36.3543L49.4829 52.8627L45.2631 48.4207C45.1477 48.279 45.0058 48.1638 44.8462 48.0825C44.6866 48.0013 44.5127 47.9556 44.3355 47.9484C44.1584 47.9412 43.9817 47.9726 43.8166 48.0407C43.6515 48.1088 43.5015 48.212 43.3762 48.344C43.2508 48.476 43.1527 48.6338 43.088 48.8076C43.0233 48.9814 42.9935 49.1674 43.0003 49.3539C43.0071 49.5404 43.0505 49.7234 43.1278 49.8914C43.205 50.0594 43.3144 50.2088 43.449 50.3302L50.7694 58.0225L58.0383 50.3303Z" fill="black"/>
</svg>