<svg width="26" height="33" viewBox="0 0 26 33" fill="none" xmlns="http://www.w3.org/2000/svg">
<path id="Vector" d="M13 0C16.3152 0 19.4946 1.29352 21.8388 3.596C24.183 5.89847 25.5 9.02131 25.5 12.2775C25.5 22.2563 13 33 13 33C13 33 0.5 21.4875 0.5 12.2775C0.5 9.02131 1.81696 5.89847 4.16117 3.596C6.50537 1.29352 9.68479 0 13 0ZM13 17.5837C14.0687 17.5845 15.1135 17.2739 16.0025 16.6913C16.8914 16.1087 17.5844 15.2802 17.9939 14.3107C18.4034 13.3412 18.5109 12.2742 18.3029 11.2446C18.0949 10.215 17.5806 9.26921 16.8252 8.52674C16.0699 7.78428 15.1073 7.27853 14.0592 7.07348C13.0111 6.86844 11.9247 6.9733 10.9373 7.37481C9.9499 7.77631 9.10593 8.45643 8.51214 9.32912C7.91835 10.2018 7.6014 11.2279 7.6014 12.2775C7.6009 12.9742 7.74017 13.6641 8.01125 14.3078C8.28233 14.9516 8.67991 15.5366 9.18126 16.0294C9.68262 16.5221 10.2779 16.9131 10.9332 17.1798C11.5884 17.4465 12.2907 17.5837 13 17.5837Z" fill="#DB504A"/>
</svg>
