<svg width="12" height="15" viewBox="0 0 12 15" fill="none" xmlns="http://www.w3.org/2000/svg">
<path id="Vector" d="M6 0C7.45869 0 8.85764 0.587963 9.88909 1.63454C10.9205 2.68112 11.5 4.10059 11.5 5.58068C11.5 10.1165 6 15 6 15C6 15 0.5 9.76705 0.5 5.58068C0.5 4.10059 1.07946 2.68112 2.11091 1.63454C3.14236 0.587963 4.54131 0 6 0ZM6 7.99261C6.47021 7.99295 6.92996 7.85178 7.32108 7.58696C7.71221 7.32214 8.01714 6.94556 8.19732 6.50487C8.37749 6.06418 8.4248 5.57916 8.33327 5.11118C8.24174 4.6432 8.01548 4.21328 7.68311 3.87579C7.35074 3.53831 6.92719 3.30842 6.46604 3.21522C6.00489 3.12202 5.52686 3.16968 5.09241 3.35218C4.65796 3.53469 4.28661 3.84383 4.02534 4.24051C3.76407 4.63718 3.62462 5.10357 3.62462 5.58068C3.6244 5.89734 3.68568 6.21094 3.80495 6.50356C3.92423 6.79618 4.09916 7.06208 4.31976 7.28607C4.54035 7.51006 4.80229 7.68775 5.09059 7.80898C5.3789 7.93022 5.68792 7.99261 6 7.99261Z" fill="#DB504A"/>
</svg>
