<svg width="14" height="16" viewBox="0 0 14 16" fill="none" xmlns="http://www.w3.org/2000/svg">
<path id="Vector" d="M11.6875 7.5V5C11.6875 2.2425 9.58516 0 7 0C4.41484 0 2.3125 2.2425 2.3125 5V7.5C1.53672 7.5 0.90625 8.1725 0.90625 9V14.5C0.90625 15.3275 1.53672 16 2.3125 16H11.6875C12.4633 16 13.0938 15.3275 13.0938 14.5V9C13.0938 8.1725 12.4633 7.5 11.6875 7.5ZM3.25 5C3.25 2.795 4.93281 1 7 1C9.06719 1 10.75 2.795 10.75 5V7.5H3.25V5ZM12.1562 14.5C12.1562 14.775 11.9453 15 11.6875 15H2.3125C2.05469 15 1.84375 14.775 1.84375 14.5V9C1.84375 8.725 2.05469 8.5 2.3125 8.5H11.6875C11.9453 8.5 12.1562 8.725 12.1562 9V14.5ZM7 9.5C6.22422 9.5 5.59375 10.1725 5.59375 11C5.59375 11.6525 5.98516 12.205 6.53125 12.4125V13.5C6.53125 13.7775 6.74219 14 7 14C7.25781 14 7.46875 13.7775 7.46875 13.5V12.4125C8.01484 12.205 8.40625 11.6525 8.40625 11C8.40625 10.1725 7.77578 9.5 7 9.5ZM7 11.5C6.74219 11.5 6.53125 11.275 6.53125 11C6.53125 10.725 6.74219 10.5 7 10.5C7.25781 10.5 7.46875 10.725 7.46875 11C7.46875 11.275 7.25781 11.5 7 11.5Z" fill="#666666"/>
</svg>
