<svg width="16" height="16" viewBox="0 0 16 16" fill="none" xmlns="http://www.w3.org/2000/svg">
<path id="Vector" d="M14.797 10.4599C14.797 10.2657 14.9545 10.1082 15.1487 10.1082C15.343 10.1082 15.5 10.2657 15.5 10.4599L15.5 12.788C15.5 13.5342 15.1951 14.2124 14.7038 14.7038C14.2124 15.1951 13.5342 15.5 12.788 15.5L3.21199 15.5C2.46581 15.5 1.78758 15.1951 1.29624 14.7038C0.804904 14.2124 0.5 13.5342 0.5 12.788L0.499999 3.212C0.499999 2.46581 0.804903 1.78758 1.29624 1.29624C1.78758 0.804905 2.4658 0.500001 3.21199 0.500001L12.788 0.5C13.5342 0.5 14.2124 0.804904 14.7038 1.29624C15.1951 1.78758 15.5 2.46581 15.5 3.21199L15.5 5.5401C15.5 5.73434 15.3425 5.89184 15.1487 5.89184C14.9545 5.89184 14.797 5.73434 14.797 5.5401L14.797 3.21199C14.797 2.66004 14.5706 2.15769 14.2065 1.79355C13.8423 1.42941 13.34 1.20303 12.788 1.20303L3.21199 1.20303C2.66004 1.20303 2.15769 1.42941 1.79355 1.79355C1.42941 2.15769 1.20302 2.66005 1.20302 3.212L1.20302 12.788C1.20302 13.34 1.42941 13.8423 1.79355 14.2065C2.15769 14.5706 2.66004 14.797 3.21199 14.797L12.788 14.797C13.34 14.797 13.8423 14.5706 14.2065 14.2065C14.5706 13.8423 14.797 13.34 14.797 12.788L14.797 10.4599ZM9.72381 10.0691C9.86111 10.2064 9.86111 10.4287 9.72381 10.566C9.58651 10.7033 9.3638 10.7033 9.2265 10.566L6.90896 8.24888C6.77166 8.11158 6.77166 7.88888 6.90896 7.75158L9.2265 5.43449C9.3638 5.29719 9.58605 5.29719 9.72381 5.43449C9.86111 5.57179 9.86111 5.79404 9.72381 5.93134L8.00643 7.64872L15.1483 7.64872C15.3425 7.64872 15.4995 7.80622 15.4995 8.00046C15.4995 8.1947 15.342 8.3522 15.1483 8.3522L8.00643 8.3522L9.72381 10.0696L9.72381 10.0691Z" fill="#666666" stroke="#666666" stroke-width="0.1875"/>
</svg>
