<svg width="94" height="40" viewBox="0 0 94 40" fill="none" xmlns="http://www.w3.org/2000/svg">
<g id="iris biometric logo 1" clip-path="url(#clip0_247_1775)">
<g id="Layer 2">
<g id="final iris logo">
<g id="large object">
<g id="large">
<path id="Vector" d="M40.306 19.0301C40.306 18.9515 40.306 18.8754 40.306 18.7846C40.306 18.6226 40.2912 18.4607 40.2814 18.2938L40.2667 18.0655C40.2495 17.8594 40.2323 17.6532 40.2078 17.4495C40.2078 17.3882 40.1955 17.3293 40.1882 17.2679C40.1808 17.2066 40.1759 17.1648 40.1685 17.1133C40.1612 17.0618 40.1489 16.9538 40.1366 16.8679C40.1243 16.782 40.1194 16.7476 40.1121 16.6887C40.0974 16.5881 40.0802 16.4899 40.063 16.3917C40.0458 16.2936 40.0262 16.166 40.0041 16.0531C39.982 15.9402 39.9771 15.896 39.9599 15.8076C39.9427 15.7193 39.9427 15.7168 39.9329 15.6702L39.9108 15.5696L39.874 15.3904L39.8298 15.199C39.8298 15.1646 39.8151 15.1327 39.8053 15.0984C39.7881 15.0198 39.766 14.9388 39.7464 14.8529C39.7405 14.8205 39.7323 14.7885 39.7219 14.7572C39.6998 14.664 39.6752 14.5732 39.6507 14.4823C39.6261 14.3915 39.5967 14.286 39.5672 14.1903C39.5686 14.1789 39.5686 14.1673 39.5672 14.1559C39.5402 14.0627 39.5132 13.9694 39.4838 13.8762L39.4249 13.6872C39.3979 13.6013 39.3684 13.5178 39.339 13.4417C39.339 13.4098 39.3194 13.3779 39.3071 13.346C39.2825 13.2724 39.258 13.2012 39.231 13.1276L39.1795 12.9828C39.1427 12.8846 39.1083 12.7889 39.0715 12.6932C39.0715 12.6736 39.0543 12.6539 39.0469 12.6319C39.0224 12.5705 39.0003 12.5067 38.9733 12.4429C38.9463 12.3791 38.9169 12.3005 38.885 12.2294C38.634 11.617 38.3497 11.0189 38.0333 10.4378C37.9867 10.3494 37.9376 10.2611 37.8885 10.1727L37.8444 10.0966C37.7977 10.0107 37.7486 9.92483 37.6971 9.8512C37.6775 9.81929 37.6627 9.78984 37.6431 9.76039L37.5253 9.56405L37.4296 9.41189C37.3707 9.31372 37.3069 9.21555 37.2455 9.11984C37.1842 9.02412 37.1449 8.96522 37.0934 8.88914C36.9829 8.7247 36.8725 8.56272 36.7547 8.39829C36.6958 8.31239 36.6344 8.22649 36.5731 8.15287C36.5117 8.07924 36.4135 7.93935 36.3276 7.83381C36.2417 7.72828 36.1681 7.6252 36.0822 7.52213C35.9988 7.4215 35.9178 7.31842 35.8368 7.2178C35.7558 7.11718 35.665 7.0141 35.5766 6.91348L35.3312 6.6386L35.2772 6.5797L35.0613 6.34655L35.0244 6.30973C34.9361 6.21647 34.8477 6.12321 34.7569 6.0324C34.6661 5.9416 34.568 5.84343 34.4722 5.75017C34.4575 5.73299 34.4428 5.72072 34.4281 5.70599C34.2636 5.54646 34.0943 5.38694 33.9225 5.23478C33.7139 5.04334 33.4979 4.85928 33.2795 4.67766L33.2476 4.65067L32.9457 4.41751L32.9236 4.40033C32.823 4.31934 32.7199 4.24081 32.6168 4.15491C32.5138 4.06901 32.3984 3.99293 32.2904 3.90949C32.1824 3.82604 32.0695 3.74996 31.9591 3.66406C31.8487 3.57816 31.7382 3.50945 31.6253 3.43582L31.2866 3.21248C30.8326 2.92043 30.3663 2.64801 29.8926 2.39522L29.5343 2.2087C29.0435 1.96328 28.5526 1.73749 28.0618 1.53378C27.3012 1.21808 26.5217 0.950044 25.7278 0.731248L25.3842 0.637987C25.2001 0.591356 25.0161 0.544725 24.8295 0.503003C24.6896 0.468644 24.5473 0.439193 24.4049 0.409742L24.2675 0.380291L24.0834 0.343478C23.8061 0.316481 23.5116 0.267397 23.2196 0.225674C23.0404 0.198678 22.8588 0.174135 22.6796 0.152047L22.1888 0.100508C22.0562 0.0857829 21.9213 0.0735117 21.7838 0.0636947L21.5237 0.046515H21.3862L21.1065 0.0219727H20.834H20.6941H20.4487H19.9824C19.6388 0.0219727 19.2952 0.0219727 18.9516 0.0538778H18.8068L18.505 0.066149L18.3037 0.0833286L17.9159 0.120142L17.7417 0.14223L17.5134 0.169227C17.3392 0.188861 17.1625 0.215858 16.9882 0.242854L16.4974 0.32139L16.252 0.36802L16.198 0.382746L16.063 0.409742L15.7685 0.471098L15.5231 0.527546L15.1917 0.606081C15.0469 0.640441 14.9046 0.677254 14.7598 0.716522L14.3524 0.831871C14.2395 0.866231 14.1241 0.898136 14.0137 0.934949C13.9033 0.971763 13.7388 1.0233 13.6014 1.06748L13.4026 1.13374L13.2063 1.20246L13.0075 1.27609L12.8234 1.34481L12.7154 1.38653L12.443 1.47243L12.1828 1.58041C12.011 1.64913 11.8417 1.72276 11.6724 1.8013L11.4269 1.91664L11.1987 2.02709C11.0465 2.10071 10.8944 2.17434 10.7447 2.25288C10.3683 2.44431 9.99939 2.64801 9.6378 2.86398C9.52245 2.9327 9.39237 3.00142 9.29175 3.07505C9.19112 3.14867 9.06105 3.21739 8.94815 3.29102C8.75672 3.41618 8.56529 3.53644 8.37877 3.67633L8.09899 3.88004L7.92965 3.99784C7.82166 4.07883 7.71122 4.15982 7.60569 4.24326C7.17701 4.5705 6.76306 4.91736 6.36384 5.28386C6.26322 5.37221 6.16505 5.46547 6.06688 5.55628L5.77728 5.83606C5.68156 5.92933 5.5883 6.02504 5.49504 6.12076C5.49146 6.12683 5.48639 6.1319 5.48031 6.13548C5.31343 6.30973 5.14654 6.48644 4.98947 6.66805L4.90602 6.76377C4.8324 6.8423 4.76122 6.92329 4.69005 7.00919L4.44463 7.30124C4.4299 7.31597 4.41763 7.33315 4.40536 7.34788L4.23847 7.55403L4.07649 7.75773L4.03477 7.81173L3.87524 8.02034L3.73781 8.20686L3.67645 8.2903C3.62982 8.35166 3.58564 8.41547 3.54392 8.47682C3.5022 8.53818 3.46784 8.58236 3.43103 8.6339L3.24205 8.91123L3.09479 9.13702C2.90827 9.42661 2.72666 9.72112 2.55486 10.0205L2.41497 10.266L2.20881 10.6145C2.14746 10.7274 2.08856 10.8427 2.03211 10.9556L2.01248 10.9949C1.95848 11.0996 1.90694 11.2051 1.85786 11.3115C1.85742 11.3196 1.85742 11.3278 1.85786 11.336C1.80877 11.4391 1.76214 11.5397 1.71551 11.6428C1.71551 11.6698 1.69097 11.6943 1.68115 11.7189C1.63207 11.8293 1.58298 11.9398 1.53635 12.0502L1.38174 12.4183C1.33265 12.541 1.28357 12.6638 1.23694 12.7889C1.19031 12.9141 1.14613 13.0343 1.10195 13.1595C1.05778 13.2847 1.0136 13.4049 0.971879 13.5375C0.930156 13.67 0.876163 13.8271 0.831987 13.9719L0.736272 14.3032L0.662644 14.5486L0.61356 14.7376C0.598834 14.7989 0.581655 14.8578 0.566929 14.9167C0.562357 14.9391 0.556622 14.9612 0.549749 14.983C0.527661 15.0738 0.508027 15.1646 0.485939 15.2554C0.436854 15.4739 0.390224 15.6947 0.346048 15.9156C0.323959 16.031 0.304326 16.1488 0.282237 16.2666C0.260149 16.3844 0.250332 16.4605 0.233153 16.5586C0.215973 16.6568 0.206156 16.7402 0.193885 16.8311C0.192525 16.8539 0.192525 16.8769 0.193885 16.8998C0.193885 16.9562 0.176705 17.0127 0.171797 17.0691L0.142346 17.2974C0.142346 17.3244 0.142346 17.3489 0.142346 17.3759C0.142346 17.4741 0.120258 17.5722 0.112895 17.6729C0.105532 17.7735 0.0981695 17.8275 0.0932611 17.9183C0.0883526 18.0091 0.0760814 18.1024 0.0711729 18.1956C0.0662644 18.2889 0.0319051 18.4067 0.0269966 18.4975C0.0147254 18.711 0 18.927 0 19.1429C0 19.2583 0 19.3884 0 19.4939C0 19.5994 0 19.6829 0 19.7786C0 19.8743 0 19.9185 0 19.9872C0 20.1345 0 20.2793 0.0147254 20.4265C0.0294509 20.5738 0.0392678 20.7186 0.0490848 20.8609C0.0687187 21.1309 0.0932611 21.3984 0.125166 21.6684L0.154617 21.9138C0.154617 21.9923 0.174251 22.0709 0.186522 22.1592C0.198793 22.2476 0.206156 22.2942 0.215973 22.3605C0.22579 22.4267 0.245424 22.5519 0.260149 22.6476C0.274875 22.7433 0.282237 22.7801 0.296963 22.8439C0.35341 23.1679 0.417221 23.4869 0.493302 23.806C0.510482 23.8845 0.530116 23.9631 0.549749 24.0514C0.569383 24.1398 0.586563 24.206 0.608651 24.2821C0.630739 24.3582 0.647919 24.4367 0.670007 24.5128C0.669418 24.5226 0.669418 24.5325 0.670007 24.5423C0.704367 24.6699 0.74118 24.7877 0.777994 24.9202C0.777994 24.9423 0.777994 24.9669 0.797628 24.9889C0.829533 25.0945 0.863892 25.2 0.895797 25.3055C0.927702 25.4111 0.971878 25.5362 1.01115 25.654C1.05041 25.7718 1.11668 25.9559 1.17313 26.1056L1.25657 26.329C1.31056 26.4688 1.36701 26.6087 1.42346 26.7462C1.51672 26.9769 1.61734 27.2051 1.72042 27.4309C1.75233 27.5021 1.78669 27.5733 1.82105 27.6444C1.8554 27.7131 1.88976 27.7843 1.92167 27.853C1.95357 27.9218 1.99284 27.9978 2.02966 28.069C2.06647 28.1402 2.10328 28.2089 2.13764 28.2801C2.172 28.3513 2.21127 28.4224 2.25054 28.4936L2.33889 28.658C2.42479 28.8151 2.51069 28.9673 2.60149 29.1219L2.72421 29.328C2.76593 29.3968 2.80519 29.4655 2.84937 29.5317L2.93772 29.6765L3.01626 29.7993L3.10707 29.9391C3.23714 30.1428 3.37458 30.3416 3.51447 30.538L3.62982 30.7C3.64703 30.7265 3.66588 30.7519 3.68627 30.776L3.79916 30.9307C3.89733 31.0632 4.00041 31.1957 4.10349 31.3258C4.20656 31.4559 4.29001 31.5712 4.38572 31.6792L4.41518 31.7136L4.55507 31.8804C4.60661 31.9443 4.6606 32.0056 4.71214 32.067L4.82749 32.1946C4.95756 32.3443 5.09009 32.4916 5.22753 32.6363L5.37233 32.7885L5.54413 32.9652C5.60057 33.0241 5.65947 33.0806 5.71838 33.1395L5.89263 33.3113L6.07179 33.4831C6.25095 33.65 6.43256 33.8168 6.61663 33.9739L6.99213 34.293C7.05594 34.3445 7.11729 34.3985 7.1811 34.4476C7.30627 34.5531 7.42653 34.6562 7.56396 34.7544L7.7603 34.9016C7.82411 34.9532 7.89038 35.0022 7.95664 35.0489C8.15298 35.1937 8.35177 35.336 8.55548 35.4734L8.75918 35.6084L8.96288 35.7434C9.2083 35.9054 9.47336 36.0649 9.73351 36.2146C12.9138 38.0625 16.5286 39.0307 20.2067 39.0199C23.8848 39.0091 27.4939 38.0197 30.6633 36.1533C30.732 36.1116 30.8007 36.0723 30.8694 36.0281L30.916 36.0011L31.1075 35.8833L31.1566 35.8514L31.3554 35.7262L31.645 35.5348L31.9419 35.3336L31.9689 35.3139L32.2487 35.1151C32.2487 35.1151 32.2487 35.1151 32.261 35.1029C32.3591 35.0317 32.4573 34.9605 32.553 34.8869L32.8181 34.6856L32.8672 34.6464L33.1298 34.4353C33.223 34.3617 33.3114 34.2856 33.3997 34.2095C33.4123 34.2021 33.4239 34.193 33.4341 34.1825L33.6795 33.9616C33.7703 33.8807 33.8611 33.8021 33.9519 33.7162C34.3127 33.3898 34.6612 33.0487 34.9925 32.6953C35.076 32.6069 35.1594 32.521 35.238 32.4302C35.3165 32.3394 35.3999 32.2535 35.4834 32.1602C35.5668 32.067 35.6331 31.9909 35.7043 31.9148C35.7155 31.9046 35.7253 31.8931 35.7337 31.8804L35.9472 31.635C36.0086 31.5589 36.0699 31.4853 36.1288 31.4068C36.1878 31.3282 36.2074 31.3111 36.2442 31.262L36.4013 31.0583C36.4724 30.9626 36.5461 30.8644 36.6148 30.7687C36.9617 30.2942 37.2889 29.8033 37.5965 29.2961C37.6112 29.2716 37.6284 29.247 37.6407 29.2225C37.6971 29.1268 37.7511 29.0311 37.8051 28.9354L37.9548 28.6728L38.026 28.5378C38.0603 28.474 38.0947 28.4126 38.1266 28.3488C38.147 28.3141 38.1651 28.278 38.1806 28.2408C38.2297 28.1525 38.2739 28.0666 38.318 27.9758C38.3622 27.8849 38.4187 27.772 38.4677 27.669C38.5733 27.4432 38.6763 27.2174 38.7745 26.9891L38.9218 26.6357C39.0568 26.3044 39.1672 25.9731 39.2924 25.6393C39.3194 25.5608 39.3464 25.4847 39.3709 25.4086C39.5948 24.7244 39.7792 24.0279 39.9231 23.3225C39.955 23.1679 39.9845 23.0108 40.0115 22.8538C40.0384 22.6967 40.0728 22.5053 40.0998 22.331C40.0998 22.2696 40.117 22.2107 40.1243 22.1518C40.1317 22.0929 40.1513 21.9653 40.1612 21.8721C40.171 21.7788 40.1783 21.7395 40.1857 21.6733C40.1931 21.607 40.2029 21.5137 40.2102 21.4278C40.2176 21.3419 40.2274 21.2683 40.2348 21.1824C40.2348 21.0229 40.2593 20.8658 40.2691 20.7063C40.2863 20.4609 40.2961 20.2154 40.3011 19.9897C40.3011 19.9209 40.3011 19.8547 40.3011 19.786C40.3011 19.5994 40.3011 19.4178 40.3011 19.2338C40.3109 19.1601 40.3084 19.0939 40.306 19.0301ZM35.7141 25.6123C34.4206 28.613 32.2612 31.1595 29.5122 32.926C29.3061 33.0585 29.0975 33.1886 28.8839 33.3113C26.2505 34.8517 23.2569 35.6692 20.2061 35.6808C17.1552 35.6924 14.1554 34.8979 11.5104 33.3775C10.3264 32.6955 9.23021 31.8713 8.24624 30.9233C6.68793 29.4223 5.44546 27.625 4.59188 25.6369C3.5329 23.1651 3.12009 20.4647 3.39229 17.7895C3.66449 15.1143 4.61275 12.5523 6.14787 10.3445C8.02358 7.64478 10.6525 5.55697 13.7069 4.34143C16.7942 3.10771 20.1707 2.78574 23.4355 3.41373C26.6801 4.02567 29.6766 5.56825 32.0597 7.85345C34.4018 10.1069 36.0084 13.0155 36.6688 16.1979C37.3188 19.3599 36.9857 22.6452 35.7141 25.6123Z" fill="#1DD05D"/>
<path id="Vector_2" d="M40.3109 19.2237C40.3109 19.4077 40.3109 19.5893 40.3109 19.7759C40.3109 19.8446 40.3109 19.9108 40.3109 19.9796C40.3109 20.225 40.2961 20.4704 40.279 20.6962C40.279 20.8557 40.2569 21.0128 40.2446 21.1723C40.2446 21.2509 40.2299 21.3294 40.2201 21.4177C40.2102 21.5061 40.2053 21.5748 40.1955 21.6632C40.1857 21.7515 40.1808 21.7957 40.171 21.862C40.1612 21.9282 40.1489 22.0485 40.1342 22.1417C40.1194 22.235 40.117 22.2596 40.1096 22.3209C40.0834 22.4943 40.054 22.6686 40.0213 22.8437C39.9943 23.0007 39.9648 23.1578 39.9329 23.3124C39.789 24.0178 39.6046 24.7143 39.3807 25.3985C39.3562 25.4746 39.3292 25.5507 39.3022 25.6292C39.1893 25.963 39.0568 26.2943 38.9316 26.6256L38.7843 26.9791C38.6862 27.2073 38.5831 27.4331 38.4776 27.6589C38.4285 27.762 38.3769 27.865 38.3278 27.9657C38.2788 28.0663 38.2395 28.1424 38.1904 28.2307C38.1749 28.2679 38.1568 28.304 38.1364 28.3387C38.1045 28.4025 38.0701 28.4639 38.0358 28.5277L37.9646 28.6627L37.8149 28.9253C37.7609 29.021 37.7069 29.1167 37.6505 29.2124C37.6505 29.2369 37.621 29.2615 37.6063 29.286C37.3069 29.7883 36.9796 30.2792 36.6246 30.7586C36.5559 30.8543 36.4823 30.9525 36.4111 31.0482L36.254 31.2519C36.2172 31.301 36.1779 31.35 36.1387 31.3967C36.0994 31.4433 36.0184 31.5488 35.9571 31.6249L35.7435 31.8703C35.7352 31.883 35.7253 31.8945 35.7141 31.9047C35.6429 31.9906 35.5693 32.0765 35.4932 32.1501C35.4171 32.2238 35.3337 32.3317 35.2478 32.4201C35.1619 32.5085 35.0858 32.5968 35.0023 32.6852C34.671 33.0386 34.3225 33.3797 33.9618 33.7061C33.8709 33.7896 33.7801 33.8681 33.6893 33.9515L33.4439 34.1724C33.4337 34.1829 33.4222 34.192 33.4096 34.1994C33.3212 34.2755 33.2328 34.3516 33.1396 34.4252L32.877 34.6363L32.8279 34.6755L32.5628 34.8768C32.4671 34.9504 32.369 35.0216 32.2708 35.0928C32.2708 35.0928 32.2708 35.0928 32.2585 35.105L31.9787 35.3038L31.9517 35.3235C31.694 35.5026 31.4314 35.6744 31.1664 35.8413C31.0715 35.9035 30.9758 35.9624 30.8792 36.018L30.6755 36.1456L28.8864 33.3159C29.0999 33.1932 29.3085 33.0705 29.5147 32.9306C32.2637 31.1641 34.4231 28.6176 35.7165 25.6169C36.9883 22.6481 37.3206 19.3609 36.6688 16.1976C36.0084 13.0152 34.4018 10.1066 32.0597 7.85317C29.679 5.56081 26.6823 4.01129 23.4355 3.39382C20.1707 2.76583 16.7942 3.0878 13.7069 4.32152C10.6525 5.53706 8.02358 7.62487 6.14787 10.3246C4.61275 12.5324 3.66449 15.0943 3.39229 17.7696C3.12009 20.4448 3.5329 23.1452 4.59188 25.6169C5.44546 27.6051 6.68793 29.4024 8.24624 30.9034C9.23021 31.8514 10.3264 32.6756 11.5104 33.3576L9.74333 36.1923C9.48318 36.0401 9.22794 35.883 8.97515 35.7186L8.77145 35.5836L8.56775 35.4486C8.36405 35.3112 8.16525 35.1688 7.96891 35.024C7.90265 34.9774 7.83638 34.9283 7.77257 34.8768L7.57623 34.7295C7.44616 34.6314 7.31854 34.5283 7.19337 34.4228C7.12956 34.3737 7.06821 34.3197 7.0044 34.2681L6.62644 33.9614C6.44238 33.7994 6.26076 33.6349 6.0816 33.4705L5.90244 33.2987L5.72819 33.1269C5.66929 33.068 5.61039 33.0116 5.55394 32.9527L5.38215 32.776L5.23735 32.6238C5.09991 32.479 4.96738 32.3317 4.8373 32.182L4.72196 32.0544C4.67042 31.9931 4.61642 31.9317 4.56488 31.8679L4.42499 31.701L4.39554 31.6666C4.29983 31.5513 4.20657 31.4335 4.1133 31.3132C4.02004 31.193 3.90715 31.0506 3.80898 30.9181L3.69608 30.7635C3.6757 30.7393 3.65685 30.7139 3.63964 30.6874L3.52429 30.5254C3.3844 30.3291 3.24696 30.1303 3.11688 29.9266L3.02608 29.7867L2.94754 29.664L2.85919 29.5192C2.81501 29.4529 2.77574 29.3842 2.73402 29.3155L2.61131 29.1093C2.5205 28.9547 2.4346 28.8026 2.34871 28.6455L2.26035 28.4688C2.22109 28.3976 2.18427 28.3264 2.14746 28.2553C2.11065 28.1841 2.07629 28.1154 2.03947 28.0442C2.00266 27.973 1.96585 27.9018 1.93149 27.8282C1.89713 27.7546 1.86522 27.6883 1.83086 27.6196C1.7965 27.5484 1.76214 27.4773 1.73024 27.4061C1.62716 27.1803 1.52654 26.9521 1.43328 26.7214C1.37683 26.5839 1.32038 26.444 1.26639 26.3041L1.18294 26.0808C1.1265 25.9311 1.0725 25.7814 1.02096 25.6292C0.969424 25.4771 0.942428 25.3838 0.905614 25.2807C0.868801 25.1776 0.83935 25.0697 0.807445 24.9641C0.807445 24.942 0.807445 24.9175 0.787811 24.8954C0.750997 24.7702 0.714183 24.65 0.679824 24.5175C0.679235 24.5076 0.679235 24.4978 0.679824 24.488C0.657736 24.4119 0.638102 24.3358 0.618468 24.2573C0.598834 24.1788 0.5792 24.1051 0.559566 24.0266C0.539932 23.9481 0.520299 23.872 0.503119 23.7812C0.427038 23.4621 0.363227 23.1431 0.30678 22.8191C0.292054 22.7553 0.282237 22.689 0.269966 22.6228C0.257695 22.5565 0.238061 22.4313 0.22579 22.3356C0.213519 22.2399 0.203702 22.2031 0.196339 22.1344C0.188976 22.0657 0.174251 21.9773 0.164434 21.889L0.134983 21.6435C0.0932611 21.4006 0.0687187 21.1331 0.0490848 20.8606C0.0490848 20.7158 0.0294509 20.5686 0.0220881 20.4238C0.0147254 20.279 0 20.1244 0 19.9869C0 19.9182 0 19.847 0 19.7783C0 19.7096 0 19.5893 0 19.4936C0 19.3979 0 19.2482 0 19.1427C0 18.9267 0 18.7107 0.0220881 18.4972C0.0220881 18.3966 0.0343593 18.296 0.0417221 18.1953C0.0490848 18.0947 0.0417221 18.0088 0.0638102 17.918C0.0858984 17.8272 0.0638102 17.7634 0.0834441 17.6726C0.103078 17.5818 0.103078 17.4738 0.112895 17.3756C0.112895 17.3486 0.112895 17.3241 0.112895 17.2971L0.142346 17.0688C0.142346 17.0124 0.157071 16.9559 0.164434 16.8995C0.163074 16.8766 0.163074 16.8537 0.164434 16.8308C0.164434 16.74 0.191431 16.6492 0.203702 16.5584C0.215973 16.4675 0.235607 16.362 0.252787 16.2663C0.269966 16.1706 0.294509 16.0209 0.316597 15.9153C0.360773 15.6945 0.407404 15.4736 0.456488 15.2552C0.478577 15.1643 0.49821 15.0735 0.520299 14.9827C0.527171 14.961 0.532906 14.9388 0.537478 14.9165C0.552204 14.8576 0.569383 14.7987 0.584109 14.7373L0.633194 14.5483L0.706821 14.3029L0.802536 13.974C0.846712 13.8301 0.893343 13.6853 0.942428 13.5396C0.98415 13.412 1.02833 13.2942 1.0725 13.1617C1.11668 13.039 1.16085 12.9163 1.20749 12.7911C1.25412 12.6659 1.3032 12.5457 1.35229 12.4205L1.5069 12.0524C1.55353 11.9419 1.60262 11.8315 1.6517 11.721C1.6517 11.6965 1.67379 11.672 1.68606 11.645C1.73269 11.5419 1.77932 11.4413 1.82841 11.3382C1.82797 11.33 1.82797 11.3218 1.82841 11.3136C1.87749 11.2073 1.92903 11.1018 1.98302 10.997L2.00266 10.9578C2.05911 10.8449 2.11801 10.7295 2.17936 10.6166L2.36834 10.2681L2.50823 10.0227C2.68003 9.7233 2.86164 9.42879 3.04816 9.13919L3.19542 8.9134L3.3844 8.63607C3.42121 8.58453 3.45802 8.53054 3.49729 8.479C3.53656 8.42746 3.58319 8.35383 3.62982 8.29248L3.69117 8.20903L3.82861 8.02251L3.98814 7.8139L4.02986 7.75991L4.19184 7.55621L4.35873 7.35005C4.371 7.33533 4.38327 7.31815 4.398 7.30342L4.64342 7.01137C4.71459 6.92792 4.78577 6.84693 4.85939 6.76594L4.94284 6.67023C5.10727 6.48861 5.27416 6.31191 5.43368 6.13766C5.43976 6.13407 5.44483 6.12901 5.44841 6.12293C5.54167 6.02722 5.63493 5.9315 5.73065 5.83824L6.02025 5.55846C6.11842 5.46765 6.21659 5.37439 6.31721 5.28604C6.7148 4.92281 7.12875 4.57594 7.55905 4.24544C7.66459 4.16199 7.77503 4.081 7.88301 4.00001C8.21025 3.7595 8.54484 3.52798 8.8868 3.30547C8.99969 3.23184 9.11504 3.16067 9.23039 3.08949C9.34574 3.01832 9.46109 2.94715 9.57644 2.87843C10.2023 2.53238 10.7986 2.20842 11.4122 1.92864C14.0125 0.720977 16.8348 0.0650101 19.7012 0.00207329C22.5675 -0.0608635 25.4159 0.470594 28.0667 1.56296C28.5575 1.76911 29.0484 1.99408 29.5392 2.23787L29.8975 2.42439C30.3712 2.66982 30.8375 2.9496 31.2915 3.24166L31.6302 3.46499C31.7431 3.53862 31.8536 3.6147 31.964 3.69324C32.0744 3.77177 32.1849 3.84785 32.2953 3.93866C32.4058 4.02947 32.5138 4.09818 32.6217 4.18408C32.7297 4.26998 32.8279 4.34115 32.9285 4.42951L32.9506 4.44669L33.2328 4.67493L33.2647 4.70193C33.6787 5.04552 34.0763 5.40302 34.4575 5.77443C34.5532 5.86769 34.6489 5.96095 34.7422 6.05667C34.8355 6.15238 34.9214 6.24074 35.0097 6.334L35.0465 6.37081L35.2625 6.60396L35.3165 6.66286L35.5619 6.93774C35.6503 7.03836 35.7362 7.13899 35.8221 7.24206C35.908 7.34514 35.989 7.44577 36.0675 7.54639C36.1509 7.64947 36.2319 7.75255 36.3129 7.85808C36.3939 7.96361 36.4749 8.06914 36.5583 8.17713C36.6418 8.28512 36.681 8.34647 36.74 8.42255C36.8578 8.58208 36.9682 8.74406 37.0786 8.9134C37.1302 8.98948 37.1817 9.06556 37.2308 9.1441C37.2799 9.22263 37.356 9.33798 37.4149 9.43615L37.5106 9.58832L37.6284 9.78465C37.648 9.81411 37.6627 9.84356 37.6824 9.87546C37.7339 9.95891 37.783 10.0448 37.8296 10.1209L37.8738 10.197C37.9229 10.2853 37.972 10.3737 38.0186 10.462C38.335 11.0432 38.6193 11.6413 38.8702 12.2536C38.9021 12.3248 38.9291 12.396 38.9586 12.4671C38.988 12.5383 39.0077 12.5948 39.0322 12.6561C39.0322 12.6782 39.0494 12.6978 39.0568 12.7175C39.0936 12.8132 39.1279 12.9089 39.1647 13.0071L39.2163 13.1519C39.2433 13.2255 39.2678 13.2967 39.2924 13.3703C39.2924 13.4022 39.3144 13.4341 39.3243 13.466C39.3537 13.5519 39.3832 13.6354 39.4102 13.7114L39.4691 13.9004C39.4985 13.9937 39.5255 14.0869 39.5525 14.1802C39.5539 14.1916 39.5539 14.2031 39.5525 14.2146C39.582 14.3103 39.609 14.4084 39.636 14.5066C39.663 14.6048 39.685 14.6882 39.7071 14.7815C39.7176 14.8128 39.7258 14.8447 39.7317 14.8772C39.7513 14.9557 39.7734 15.0367 39.7906 15.1226C39.7906 15.157 39.8078 15.1889 39.8151 15.2232L39.8593 15.4147L39.8961 15.5938C39.9133 15.6724 39.9305 15.7509 39.9452 15.8393C39.9599 15.9276 39.9746 15.9939 39.9894 16.0847C40.0041 16.1755 40.0311 16.3105 40.0483 16.4234C40.0654 16.5363 40.0826 16.6197 40.0974 16.7203C40.0974 16.7792 40.1145 16.8406 40.1219 16.8995C40.1293 16.9584 40.144 17.059 40.1538 17.1449C40.1636 17.2308 40.1685 17.248 40.1734 17.2995C40.1783 17.3511 40.1882 17.4198 40.1931 17.4811C40.2176 17.6849 40.2348 17.891 40.252 18.0972L40.2667 18.3254C40.2667 18.4874 40.2863 18.6494 40.2912 18.8163C40.2912 18.8948 40.2912 18.9709 40.2912 19.0617C40.3084 19.0936 40.3109 19.1598 40.3109 19.2237Z" fill="#498AF8"/>
<path id="Vector_3" d="M15.7537 29.5367H12.7276C11.9356 29.5471 11.1719 29.2429 10.604 28.6907C10.0362 28.1385 9.71073 27.3835 9.6991 26.5916V23.6465H9.94452V26.5916C9.94932 26.9511 10.0249 27.3063 10.1671 27.6366C10.3092 27.9669 10.5151 28.266 10.7728 28.5167C11.0306 28.7674 11.3353 28.9649 11.6695 29.0978C12.0036 29.2307 12.3607 29.2964 12.7203 29.2912H15.7537V29.5367Z" fill="#DB504A"/>
<path id="Vector_4" d="M30.6068 15.1082H30.3614V12.1631C30.3566 11.8035 30.2809 11.4484 30.1388 11.1181C29.9967 10.7877 29.7908 10.4887 29.533 10.2379C29.2752 9.98722 28.9706 9.78976 28.6364 9.65686C28.3023 9.52397 27.9452 9.45824 27.5856 9.46343H24.5424V9.218H27.5684C28.3605 9.20816 29.1241 9.51255 29.6922 10.0645C30.2603 10.6165 30.5865 11.3711 30.5994 12.1631L30.6068 15.1082Z" fill="#DB504A"/>
<path id="Vector_5" d="M27.5758 29.5367H24.5424V29.2912H27.5684C27.928 29.2964 28.2851 29.2307 28.6192 29.0978C28.9534 28.9649 29.2581 28.7674 29.5159 28.5167C29.7736 28.266 29.9795 27.9669 30.1216 27.6366C30.2638 27.3063 30.3394 26.9511 30.3442 26.5916V23.6465H30.5896V26.5916C30.5773 27.3808 30.2537 28.1331 29.6892 28.6847C29.1247 29.2364 28.3651 29.5426 27.5758 29.5367Z" fill="#DB504A"/>
<path id="Vector_6" d="M9.95191 15.1082H9.70648V12.1631C9.71876 11.3713 10.0444 10.6167 10.6121 10.0647C11.1798 9.51264 11.9432 9.20817 12.735 9.218H15.7537V9.46343H12.7277C12.3681 9.45824 12.011 9.52397 11.6769 9.65686C11.3427 9.78976 11.038 9.98722 10.7802 10.2379C10.5224 10.4887 10.3166 10.7877 10.1745 11.1181C10.0323 11.4484 9.95671 11.8035 9.95191 12.1631V15.1082Z" fill="#DB504A"/>
<path id="Vector_7" d="M16.085 22.5248C16.0737 22.5271 16.062 22.5271 16.0507 22.5248C16.0396 22.5205 16.0294 22.514 16.0209 22.5057C16.0123 22.4974 16.0056 22.4874 16.001 22.4764C15.9964 22.4654 15.9941 22.4536 15.9942 22.4416C15.9943 22.4297 15.9968 22.4179 16.0016 22.407C16.3712 21.4949 16.5224 20.5091 16.4434 19.5282C16.442 19.5165 16.4431 19.5047 16.4465 19.4934C16.4499 19.4822 16.4555 19.4717 16.4631 19.4628C16.4707 19.4538 16.4801 19.4465 16.4906 19.4413C16.5011 19.4361 16.5126 19.4331 16.5244 19.4325C16.5481 19.4304 16.5716 19.4377 16.59 19.4529C16.6084 19.468 16.62 19.4898 16.6225 19.5135C16.6635 20.021 16.6454 20.5317 16.5685 21.0351C16.4924 21.5264 16.3598 22.0074 16.1734 22.4684C16.1663 22.4858 16.154 22.5005 16.1382 22.5106C16.1224 22.5207 16.1038 22.5257 16.085 22.5248Z" fill="#DB504A"/>
<path id="Vector_8" d="M25.6959 21.7272C25.6762 21.7271 25.6571 21.7201 25.6419 21.7076C24.8548 21.1187 24.3066 20.2656 24.0982 19.3049C24.0953 19.2933 24.0948 19.2812 24.0967 19.2694C24.0987 19.2576 24.103 19.2463 24.1094 19.2362C24.1158 19.2261 24.1242 19.2174 24.1341 19.2106C24.144 19.2039 24.1552 19.1992 24.1669 19.1969C24.1784 19.194 24.1903 19.1936 24.202 19.1955C24.2136 19.1975 24.2248 19.2018 24.2347 19.2083C24.2446 19.2147 24.253 19.2231 24.2595 19.233C24.266 19.2429 24.2704 19.254 24.2724 19.2656C24.4743 20.1822 24.9964 20.9967 25.745 21.5628C25.7637 21.5778 25.7759 21.5994 25.7791 21.6232C25.7823 21.6469 25.7763 21.671 25.7622 21.6904C25.7547 21.7012 25.7448 21.7102 25.7333 21.7165C25.7218 21.7229 25.709 21.7266 25.6959 21.7272Z" fill="#DB504A"/>
<path id="Vector_9" d="M25.3768 23.3544C25.3564 23.3539 25.3367 23.3471 25.3203 23.3348C25.0258 23.091 24.7471 22.8287 24.4859 22.5495C24.2082 22.2501 23.9516 21.9319 23.7177 21.5972C23.7107 21.5874 23.7057 21.5763 23.703 21.5646C23.7003 21.5528 23.7 21.5406 23.702 21.5288C23.7041 21.5169 23.7085 21.5055 23.715 21.4954C23.7214 21.4852 23.7299 21.4765 23.7398 21.4696C23.7596 21.4568 23.7835 21.4519 23.8067 21.456C23.83 21.4601 23.8508 21.4729 23.865 21.4917C24.0941 21.819 24.3458 22.1298 24.6184 22.4218C24.8733 22.6959 25.1463 22.9526 25.4357 23.19C25.4497 23.2021 25.4596 23.2182 25.4643 23.2361C25.4689 23.254 25.4679 23.2728 25.4615 23.2902C25.4551 23.3075 25.4436 23.3225 25.4284 23.3331C25.4133 23.3437 25.3953 23.3494 25.3768 23.3495V23.3544Z" fill="#DB504A"/>
<path id="Vector_10" d="M15.9525 25.6051C15.9336 25.6046 15.9154 25.5976 15.901 25.5854C15.8913 25.5786 15.8832 25.5699 15.8769 25.5599C15.8707 25.5499 15.8665 25.5387 15.8647 25.527C15.8629 25.5153 15.8634 25.5034 15.8663 25.492C15.8691 25.4805 15.8742 25.4697 15.8813 25.4603C16.1567 25.0872 16.4107 24.6988 16.6422 24.297C16.8818 23.8814 17.0965 23.452 17.2852 23.011C17.2953 22.9899 17.3132 22.9735 17.335 22.9653C17.3569 22.9571 17.3811 22.9576 17.4026 22.9668C17.4241 22.9759 17.4413 22.993 17.4505 23.0145C17.4597 23.036 17.4602 23.0602 17.4521 23.0821C17.2606 23.5292 17.0426 23.9643 16.7992 24.3853C16.5673 24.7919 16.3116 25.1844 16.0335 25.5609C16.025 25.5747 16.013 25.586 15.9989 25.5937C15.9847 25.6015 15.9687 25.6054 15.9525 25.6051Z" fill="#DB504A"/>
<path id="Vector_11" d="M27.0751 20.4904C27.0608 20.4905 27.0467 20.4873 27.0339 20.4809C27.0211 20.4745 27.01 20.4651 27.0015 20.4536C26.8408 20.2275 26.6933 19.9924 26.5597 19.7493C26.4257 19.5049 26.3053 19.2534 26.1989 18.9958C26.19 18.9737 26.1901 18.9489 26.1993 18.9268C26.2085 18.9048 26.226 18.8872 26.248 18.878C26.259 18.8732 26.2707 18.8707 26.2827 18.8706C26.2946 18.8705 26.3064 18.8728 26.3174 18.8774C26.3284 18.882 26.3384 18.8888 26.3467 18.8973C26.355 18.9058 26.3615 18.916 26.3658 18.9271C26.4686 19.1795 26.5866 19.4253 26.7192 19.6634C26.8491 19.9005 26.9925 20.13 27.1487 20.3506C27.1626 20.3702 27.1682 20.3945 27.1646 20.4183C27.1609 20.4421 27.1482 20.4635 27.1291 20.4782C27.1125 20.487 27.0939 20.4912 27.0751 20.4904Z" fill="#DB504A"/>
<path id="Vector_12" d="M15.5402 27.4311C15.5226 27.4316 15.5053 27.4269 15.4904 27.4175C15.4755 27.4082 15.4638 27.3946 15.4567 27.3785C15.4495 27.3624 15.4474 27.3446 15.4505 27.3273C15.4535 27.31 15.4617 27.294 15.4739 27.2814C16.7724 25.8294 17.7078 24.0899 18.203 22.206C18.2059 22.1944 18.211 22.1835 18.2182 22.174C18.2253 22.1645 18.2343 22.1565 18.2446 22.1505C18.255 22.1446 18.2664 22.1407 18.2782 22.1393C18.29 22.1379 18.302 22.1389 18.3135 22.1422C18.325 22.145 18.3359 22.1502 18.3455 22.1573C18.355 22.1645 18.363 22.1735 18.3689 22.1838C18.3749 22.1941 18.3787 22.2055 18.3801 22.2173C18.3816 22.2292 18.3806 22.2412 18.3773 22.2526C18.1371 23.1691 17.7929 24.0551 17.3514 24.8934C16.8748 25.7972 16.2896 26.6395 15.6089 27.4016C15.6 27.4109 15.5893 27.4183 15.5775 27.4233C15.5657 27.4284 15.553 27.431 15.5402 27.4311Z" fill="#DB504A"/>
<path id="Vector_13" d="M16.5121 27.3845C16.4904 27.3846 16.4694 27.3767 16.4532 27.3624C16.4371 27.347 16.4272 27.3263 16.4254 27.3041C16.4236 27.2819 16.43 27.2599 16.4434 27.2421C17.9944 25.3742 18.9305 23.0727 19.1234 20.6525C19.1226 20.6395 19.1246 20.6265 19.1293 20.6143C19.134 20.6022 19.1412 20.5912 19.1505 20.5821C19.1598 20.573 19.171 20.566 19.1832 20.5615C19.1954 20.5571 19.2085 20.5554 19.2215 20.5565C19.2344 20.5575 19.247 20.5614 19.2584 20.5677C19.2698 20.5741 19.2796 20.5828 19.2873 20.5933C19.295 20.6038 19.3003 20.6159 19.303 20.6286C19.3056 20.6414 19.3055 20.6545 19.3026 20.6672C19.1053 23.122 18.1547 25.456 16.5808 27.3501C16.5726 27.3605 16.5621 27.369 16.5503 27.3749C16.5384 27.3808 16.5254 27.3841 16.5121 27.3845Z" fill="#DB504A"/>
<path id="Vector_14" d="M17.3859 27.4651C17.3672 27.4659 17.3488 27.4598 17.3343 27.4479C17.3146 27.4344 17.301 27.4138 17.2964 27.3903C17.2918 27.3669 17.2966 27.3426 17.3098 27.3227C17.873 26.5075 18.3477 25.6346 18.7259 24.7188C19.5317 22.7485 19.8831 20.622 19.7542 18.4973C19.752 18.4843 19.7527 18.471 19.7562 18.4583C19.7598 18.4455 19.766 18.4338 19.7745 18.4237C19.783 18.4136 19.7936 18.4056 19.8056 18.4C19.8176 18.3945 19.8306 18.3916 19.8438 18.3916C19.857 18.3916 19.87 18.3945 19.882 18.4C19.8939 18.4056 19.9045 18.4136 19.9131 18.4237C19.9216 18.4338 19.9278 18.4455 19.9313 18.4583C19.9348 18.471 19.9355 18.4843 19.9334 18.4973C20.0645 20.6452 19.7105 22.795 18.8977 24.7875C18.5147 25.7152 18.0343 26.5996 17.4644 27.4258C17.4555 27.4383 17.4437 27.4484 17.43 27.4553C17.4163 27.4621 17.4012 27.4655 17.3859 27.4651Z" fill="#DB504A"/>
<path id="Vector_15" d="M18.2742 27.4655C18.2576 27.4655 18.2413 27.4603 18.2276 27.4507C18.2172 27.4447 18.2081 27.4366 18.2009 27.4269C18.1938 27.4173 18.1886 27.4062 18.1859 27.3945C18.1831 27.3828 18.1828 27.3706 18.1849 27.3588C18.187 27.3469 18.1915 27.3356 18.1982 27.3256C18.7608 26.4271 19.2296 25.4731 19.5971 24.4787C20.0161 23.3465 20.3027 22.1696 20.4512 20.9715C20.4524 20.9597 20.456 20.9482 20.4617 20.9377C20.4675 20.9273 20.4753 20.9181 20.4847 20.9108C20.4941 20.9035 20.5049 20.8981 20.5164 20.895C20.528 20.892 20.54 20.8913 20.5518 20.893C20.5752 20.8967 20.5964 20.9091 20.611 20.9278C20.6256 20.9465 20.6325 20.97 20.6303 20.9936C20.481 22.2061 20.1911 23.397 19.7664 24.5425C19.3941 25.548 18.9196 26.5127 18.3503 27.4213C18.3423 27.4343 18.3311 27.4452 18.3178 27.4529C18.3046 27.4606 18.2896 27.4649 18.2742 27.4655Z" fill="#DB504A"/>
<path id="Vector_16" d="M19.0988 27.4874C19.0844 27.4918 19.0691 27.4918 19.0547 27.4874C19.0441 27.4818 19.0349 27.4741 19.0275 27.4648C19.02 27.4554 19.0147 27.4446 19.0117 27.4331C19.0087 27.4215 19.0081 27.4095 19.01 27.3977C19.0119 27.3859 19.0163 27.3747 19.0228 27.3647C19.539 26.4687 19.9641 25.5232 20.2916 24.5423C20.5626 23.7425 20.767 22.9216 20.9027 22.0881C20.906 22.0691 20.915 22.0516 20.9287 22.038C20.9423 22.0243 20.9598 22.0153 20.9788 22.012C20.9981 22.0095 21.0178 22.0131 21.0349 22.0224C21.0521 22.0316 21.0659 22.046 21.0745 22.0635C21.337 22.6138 21.6483 23.1395 22.0047 23.6342C22.4608 24.2695 22.9878 24.8508 23.5754 25.3669C23.5866 25.3739 23.5962 25.3831 23.6034 25.3941C23.6107 25.4051 23.6155 25.4176 23.6175 25.4306C23.6194 25.4437 23.6185 25.457 23.6149 25.4696C23.6112 25.4823 23.6048 25.494 23.5961 25.5039C23.5874 25.5139 23.5767 25.5218 23.5647 25.5272C23.5526 25.5325 23.5396 25.5352 23.5264 25.535C23.5132 25.5348 23.5002 25.5318 23.4883 25.526C23.4764 25.5203 23.4659 25.5121 23.4576 25.5019C22.859 24.9772 22.3222 24.386 21.8574 23.7398C21.5503 23.3117 21.2755 22.8613 21.0352 22.3924C20.8985 23.1416 20.7074 23.8798 20.4634 24.6012C20.1309 25.5861 19.7 26.5349 19.1774 27.4334C19.1708 27.449 19.1599 27.4623 19.146 27.4719C19.1321 27.4815 19.1157 27.4869 19.0988 27.4874Z" fill="#DB504A"/>
<path id="Vector_17" d="M19.8597 27.4655C19.8459 27.4687 19.8317 27.4687 19.8179 27.4655C19.8073 27.4603 19.7979 27.4531 19.7902 27.4441C19.7826 27.4351 19.7768 27.4247 19.7734 27.4134C19.7699 27.4021 19.7688 27.3902 19.7701 27.3785C19.7715 27.3668 19.7752 27.3555 19.7811 27.3452C20.1543 26.6326 20.4766 25.8945 20.7456 25.1364C20.8978 24.7094 21.0328 24.2725 21.1481 23.8332C21.1531 23.816 21.163 23.8007 21.1764 23.7889C21.1899 23.7772 21.2065 23.7695 21.2242 23.767C21.242 23.7645 21.2602 23.7674 21.2763 23.7753C21.2925 23.7831 21.306 23.7956 21.315 23.8111C21.4798 24.1019 21.666 24.38 21.8721 24.6431C22.0685 24.8914 22.2817 25.1259 22.5102 25.345C22.5188 25.3531 22.5257 25.3628 22.5305 25.3735C22.5353 25.3842 22.5379 25.3957 22.5383 25.4075C22.5386 25.4192 22.5366 25.4309 22.5325 25.4419C22.5283 25.4528 22.522 25.4629 22.5139 25.4714C22.5059 25.48 22.4962 25.4868 22.4855 25.4916C22.4748 25.4965 22.4632 25.4991 22.4515 25.4994C22.4398 25.4998 22.4281 25.4978 22.4171 25.4936C22.4061 25.4895 22.3961 25.4832 22.3875 25.4751C22.1512 25.2507 21.9314 25.0096 21.7298 24.7536C21.5624 24.541 21.4076 24.319 21.2659 24.0885C21.1629 24.4615 21.0451 24.8247 20.915 25.1978C20.6427 25.9636 20.3146 26.7084 19.9333 27.4262C19.9247 27.4378 19.9136 27.4473 19.9009 27.4541C19.8881 27.4609 19.8741 27.4648 19.8597 27.4655Z" fill="#DB504A"/>
<path id="Vector_18" d="M20.6524 27.4654C20.6379 27.4687 20.6228 27.4687 20.6082 27.4654C20.5876 27.4535 20.5724 27.434 20.5659 27.4111C20.5595 27.3881 20.5624 27.3635 20.5739 27.3427C20.8049 26.9254 21.0042 26.4915 21.1703 26.0444C21.2733 25.7671 21.3641 25.4799 21.4402 25.1952C21.4446 25.1764 21.4553 25.1596 21.4704 25.1476C21.4856 25.1356 21.5043 25.129 21.5237 25.129C21.5431 25.1283 21.5622 25.1343 21.5778 25.1459C21.5934 25.1574 21.6046 25.174 21.6096 25.1928C21.6435 25.299 21.694 25.3993 21.7593 25.4897C21.8328 25.5872 21.9234 25.6703 22.0268 25.7352C22.045 25.749 22.0573 25.7692 22.0613 25.7917C22.0653 25.8143 22.0606 25.8375 22.0482 25.8567C22.0358 25.8759 22.0166 25.8898 21.9944 25.8954C21.9722 25.9011 21.9487 25.8982 21.9286 25.8873C21.8056 25.8088 21.6983 25.7081 21.612 25.5904C21.5868 25.5559 21.5639 25.5198 21.5433 25.4824C21.4828 25.6918 21.4141 25.8979 21.3372 26.1008C21.1675 26.5571 20.9641 27.0001 20.7285 27.4261C20.7202 27.4386 20.7088 27.4487 20.6955 27.4556C20.6822 27.4625 20.6674 27.4658 20.6524 27.4654Z" fill="#DB504A"/>
<path id="Vector_19" d="M21.3003 27.5118C21.2882 27.5142 21.2757 27.5142 21.2635 27.5118C21.2525 27.507 21.2426 27.5001 21.2343 27.4915C21.226 27.4828 21.2195 27.4726 21.2151 27.4614C21.2108 27.4502 21.2087 27.4383 21.209 27.4263C21.2093 27.4143 21.212 27.4025 21.2169 27.3916L21.4917 26.778C21.4966 26.7671 21.5035 26.7572 21.5122 26.7489C21.5208 26.7406 21.5311 26.7341 21.5422 26.7298C21.5534 26.7255 21.5653 26.7234 21.5773 26.7237C21.5892 26.7239 21.601 26.7266 21.612 26.7314C21.623 26.7362 21.6329 26.7432 21.6411 26.7518C21.6494 26.7605 21.6559 26.7707 21.6602 26.7819C21.6646 26.793 21.6666 26.8049 21.6664 26.8169C21.6661 26.8289 21.6635 26.8407 21.6586 26.8517L21.3838 27.4677C21.3749 27.4816 21.3625 27.493 21.3479 27.5008C21.3332 27.5085 21.3169 27.5123 21.3003 27.5118Z" fill="#DB504A"/>
<path id="Vector_20" d="M24.665 25.4087C24.6476 25.4088 24.6305 25.4037 24.616 25.394C23.5546 24.7011 22.6481 23.7961 21.9533 22.736C21.2586 21.6759 20.7906 20.4836 20.5787 19.2339C20.5752 19.2101 20.5812 19.186 20.5955 19.1666C20.6098 19.1473 20.6311 19.1344 20.6548 19.1308C20.6664 19.1287 20.6784 19.129 20.6899 19.1315C20.7014 19.1341 20.7123 19.139 20.7219 19.1459C20.7315 19.1527 20.7397 19.1614 20.7458 19.1715C20.752 19.1816 20.7561 19.1928 20.7579 19.2044C20.9579 20.3898 21.3935 21.5231 22.039 22.5373C22.7315 23.6148 23.643 24.5346 24.7141 25.237C24.7343 25.25 24.7484 25.2705 24.7534 25.294C24.7585 25.3174 24.7541 25.3419 24.7411 25.3621C24.7337 25.3759 24.7228 25.3875 24.7094 25.3957C24.696 25.4039 24.6807 25.4084 24.665 25.4087Z" fill="#DB504A"/>
<path id="Vector_21" d="M25.1657 24.994C25.1472 24.994 25.1291 24.988 25.1142 24.9769C23.6268 23.9251 22.4487 22.4937 21.7028 20.8316C21.6936 20.8094 21.6933 20.7846 21.702 20.7622C21.7107 20.7397 21.7277 20.7216 21.7494 20.7114C21.7602 20.7065 21.7719 20.7039 21.7837 20.7036C21.7955 20.7034 21.8072 20.7055 21.8182 20.7098C21.8292 20.7142 21.8392 20.7207 21.8476 20.7289C21.856 20.7372 21.8627 20.7471 21.8672 20.758C22.2108 21.5195 22.6469 22.2358 23.1655 22.8907C23.7557 23.6304 24.4472 24.2831 25.2197 24.8296C25.2354 24.8409 25.247 24.8568 25.253 24.8752C25.2589 24.8935 25.2589 24.9132 25.2529 24.9316C25.2469 24.9499 25.2352 24.9658 25.2195 24.977C25.2038 24.9883 25.185 24.9942 25.1657 24.994Z" fill="#DB504A"/>
<path id="Vector_22" d="M20.5861 18.8977C20.5645 18.8973 20.5436 18.8891 20.5274 18.8747C20.5112 18.8603 20.5007 18.8406 20.4978 18.8191C20.464 18.5627 20.4443 18.3046 20.4389 18.046C20.4333 17.7726 20.3844 17.5017 20.2941 17.2435C20.2778 17.2121 20.2572 17.1832 20.2327 17.1576C20.1813 17.1132 20.1165 17.0873 20.0487 17.084C19.9809 17.0877 19.9162 17.1135 19.8646 17.1576C19.7779 17.3137 19.7508 17.496 19.7885 17.6705C19.7914 17.6832 19.7916 17.6964 19.7889 17.7092C19.7863 17.7219 19.781 17.7339 19.7733 17.7444C19.7656 17.7549 19.7557 17.7637 19.7444 17.77C19.733 17.7764 19.7204 17.7802 19.7074 17.7813C19.6945 17.7824 19.6814 17.7806 19.6692 17.7762C19.6569 17.7718 19.6458 17.7648 19.6365 17.7557C19.6272 17.7466 19.6199 17.7356 19.6153 17.7234C19.6106 17.7113 19.6086 17.6983 19.6094 17.6853C19.5799 17.3466 19.6241 17.1282 19.7419 17.0153C19.8276 16.9419 19.9359 16.9003 20.0487 16.8975C20.1621 16.8993 20.271 16.942 20.3554 17.0177C20.3967 17.0582 20.4308 17.1056 20.4561 17.1576C20.5573 17.4397 20.6112 17.7366 20.6156 18.0362C20.6214 18.2874 20.6403 18.538 20.672 18.7872C20.6749 18.8112 20.6683 18.8354 20.6536 18.8546C20.639 18.8739 20.6174 18.8867 20.5935 18.8903L20.5861 18.8977Z" fill="#DB504A"/>
<path id="Vector_23" d="M21.5972 20.3699C21.5804 20.3692 21.564 20.3641 21.5498 20.355C21.5356 20.346 21.524 20.3334 21.5163 20.3184C21.2787 19.8486 21.1282 19.3398 21.072 18.8164C21.0573 18.6888 21.0549 18.5906 21.0499 18.4851C21.0499 18.3378 21.0499 18.1685 21.0058 17.8789C20.9076 17.0027 20.7726 16.8506 20.7064 16.7769C20.6282 16.6809 20.5313 16.6018 20.4216 16.5445C20.3119 16.4871 20.1917 16.4526 20.0682 16.4431C19.8802 16.4384 19.696 16.4972 19.5455 16.61C19.2584 16.8555 19.2731 17.3095 19.3001 18.0114V18.1807C19.3222 18.8483 19.3271 19.5429 19.3001 20.2472C19.2973 20.2705 19.2864 20.2921 19.2694 20.3082C19.2523 20.3243 19.2302 20.334 19.2068 20.3356C19.1829 20.3343 19.1605 20.3239 19.144 20.3066C19.1276 20.2892 19.1184 20.2662 19.1185 20.2423C19.1332 19.5429 19.1185 18.8508 19.1185 18.1881V18.0163C19.0939 17.2604 19.0767 16.7622 19.4326 16.4701C19.6179 16.3294 19.8455 16.2559 20.0781 16.2615C20.2282 16.2691 20.3751 16.3074 20.5098 16.3741C20.6445 16.4408 20.764 16.5345 20.861 16.6493C20.9763 16.7794 21.1064 16.9904 21.2021 17.8494C21.2365 18.1464 21.2438 18.3182 21.2487 18.4703C21.2487 18.5783 21.2487 18.6691 21.2684 18.7894C21.3224 19.2915 21.4671 19.7796 21.6954 20.23C21.7009 20.2407 21.7043 20.2523 21.7053 20.2642C21.7063 20.2761 21.705 20.2882 21.7013 20.2996C21.6977 20.311 21.6918 20.3215 21.684 20.3307C21.6763 20.3398 21.6668 20.3473 21.6561 20.3528C21.6382 20.3631 21.618 20.369 21.5972 20.3699Z" fill="#DB504A"/>
<path id="Vector_24" d="M25.2958 24.2454C25.2761 24.2449 25.2572 24.238 25.2418 24.2258C24.2142 23.4745 23.3611 22.5101 22.7409 21.3985C22.3209 20.6803 22.0177 19.9 21.8427 19.0866C21.7569 18.6502 21.7036 18.2081 21.6831 17.7638C21.6439 17.1355 21.6193 16.7183 21.2463 16.3158C20.9448 15.9896 20.5267 15.7956 20.083 15.7759C19.8542 15.7882 19.6305 15.8483 19.4264 15.9523C19.2222 16.0563 19.0421 16.2018 18.8976 16.3796C18.5368 16.8361 18.5638 17.3417 18.6104 18.1761C18.6227 18.3798 18.635 18.6031 18.6423 18.8461C18.6708 19.8086 18.6166 20.7717 18.4804 21.7249C18.4754 21.7474 18.4621 21.7671 18.4431 21.7801C18.4241 21.7931 18.4009 21.7985 18.3782 21.795C18.3554 21.7916 18.3348 21.7797 18.3206 21.7617C18.3063 21.7436 18.2993 21.7209 18.3012 21.6979C18.4355 20.7552 18.4889 19.8028 18.4607 18.851C18.4607 18.6056 18.4411 18.3896 18.4313 18.1859C18.3822 17.3392 18.3503 16.7772 18.7552 16.2667C18.9166 16.0698 19.117 15.9083 19.3439 15.7926C19.5707 15.6769 19.819 15.6093 20.0732 15.5942C20.319 15.6007 20.5609 15.6576 20.7838 15.7615C21.0067 15.8653 21.2059 16.0139 21.369 16.198C21.7862 16.6496 21.8157 17.1134 21.8598 17.7564C21.8781 18.1925 21.9298 18.6265 22.0145 19.0547C22.1886 19.8479 22.4877 20.6084 22.9004 21.3077C23.5087 22.3999 24.3459 23.3476 25.3547 24.0859C25.3644 24.093 25.3726 24.1019 25.3789 24.1121C25.3851 24.1224 25.3893 24.1337 25.3911 24.1456C25.393 24.1575 25.3924 24.1696 25.3895 24.1813C25.3866 24.1929 25.3815 24.2039 25.3743 24.2135C25.3647 24.2247 25.3525 24.2334 25.3389 24.2389C25.3252 24.2445 25.3105 24.2467 25.2958 24.2454Z" fill="#DB504A"/>
<path id="Vector_25" d="M17.4545 22.7284H17.4251C17.4024 22.7221 17.3831 22.7074 17.3708 22.6874C17.3585 22.6674 17.3542 22.6435 17.3588 22.6204C17.686 21.3154 17.8127 19.9681 17.7343 18.6249C17.7343 18.4654 17.7122 18.3108 17.6999 18.1636C17.6361 17.4273 17.5821 16.7965 17.9625 16.156C17.992 16.1094 18.6669 15 19.9259 14.9436C21.1015 14.8921 21.9065 15.7658 22.1691 16.2345C22.3084 16.4975 22.4139 16.7771 22.4832 17.0665C22.5352 17.3324 22.5713 17.6013 22.5912 17.8715C22.6182 18.1169 22.628 18.2666 22.6354 18.3623C22.6428 18.4581 22.6354 18.5071 22.655 18.5906C22.7108 18.9977 22.8205 19.3955 22.9814 19.7735C23.1582 20.2527 23.3775 20.7152 23.6367 21.1553C23.6444 21.1654 23.6499 21.1771 23.6529 21.1895C23.6558 21.2019 23.656 21.2148 23.6536 21.2273C23.6512 21.2398 23.6462 21.2517 23.639 21.2621C23.6317 21.2726 23.6223 21.2814 23.6114 21.288C23.6004 21.2946 23.5883 21.2988 23.5756 21.3004C23.563 21.3019 23.5501 21.3008 23.5379 21.2971C23.5257 21.2934 23.5145 21.2871 23.5049 21.2787C23.4952 21.2704 23.4875 21.2601 23.4821 21.2485C23.2211 20.8013 23.001 20.3315 22.8244 19.8447C22.6584 19.4522 22.5445 19.0397 22.4857 18.6176C22.4857 18.5292 22.471 18.4654 22.4661 18.3722C22.4611 18.2789 22.4489 18.1267 22.4243 17.8813C22.4106 17.6211 22.3803 17.3621 22.3335 17.1058C22.2647 16.8324 22.1642 16.568 22.0341 16.318C21.7887 15.8836 21.0524 15.0712 19.9578 15.1227C18.7822 15.1743 18.1564 16.2026 18.1319 16.2468C17.7785 16.8358 17.8275 17.415 17.8864 18.1464C17.8987 18.2936 17.9134 18.4482 17.9233 18.6102C18.0013 19.9715 17.8731 21.3368 17.5429 22.6597C17.5383 22.6796 17.5271 22.6973 17.5109 22.7098C17.4948 22.7224 17.4749 22.7289 17.4545 22.7284Z" fill="#DB504A"/>
<path id="Vector_26" d="M16.5588 23.3322C16.5491 23.3346 16.539 23.3346 16.5293 23.3322C16.518 23.3284 16.5077 23.3223 16.4988 23.3144C16.49 23.3065 16.4828 23.2968 16.4778 23.286C16.4727 23.2753 16.4699 23.2636 16.4695 23.2517C16.4691 23.2398 16.471 23.228 16.4753 23.2169C16.8102 22.2885 17.0078 21.3162 17.0619 20.3307C17.084 19.8055 17.0619 19.2312 17.0619 19.2263C17.0597 19.2133 17.0604 19.2 17.0639 19.1873C17.0674 19.1745 17.0737 19.1628 17.0822 19.1527C17.0907 19.1426 17.1013 19.1346 17.1133 19.129C17.1252 19.1235 17.1383 19.1206 17.1515 19.1206C17.1646 19.1206 17.1777 19.1235 17.1896 19.129C17.2016 19.1346 17.2122 19.1426 17.2207 19.1527C17.2292 19.1628 17.2355 19.1745 17.239 19.1873C17.2425 19.2 17.2432 19.2133 17.241 19.2263C17.241 19.2263 17.241 19.8104 17.241 20.3405C17.1856 21.3461 16.9839 22.3382 16.6422 23.2856C16.6342 23.3006 16.6221 23.3129 16.6073 23.3212C16.5925 23.3294 16.5757 23.3333 16.5588 23.3322Z" fill="#DB504A"/>
<path id="Vector_27" d="M17.106 16.8288C17.0821 16.8263 17.0601 16.8147 17.0446 16.7964C17.0291 16.7781 17.0212 16.7546 17.0226 16.7306C17.1109 15.6238 18.365 14.3083 19.9112 14.2027C21.4574 14.0972 22.7041 15.2164 22.9765 16.0213C22.9804 16.0325 22.9819 16.0442 22.9812 16.0559C22.9804 16.0677 22.9773 16.0791 22.972 16.0896C22.9668 16.1002 22.9595 16.1095 22.9506 16.1172C22.9416 16.1248 22.9313 16.1306 22.9201 16.1342C22.8973 16.142 22.8724 16.1405 22.8507 16.1299C22.8291 16.1193 22.8126 16.1006 22.8047 16.0778C22.5593 15.3219 21.3739 14.2837 19.9161 14.3819C18.3405 14.4899 17.2704 15.8299 17.1968 16.7453C17.1944 16.7679 17.1839 16.7889 17.1672 16.8042C17.1504 16.8196 17.1287 16.8283 17.106 16.8288Z" fill="#DB504A"/>
<path id="Vector_28" d="M25.5437 22.6331C25.521 22.6325 25.4992 22.6238 25.4823 22.6086C24.8947 22.0669 24.3976 21.4348 24.0098 20.736C23.7569 20.3095 23.5637 19.8504 23.4355 19.3714C23.3545 19.0475 23.2441 18.429 23.1754 17.9873C23.1533 17.8596 23.1385 17.7418 23.1214 17.6216C23.0871 17.3237 23.0363 17.0279 22.9692 16.7356C22.9641 16.7122 22.9684 16.6877 22.9813 16.6674C22.9942 16.6472 23.0145 16.6329 23.0379 16.6276C23.0495 16.6247 23.0616 16.6242 23.0734 16.6262C23.0852 16.6281 23.0965 16.6324 23.1066 16.6388C23.1167 16.6452 23.1254 16.6537 23.1322 16.6635C23.1389 16.6734 23.1436 16.6846 23.1459 16.6963C23.2183 16.9933 23.2749 17.294 23.3152 17.597C23.3324 17.7173 23.3472 17.8425 23.3692 17.9603C23.438 18.3971 23.5459 19.0107 23.6147 19.3273C23.7401 19.7909 23.9283 20.2351 24.1742 20.6476C24.5483 21.3297 25.0297 21.9471 25.6001 22.4761C25.6169 22.4931 25.6263 22.516 25.6263 22.5399C25.6263 22.5638 25.6169 22.5867 25.6001 22.6037C25.5856 22.6202 25.5655 22.6307 25.5437 22.6331Z" fill="#DB504A"/>
<path id="Vector_29" d="M16.5121 19.1428C16.4922 19.1426 16.473 19.1361 16.4571 19.1242C16.4412 19.1122 16.4295 19.0956 16.4238 19.0765C16.1591 18.1732 16.1421 17.2154 16.3747 16.3033C16.555 15.5325 16.9754 14.8389 17.5753 14.3224C18.1751 13.806 18.9235 13.4932 19.7124 13.4293C21.8943 13.2453 23.8478 15.2381 24.0098 17.0076C24.0294 17.2371 24.0294 17.4678 24.0098 17.6973C24.0073 17.7209 23.9956 17.7427 23.9773 17.7578C23.9589 17.773 23.9354 17.7803 23.9116 17.7783C23.8996 17.7777 23.8878 17.7746 23.8769 17.7693C23.8661 17.7639 23.8565 17.7564 23.8487 17.7472C23.8408 17.738 23.835 17.7273 23.8315 17.7158C23.828 17.7042 23.8268 17.6921 23.8282 17.6801C23.8466 17.462 23.8466 17.2428 23.8282 17.0248C23.6736 15.3338 21.8084 13.4342 19.7247 13.611C19.1628 13.666 18.6211 13.8496 18.1415 14.1475C17.6619 14.4454 17.2572 14.8496 16.9588 15.3289C16.7707 15.6454 16.6324 15.9889 16.5489 16.3474C16.3216 17.2285 16.3377 18.1548 16.5956 19.0275C16.5989 19.0387 16.6 19.0506 16.5987 19.0623C16.5974 19.074 16.5938 19.0853 16.5881 19.0956C16.5824 19.1059 16.5747 19.1149 16.5654 19.1222C16.5562 19.1295 16.5455 19.1348 16.5342 19.1379L16.5121 19.1428Z" fill="#DB504A"/>
<path id="Vector_30" d="M15.6654 21.7274H15.6384C15.6158 21.7206 15.5968 21.7052 15.5854 21.6846C15.5739 21.664 15.5709 21.6397 15.5771 21.617C15.8502 20.7942 15.9184 19.9172 15.7758 19.0621C15.6781 18.6111 15.6076 18.1546 15.5648 17.6951C15.5333 17.3835 15.5292 17.0698 15.5525 16.7576C15.5545 16.7335 15.5659 16.7112 15.5843 16.6955C15.6027 16.6799 15.6266 16.6722 15.6507 16.6741C15.6748 16.6761 15.6971 16.6875 15.7127 16.7059C15.7284 16.7243 15.7361 16.7482 15.7341 16.7723C15.7082 17.0744 15.7082 17.3782 15.7341 17.6804C15.7806 18.1277 15.8535 18.5719 15.9526 19.0106C16.1056 19.897 16.0373 20.8075 15.7538 21.6611C15.7484 21.6804 15.7368 21.6973 15.7208 21.7092C15.7048 21.7212 15.6854 21.7276 15.6654 21.7274Z" fill="#DB504A"/>
<path id="Vector_31" d="M15.7071 16.3649H15.685C15.6735 16.3623 15.6626 16.3574 15.653 16.3506C15.6434 16.3437 15.6353 16.335 15.6291 16.3249C15.6229 16.3148 15.6188 16.3036 15.617 16.292C15.6153 16.2803 15.6158 16.2684 15.6188 16.2569C15.8777 15.2178 16.4838 14.2982 17.3367 13.6505C18.0045 13.1325 18.8106 12.8234 19.6535 12.7621C20.7379 12.7491 21.7972 13.0884 22.6722 13.729C22.6873 13.7444 22.6965 13.7646 22.6981 13.786C22.6996 13.8075 22.6935 13.8288 22.6809 13.8462C22.6682 13.8636 22.6498 13.8759 22.6289 13.881C22.608 13.886 22.5859 13.8835 22.5667 13.8738C21.7216 13.2646 20.7051 12.9389 19.6633 12.9437C18.8493 12.9972 18.0698 13.293 17.4251 13.7929C16.6089 14.4162 16.0297 15.2992 15.7832 16.2962C15.7792 16.3141 15.7698 16.3304 15.7561 16.3427C15.7425 16.355 15.7254 16.3628 15.7071 16.3649Z" fill="#DB504A"/>
<path id="Vector_32" d="M26.1205 21.2952C26.1034 21.2983 26.086 21.2983 26.0689 21.2952C25.8628 21.2044 25.1535 20.235 24.8099 19.0398C24.6804 18.5809 24.6086 18.1077 24.5964 17.6311C24.5891 17.1539 24.5063 16.6809 24.351 16.2297C24.1249 15.5946 23.7726 15.0119 23.3153 14.5166C23.2985 14.4996 23.2891 14.4767 23.2891 14.4528C23.2891 14.4289 23.2985 14.406 23.3153 14.389C23.3325 14.3728 23.3554 14.3638 23.3791 14.3638C23.4028 14.3638 23.4256 14.3728 23.4429 14.389C23.9167 14.8977 24.2824 15.4971 24.5178 16.1512C24.6768 16.6192 24.7596 17.1098 24.7633 17.6041C24.7769 18.0665 24.847 18.5256 24.9719 18.9711C25.3155 20.1687 25.9781 21.0155 26.1205 21.1063C26.1403 21.1076 26.1592 21.1155 26.1741 21.1287C26.1891 21.1418 26.1993 21.1595 26.2032 21.179C26.2071 21.1986 26.2045 21.2188 26.1958 21.2367C26.187 21.2546 26.1726 21.2692 26.1548 21.2781C26.1445 21.2858 26.1328 21.2916 26.1205 21.2952Z" fill="#DB504A"/>
<path id="Vector_33" d="M15.1525 20.8857H15.1402C15.1165 20.8826 15.095 20.8703 15.0803 20.8515C15.0656 20.8326 15.0589 20.8088 15.0617 20.785C15.1234 20.3558 15.1324 19.9206 15.0887 19.4892C15.0665 19.2906 15.0346 19.0932 14.9929 18.8977C14.9709 18.7922 14.9463 18.6793 14.9218 18.5369C14.8225 17.9974 14.7667 17.4509 14.7549 16.9024C14.7876 16.0757 15.0419 15.273 15.4912 14.5783C15.8498 13.9519 16.334 13.4064 16.9135 12.976C17.4929 12.5457 18.1551 12.2397 18.8584 12.0774C18.87 12.0755 18.8818 12.0758 18.8933 12.0785C18.9048 12.0811 18.9156 12.086 18.9252 12.0929C18.9347 12.0997 18.9429 12.1083 18.9491 12.1183C18.9553 12.1283 18.9595 12.1394 18.9614 12.151C18.9634 12.1626 18.963 12.1745 18.9604 12.1859C18.9577 12.1974 18.9528 12.2082 18.946 12.2178C18.9391 12.2274 18.9305 12.2355 18.9205 12.2417C18.9105 12.248 18.8994 12.2522 18.8878 12.2541C18.21 12.4095 17.5716 12.703 17.0125 13.1165C16.4533 13.5299 15.9856 14.0543 15.6384 14.6568C15.2079 15.3246 14.9654 16.0961 14.9365 16.8902C14.9486 17.4287 15.0036 17.9654 15.1009 18.4952C15.1255 18.6327 15.1476 18.7406 15.1696 18.8486C15.2089 19.0474 15.2433 19.2217 15.2703 19.4696C15.3145 19.915 15.3046 20.3641 15.2408 20.8071C15.2384 20.8288 15.228 20.8488 15.2117 20.8633C15.1954 20.8778 15.1743 20.8858 15.1525 20.8857Z" fill="#DB504A"/>
<path id="Vector_34" d="M26.6555 20.8856C26.6418 20.8854 26.6284 20.8822 26.6161 20.8763C26.6038 20.8704 26.5929 20.8618 26.5843 20.8512C25.9846 20.1376 25.564 19.2911 25.3572 18.3822C25.2705 17.9676 25.2334 17.5441 25.2467 17.1208C25.2467 17.0324 25.2467 16.9539 25.2467 16.8753C25.1878 14.7475 23.0379 12.4823 20.7187 12.1215C20.707 12.1197 20.6958 12.1156 20.6857 12.1094C20.6757 12.1032 20.6669 12.0951 20.6601 12.0855C20.6532 12.0759 20.6483 12.065 20.6458 12.0535C20.6432 12.0419 20.6429 12.03 20.645 12.0184C20.6468 12.0067 20.6509 11.9955 20.6571 11.9855C20.6633 11.9754 20.6714 11.9667 20.681 11.9598C20.6906 11.953 20.7015 11.9481 20.713 11.9455C20.7246 11.9429 20.7365 11.9427 20.7481 11.9448C23.1336 12.3154 25.367 14.6641 25.4283 16.8704C25.4283 16.9465 25.4283 17.0275 25.4283 17.1159C25.414 17.5278 25.4502 17.9399 25.5363 18.343C25.7354 19.2258 26.1445 20.0475 26.7291 20.7383C26.7396 20.7515 26.7462 20.7674 26.7482 20.7842C26.7501 20.8009 26.7474 20.8179 26.7403 20.8332C26.7331 20.8485 26.7219 20.8615 26.7078 20.8707C26.6936 20.88 26.6772 20.8851 26.6604 20.8856H26.6555Z" fill="#DB504A"/>
<path id="Vector_35" d="M14.3941 19.5752C14.3755 19.575 14.3575 19.5693 14.3421 19.5588C14.3268 19.5483 14.315 19.5335 14.3082 19.5163C14.1143 19.002 13.9921 18.4636 13.945 17.9161C13.8674 16.9627 14.0145 16.0045 14.3745 15.1183C14.5783 14.5933 14.8515 14.0981 15.1868 13.6457C15.1936 13.6361 15.2023 13.6279 15.2124 13.6217C15.2224 13.6154 15.2336 13.6113 15.2452 13.6095C15.2569 13.6076 15.2688 13.6082 15.2803 13.611C15.2918 13.6139 15.3025 13.619 15.312 13.6261C15.3217 13.6331 15.3299 13.642 15.3362 13.6523C15.3424 13.6625 15.3466 13.6739 15.3484 13.6858C15.3503 13.6977 15.3497 13.7098 15.3468 13.7214C15.3439 13.7331 15.3388 13.7441 15.3316 13.7537C15.0049 14.1938 14.7391 14.6759 14.5413 15.187C14.1923 16.052 14.0495 16.9863 14.1241 17.9161C14.1724 18.442 14.2921 18.9589 14.48 19.4525C14.4844 19.4636 14.4865 19.4754 14.4863 19.4874C14.486 19.4993 14.4834 19.5111 14.4787 19.522C14.4739 19.533 14.467 19.5429 14.4584 19.5512C14.4497 19.5594 14.4396 19.5659 14.4284 19.5703L14.3941 19.5752Z" fill="#DB504A"/>
<path id="Vector_36" d="M16.6274 12.4603C16.6119 12.4607 16.5965 12.457 16.5827 12.4497C16.569 12.4424 16.5573 12.4317 16.5489 12.4186C16.5368 12.3979 16.5331 12.3734 16.5386 12.3501C16.5441 12.3268 16.5583 12.3065 16.5784 12.2934C17.4675 11.7224 18.4743 11.3599 19.5234 11.2332C19.9382 11.1951 20.3555 11.1951 20.7702 11.2332C20.7821 11.2345 20.7937 11.2381 20.8042 11.2439C20.8147 11.2496 20.824 11.2574 20.8315 11.2667C20.8391 11.2761 20.8447 11.2868 20.848 11.2983C20.8514 11.3098 20.8525 11.3219 20.8512 11.3338C20.8499 11.3457 20.8463 11.3573 20.8405 11.3678C20.8348 11.3783 20.827 11.3876 20.8176 11.3951C20.8083 11.4027 20.7976 11.4083 20.7861 11.4116C20.7746 11.415 20.7625 11.4161 20.7506 11.4148C20.3481 11.3775 19.9431 11.3775 19.5406 11.4148C18.5235 11.5413 17.5479 11.8953 16.6863 12.4505C16.668 12.4591 16.6476 12.4625 16.6274 12.4603Z" fill="#DB504A"/>
<path id="Vector_37" d="M26.0394 17.3194C26.016 17.3194 25.9935 17.3101 25.977 17.2936C25.9604 17.277 25.9511 17.2545 25.9511 17.2311C25.9451 16.8743 25.9081 16.5188 25.8406 16.1684C25.5779 14.7684 24.8264 13.5072 23.7202 12.6098C23.1155 12.1364 22.422 11.7892 21.6807 11.5888C21.6691 11.586 21.6583 11.5808 21.6487 11.5737C21.6392 11.5665 21.6312 11.5575 21.6253 11.5472C21.6193 11.5369 21.6155 11.5255 21.614 11.5136C21.6126 11.5018 21.6136 11.4898 21.6169 11.4784C21.6232 11.4553 21.6384 11.4357 21.659 11.4238C21.6797 11.4119 21.7042 11.4085 21.7273 11.4146C22.4923 11.6201 23.2077 11.9782 23.8306 12.4674C24.9711 13.3914 25.7454 14.6912 26.0149 16.1341C26.0857 16.4947 26.1235 16.8611 26.1278 17.2286C26.1281 17.2404 26.1261 17.2522 26.1218 17.2632C26.1175 17.2742 26.111 17.2842 26.1028 17.2927C26.0946 17.3012 26.0847 17.3079 26.0738 17.3125C26.0629 17.3171 26.0513 17.3195 26.0394 17.3194Z" fill="#DB504A"/>
</g>
</g>
<g id="final">
<path id="Vector_38" d="M45.8746 27.6052H48.0613C48.5334 27.5756 49.0018 27.7052 49.3915 27.9734C49.5429 28.0874 49.6649 28.236 49.7473 28.4068C49.8297 28.5776 49.8701 28.7655 49.8652 28.9551C49.868 29.1512 49.8304 29.3459 49.7547 29.5269C49.6823 29.6935 49.5781 29.8444 49.448 29.9711C49.3142 30.1046 49.1591 30.2149 48.989 30.2975C48.8063 30.3872 48.6123 30.4516 48.4123 30.489C48.6886 30.5696 48.9413 30.7162 49.1485 30.916C49.2506 31.0183 49.3301 31.1408 49.3821 31.2756C49.4341 31.4104 49.4574 31.5546 49.4504 31.6989C49.452 31.9413 49.3948 32.1805 49.2835 32.3959C49.1646 32.6153 48.9966 32.8042 48.7927 32.9481C48.5586 33.1114 48.2978 33.2327 48.0221 33.3064C47.6859 33.396 47.3391 33.4389 46.9913 33.434H44.3063L45.8746 27.6052ZM47.06 32.8622C47.4987 32.8859 47.9345 32.7782 48.3117 32.553C48.4566 32.4619 48.5753 32.3344 48.6558 32.1833C48.7363 32.0322 48.7759 31.8627 48.7706 31.6915C48.7749 31.553 48.74 31.416 48.67 31.2964C48.6008 31.1818 48.5048 31.0858 48.3902 31.0166C48.2597 30.9356 48.116 30.8783 47.9656 30.8473C47.7888 30.8108 47.6087 30.7927 47.4281 30.7933H45.6488L45.0991 32.8622H47.06ZM47.4772 30.2092C47.9152 30.2319 48.3499 30.1216 48.724 29.8926C48.8677 29.8034 48.9859 29.6785 49.0672 29.5302C49.1484 29.3818 49.19 29.215 49.1878 29.0459C49.1942 28.9221 49.1691 28.7987 49.1151 28.6871C49.061 28.5756 48.9797 28.4795 48.8786 28.4078C48.6132 28.2467 48.3049 28.1705 47.9951 28.1893H46.3507L45.8181 30.2092H47.4772Z" fill="#498AF8"/>
<path id="Vector_39" d="M51.9096 27.605H52.5673L50.9991 33.4461H50.3389L51.9096 27.605Z" fill="#498AF8"/>
<path id="Vector_40" d="M54.7295 33.3605C54.4262 33.2364 54.1508 33.0528 53.9196 32.8205C53.6919 32.5904 53.5133 32.3166 53.3944 32.0155C53.2671 31.6989 53.2029 31.3604 53.2054 31.0191C53.2057 30.5692 53.295 30.1238 53.468 29.7086C53.6388 29.2947 53.8823 28.9149 54.1871 28.587C54.4921 28.2591 54.857 27.9925 55.262 27.8016C55.6835 27.6038 56.1439 27.5032 56.6094 27.5071C56.966 27.502 57.3199 27.5688 57.65 27.7034C57.9529 27.8258 58.2277 28.0087 58.4575 28.2409C58.6842 28.4703 58.8635 28.7422 58.9851 29.041C59.11 29.3531 59.1734 29.6865 59.1717 30.0227C59.1711 30.4734 59.0818 30.9195 58.909 31.3357C58.7408 31.7518 58.498 32.1335 58.1924 32.4622C57.8867 32.7903 57.521 33.0569 57.115 33.2476C56.6938 33.4462 56.2333 33.5477 55.7676 33.5445C55.4128 33.552 55.0601 33.4895 54.7295 33.3605ZM56.872 32.7003C57.1928 32.54 57.4795 32.3191 57.7163 32.0499C57.9541 31.7756 58.1433 31.4627 58.2759 31.1247C58.4094 30.7854 58.4785 30.4241 58.4796 30.0595C58.4817 29.7974 58.436 29.537 58.3446 29.2913C58.2616 29.0614 58.1311 28.8515 57.9617 28.6753C57.7905 28.4989 57.5851 28.3595 57.358 28.2655C57.1073 28.1628 56.8385 28.1118 56.5677 28.1158C56.199 28.1118 55.8347 28.196 55.505 28.3612C55.1843 28.5215 54.8976 28.7423 54.6608 29.0116C54.4176 29.2856 54.2248 29.6005 54.0914 29.9417C53.9557 30.2796 53.8857 30.6403 53.8852 31.0044C53.8822 31.2682 53.928 31.5303 54.0202 31.7775C54.1044 32.0061 54.2347 32.2149 54.4031 32.391C54.5746 32.5653 54.7789 32.7038 55.0044 32.7984C55.2556 32.9021 55.5254 32.953 55.7971 32.9482C56.166 32.9513 56.5303 32.8663 56.8598 32.7003H56.872Z" fill="#498AF8"/>
<path id="Vector_41" d="M61.3044 27.605H61.9204L63.1819 30.7955L66.1613 27.605H66.8976L65.3294 33.4461H64.6618L65.9257 28.7143L62.9635 31.8435H62.9316L61.6554 28.7143L60.3865 33.4363H59.7361L61.3044 27.605Z" fill="#498AF8"/>
<path id="Vector_42" d="M68.5542 27.605H72.7264L72.5595 28.2063H69.0475L68.5125 30.2016H71.6637L71.4969 30.8029H68.3554L67.8032 32.8472H71.3668L71.2097 33.4461H66.986L68.5542 27.605Z" fill="#498AF8"/>
<path id="Vector_43" d="M75.2224 28.2239H73.259L73.4259 27.6128H78.0227L77.8558 28.2239H75.8924L74.4885 33.4539H73.8308L75.2224 28.2239Z" fill="#498AF8"/>
<path id="Vector_44" d="M79.1443 27.6054H81.2475C81.7128 27.5809 82.175 27.6926 82.5777 27.9269C82.7342 28.0267 82.8671 28.1595 82.9671 28.3158C83.0671 28.4722 83.1319 28.6485 83.1569 28.8325C83.1949 29.2047 83.129 29.5802 82.9666 29.9172C82.8041 30.2543 82.5514 30.5397 82.2366 30.7419C81.8977 30.9338 81.5254 31.0595 81.1395 31.1125L82.3397 33.4464H81.5813L80.4303 31.1689H78.8448L78.2337 33.4366H77.576L79.1443 27.6054ZM80.5873 30.5946C80.9595 30.6046 81.3299 30.5403 81.677 30.4056C81.9389 30.3094 82.1627 30.1312 82.3151 29.8976C82.4966 29.6647 82.5841 29.3722 82.5605 29.0779C82.5504 28.9518 82.5124 28.8296 82.4491 28.7201C82.3859 28.6105 82.299 28.5165 82.1949 28.4447C81.9019 28.2732 81.5642 28.1937 81.2254 28.2165H79.6572L79.0142 30.5946H80.5873Z" fill="#498AF8"/>
<path id="Vector_45" d="M85.1866 27.605H85.8444L84.2761 33.4461H83.6159L85.1866 27.605Z" fill="#498AF8"/>
<path id="Vector_46" d="M87.9647 33.3899C87.6715 33.28 87.4029 33.1132 87.1745 32.899C86.9452 32.689 86.7615 32.4343 86.6345 32.1505C86.4994 31.8299 86.4326 31.4847 86.4382 31.1369C86.4369 30.6682 86.5304 30.204 86.7131 29.7723C86.8917 29.3434 87.1461 28.9502 87.4641 28.6115C87.7874 28.2736 88.1723 28.0004 88.5979 27.8065C89.0246 27.6058 89.4909 27.5035 89.9625 27.5071C90.4113 27.4857 90.857 27.592 91.2479 27.8135C91.6388 28.035 91.959 28.3628 92.1713 28.7587L91.6019 29.1072C91.4401 28.8193 91.2153 28.5718 90.9442 28.3832C90.634 28.1913 90.2728 28.098 89.9085 28.1157C89.5383 28.1125 89.1725 28.1966 88.8409 28.3612C88.5095 28.5266 88.2122 28.7531 87.9647 29.0287C87.7122 29.3109 87.5119 29.6359 87.3733 29.9883C87.2291 30.3438 87.1549 30.7238 87.1548 31.1074C87.1512 31.3683 87.1979 31.6275 87.2923 31.8707C87.3786 32.0861 87.508 32.2815 87.6727 32.445C87.8368 32.6058 88.0335 32.7296 88.2494 32.8082C88.4852 32.8944 88.7347 32.9368 88.9857 32.9334C89.3357 32.943 89.6829 32.8699 89.9993 32.7199C90.2937 32.5696 90.5629 32.3741 90.7969 32.1407L91.2387 32.5751C91.1007 32.7113 90.954 32.8384 90.7994 32.9555C90.6381 33.0759 90.4655 33.1803 90.284 33.2672C90.0887 33.3594 89.8837 33.4293 89.6729 33.4758C89.4359 33.5277 89.1939 33.5532 88.9513 33.5519C88.6154 33.5579 88.2811 33.503 87.9647 33.3899Z" fill="#498AF8"/>
<path id="Vector_47" d="M48.5251 5.64453V24.0268H45.3199V5.64453H48.5251Z" fill="#666666"/>
<path id="Vector_48" d="M65.2508 24.0271L60.7203 17.6191H56.6659V24.0271H53.4606V5.64487H61.6553C62.6205 5.632 63.5818 5.76945 64.5047 6.05227C65.2921 6.29021 66.0239 6.68323 66.6571 7.20822C67.2446 7.70753 67.7076 8.33693 68.0094 9.04644C68.3291 9.81505 68.487 10.6413 68.4732 11.4737C68.4842 12.1748 68.3729 12.8724 68.1443 13.5352C67.9403 14.1176 67.6363 14.6599 67.2461 15.1379C66.8553 15.6061 66.3891 16.0059 65.8668 16.3208C65.3133 16.6476 64.7169 16.8954 64.0948 17.0571L69.0598 24.0271H65.2508ZM64.1979 9.3385C63.5304 8.8182 62.5912 8.55887 61.3805 8.56051H56.6659V14.7575H61.4075C62.5659 14.7575 63.487 14.476 64.1709 13.9132C64.5066 13.641 64.7744 13.2944 64.9528 12.9008C65.1313 12.5071 65.2157 12.0774 65.1993 11.6455C65.1993 10.6262 64.8655 9.85716 64.1979 9.3385Z" fill="#666666"/>
<path id="Vector_49" d="M75.8359 5.64453V24.0268H72.6307V5.64453H75.8359Z" fill="#666666"/>
<path id="Vector_50" d="M83.66 11.3949C83.8158 11.695 84.0477 11.949 84.3325 12.1312C84.7484 12.4029 85.2003 12.6152 85.675 12.7619C86.2443 12.9534 86.9683 13.1546 87.847 13.3657C88.7196 13.5808 89.5771 13.853 90.4141 14.1805C91.0934 14.4348 91.7242 14.8033 92.2793 15.2702C92.7569 15.6808 93.1389 16.1909 93.3984 16.7648C93.665 17.4007 93.7946 18.0855 93.7789 18.7748C93.791 19.5805 93.6234 20.3786 93.288 21.1113C92.9768 21.7826 92.5179 22.375 91.9455 22.844C91.3361 23.3368 90.6344 23.7031 89.8815 23.9214C89.0211 24.1747 88.1278 24.2987 87.2309 24.2895C85.8418 24.2925 84.4635 24.0456 83.1618 23.5606C81.8324 23.0609 80.6111 22.3111 79.5639 21.3518L81.5077 19.0399C82.3171 19.758 83.2265 20.3548 84.2073 20.8118C85.1834 21.238 86.2397 21.4489 87.3046 21.4303C88.3035 21.4303 89.0937 21.2192 89.6827 20.7996C89.9628 20.6112 90.1904 20.3547 90.3441 20.0542C90.4978 19.7537 90.5726 19.419 90.5613 19.0816C90.5668 18.7759 90.5083 18.4725 90.3895 18.1907C90.2509 17.8921 90.0326 17.6373 89.7588 17.4544C89.3669 17.1936 88.9418 16.9864 88.4949 16.8384C87.8082 16.6002 87.1094 16.3987 86.4014 16.2347C85.5139 16.0345 84.6394 15.7804 83.7827 15.4739C83.0882 15.232 82.4388 14.8762 81.8611 14.421C81.3525 14.0134 80.9465 13.4922 80.6757 12.8994C80.3856 12.2104 80.2467 11.4672 80.2683 10.72C80.2624 9.96871 80.4251 9.22566 80.7444 8.54556C81.0508 7.89723 81.4897 7.32034 82.0329 6.85213C82.6097 6.36394 83.2768 5.99371 83.9963 5.76245C84.81 5.50223 85.66 5.37381 86.5143 5.38205C87.7521 5.36344 88.9834 5.56368 90.1515 5.97352C91.2493 6.37747 92.2739 6.95774 93.1849 7.69148L91.4522 10.1335C90.6836 9.5602 89.8448 9.0876 88.9563 8.72717C88.1637 8.40725 87.3175 8.24069 86.4628 8.23633C85.5179 8.23633 84.7816 8.4523 84.254 8.87934C84.0106 9.06122 83.8129 9.29707 83.6762 9.56835C83.5395 9.83962 83.4676 10.1389 83.4661 10.4427C83.4593 10.7706 83.5255 11.0958 83.66 11.3949Z" fill="#666666"/>
</g>
</g>
</g>
</g>
<defs>
<clipPath id="clip0_247_1775">
<rect width="93.7691" height="39.0077" fill="white"/>
</clipPath>
</defs>
</svg>
