<svg width="13" height="17" viewBox="0 0 13 17" fill="none" xmlns="http://www.w3.org/2000/svg">
<g id="flagpack:gb-ukm">
<g id="Group 37434">
<g id="Group">
<path id="Vector" d="M4.09821 10.9957L4.55585 10.7109L4.80554 11.1796L5.34817 11.1553L5.32313 11.6825L5.8058 11.9245L5.51248 12.3688L5.8058 12.8131L5.32313 13.0552L5.34817 13.5824L4.80554 13.5581L4.55585 14.0267L4.09821 13.7419L3.64058 14.0267L3.39127 13.5581L2.84826 13.5824L2.8733 13.0552L2.39062 12.8131L2.68395 12.3688L2.39062 11.9245L2.8733 11.6825L2.84826 11.1553L3.39127 11.1796L3.64058 10.7109L4.09821 10.9957Z" fill="black" stroke="black" stroke-linecap="round" stroke-linejoin="round"/>
<path id="Vector_2" d="M4.09877 7.02837C4.51792 7.02837 4.8577 6.69848 4.8577 6.29153C4.8577 5.88458 4.51792 5.55469 4.09877 5.55469C3.67963 5.55469 3.33984 5.88458 3.33984 6.29153C3.33984 6.69848 3.67963 7.02837 4.09877 7.02837Z" fill="black" stroke="black" stroke-linecap="round" stroke-linejoin="round"/>
<path id="Vector_3" d="M5.61579 6.65625C5.44503 7.02467 4.96349 7.39309 4.09794 7.39309C3.23238 7.39309 2.75084 7.02467 2.58008 6.65625" stroke="black" stroke-width="1.5" stroke-linecap="round" stroke-linejoin="round"/>
</g>
<g id="Group 37433">
<g id="Group_2">
<path id="Vector_4" d="M11.6875 15.5H1.0625V1.5L11.6875 8.86842H5.23661L11.6875 15.5Z" fill="#D22F27"/>
<path id="Vector_5" d="M4.09821 10.9957L4.55585 10.7109L4.80554 11.1796L5.34817 11.1553L5.32313 11.6825L5.8058 11.9245L5.51248 12.3688L5.8058 12.8131L5.32313 13.0552L5.34817 13.5824L4.80554 13.5581L4.55585 14.0267L4.09821 13.7419L3.64058 14.0267L3.39127 13.5581L2.84826 13.5824L2.8733 13.0552L2.39062 12.8131L2.68395 12.3688L2.39062 11.9245L2.8733 11.6825L2.84826 11.1553L3.39127 11.1796L3.64058 10.7109L4.09821 10.9957Z" fill="white" stroke="white" stroke-linecap="round" stroke-linejoin="round"/>
<path id="Vector_6" d="M4.09877 7.02837C4.51792 7.02837 4.8577 6.69848 4.8577 6.29153C4.8577 5.88458 4.51792 5.55469 4.09877 5.55469C3.67963 5.55469 3.33984 5.88458 3.33984 6.29153C3.33984 6.69848 3.67963 7.02837 4.09877 7.02837Z" fill="white" stroke="white" stroke-linecap="round" stroke-linejoin="round"/>
<path id="Vector_7" d="M5.61579 6.65625C5.44503 7.02467 4.96349 7.39309 4.09794 7.39309C3.23238 7.39309 2.75084 7.02467 2.58008 6.65625" stroke="white" stroke-width="1.5" stroke-linecap="round" stroke-linejoin="round"/>
</g>
<path id="Vector_8" d="M11.6875 15.5H1.0625V1.5L11.6875 8.86842H5.23661L11.6875 15.5Z" stroke="black" stroke-linecap="round" stroke-linejoin="round"/>
<path id="Vector_9" d="M11.6875 15.5H1.0625V1.5L11.6875 8.86842H5.23661L11.6875 15.5Z" stroke="#1E50A0" stroke-linecap="round" stroke-linejoin="round"/>
</g>
</g>
</g>
</svg>
