<svg width="61" height="61" viewBox="0 0 61 61" fill="none" xmlns="http://www.w3.org/2000/svg">
<g id="noun-no-image-4209392 1">
<g id="Group">
<path id="Vector" d="M21.6926 20.6906C21.6926 17.8166 19.3526 15.4766 16.4786 15.4766C13.6046 15.4766 11.2646 17.8166 11.2646 20.6906C11.2646 23.5646 13.6046 25.9046 16.4786 25.9046C19.3526 25.9046 21.6926 23.5646 21.6926 20.6906ZM13.7846 20.6906C13.7846 19.2026 14.9966 17.9906 16.4846 17.9906C17.9726 17.9906 19.1846 19.2026 19.1846 20.6906C19.1846 22.1786 17.9726 23.3906 16.4846 23.3906C14.9966 23.3906 13.7846 22.1786 13.7846 20.6906Z" fill="#666666" fill-opacity="0.6"/>
<path id="Vector_2" d="M50.198 33.458V14.348C50.198 12.41 48.62 10.832 46.682 10.832H10.016C8.078 10.832 6.5 12.41 6.5 14.348V41.852C6.5 43.79 8.078 45.368 10.016 45.368H37.502C39.02 48.224 42.026 50.174 45.476 50.174C50.45 50.174 54.5 46.124 54.5 41.15C54.5 37.898 52.778 35.048 50.198 33.458ZM40.07 44.774C39.368 43.736 38.96 42.488 38.96 41.144C38.96 37.55 41.882 34.628 45.476 34.628C46.82 34.628 48.068 35.036 49.106 35.738L40.07 44.774ZM9.014 14.348C9.014 13.79 9.464 13.346 10.016 13.346H46.682C47.234 13.346 47.684 13.796 47.684 14.348V32.138L39.596 23.474C39.362 23.222 39.026 23.072 38.678 23.072C38.33 23.072 38 23.216 37.76 23.474L23.978 38.24L17.246 31.028C17.006 30.776 16.676 30.626 16.328 30.626C15.98 30.626 15.65 30.77 15.41 31.028L9.014 37.886V14.348ZM10.016 42.854C9.458 42.854 9.014 42.404 9.014 41.852V41.57L16.328 33.734L23.054 40.94C23.294 41.192 23.624 41.336 23.972 41.336C24.32 41.336 24.65 41.192 24.89 40.94L38.672 26.174L44.3 32.192V32.198C39.872 32.774 36.446 36.566 36.446 41.144C36.446 41.732 36.506 42.302 36.608 42.854H10.016ZM45.476 47.654C44.132 47.654 42.884 47.246 41.846 46.544L50.882 37.508C51.584 38.546 51.992 39.794 51.992 41.138C51.986 44.732 49.064 47.654 45.476 47.654Z" fill="#666666" fill-opacity="0.6"/>
</g>
</g>
</svg>
