<svg width="16" height="24" viewBox="0 0 24 24" fill="none" xmlns="http://www.w3.org/2000/svg">
<g id="noun-password-4149316">
<path id="Vector" d="M16.7998 12.2879V9.72791C16.7998 6.90423 14.647 4.60791 11.9998 4.60791C9.35257 4.60791 7.19977 6.90423 7.19977 9.72791V12.2879C6.40537 12.2879 5.75977 12.9765 5.75977 13.8239V19.4559C5.75977 20.3033 6.40537 20.9919 7.19977 20.9919H16.7998C17.5942 20.9919 18.2398 20.3033 18.2398 19.4559V13.8239C18.2398 12.9765 17.5942 12.2879 16.7998 12.2879ZM8.15977 9.72791C8.15977 7.46999 9.88297 5.63191 11.9998 5.63191C14.1166 5.63191 15.8398 7.46999 15.8398 9.72791V12.2879H8.15977V9.72791ZM17.2798 19.4559C17.2798 19.7375 17.0638 19.9679 16.7998 19.9679H7.19977C6.93577 19.9679 6.71977 19.7375 6.71977 19.4559V13.8239C6.71977 13.5423 6.93577 13.3119 7.19977 13.3119H16.7998C17.0638 13.3119 17.2798 13.5423 17.2798 13.8239V19.4559ZM11.9998 14.3359C11.2054 14.3359 10.5598 15.0245 10.5598 15.8719C10.5598 16.5401 10.9606 17.1058 11.5198 17.3183V18.4319C11.5198 18.7161 11.7358 18.9439 11.9998 18.9439C12.2638 18.9439 12.4798 18.7161 12.4798 18.4319V17.3183C13.039 17.1058 13.4398 16.5401 13.4398 15.8719C13.4398 15.0245 12.7942 14.3359 11.9998 14.3359ZM11.9998 16.3839C11.7358 16.3839 11.5198 16.1535 11.5198 15.8719C11.5198 15.5903 11.7358 15.3599 11.9998 15.3599C12.2638 15.3599 12.4798 15.5903 12.4798 15.8719C12.4798 16.1535 12.2638 16.3839 11.9998 16.3839Z" fill="#666666"/>
</g>
</svg>
