<svg width="20" height="20" viewBox="0 0 18 18" fill="none" xmlns="http://www.w3.org/2000/svg">
<g id="Vector">
<path d="M16.1811 7.32045L15.0581 7.12993C14.9411 6.75225 14.7907 6.38793 14.6069 6.04032L15.2686 5.11448C15.5494 4.72008 15.506 4.18195 15.1617 3.84103L14.1657 2.845C13.9785 2.65782 13.7311 2.55421 13.4671 2.55421C13.2599 2.55421 13.0627 2.61771 12.8955 2.73804L11.9664 3.39983C11.6054 3.20932 11.2277 3.05222 10.8366 2.93524L10.6495 1.82557C10.5693 1.34761 10.1581 1 9.67349 1H8.26635C7.7817 1 7.37059 1.34761 7.29037 1.82557L7.09651 2.96198C6.72216 3.07896 6.35784 3.23271 6.01024 3.41989L5.09108 2.75809C4.92396 2.63777 4.72342 2.57426 4.51619 2.57426C4.25214 2.57426 4.00146 2.67788 3.81763 2.86505L2.81826 3.86108C2.47733 4.20201 2.43054 4.74013 2.7113 5.13453L3.37978 6.07374C3.19595 6.42469 3.04888 6.78901 2.93524 7.1667L1.82557 7.35387C1.34761 7.43409 1 7.84521 1 8.32985V9.737C1 10.2216 1.34761 10.6328 1.82557 10.713L2.96198 10.9068C3.07896 11.2812 3.23271 11.6455 3.41989 11.9931L2.76144 12.9089C2.48068 13.3033 2.52413 13.8414 2.86839 14.1824L3.86442 15.1784C4.0516 15.3656 4.29893 15.4692 4.56298 15.4692C4.77021 15.4692 4.96741 15.4057 5.13453 15.2854L6.07374 14.6169C6.41132 14.794 6.76561 14.9377 7.12993 15.0514L7.31711 16.1744C7.39733 16.6524 7.80844 17 8.29309 17H9.70357C10.1882 17 10.5993 16.6524 10.6795 16.1744L10.8701 15.0514C11.2478 14.9344 11.6121 14.784 11.9597 14.6002L12.8855 15.262C13.0526 15.3823 13.2532 15.4458 13.4604 15.4458C13.7245 15.4458 13.9718 15.3422 14.159 15.155L15.155 14.159C15.4959 13.818 15.5427 13.2799 15.262 12.8855L14.6002 11.9563C14.784 11.6054 14.9377 11.2411 15.0514 10.8667L16.1744 10.6795C16.6524 10.5993 17 10.1882 17 9.70357V8.29643C17.0067 7.81178 16.6591 7.40067 16.1811 7.32045ZM16.1042 9.70357C16.1042 9.74702 16.0742 9.78379 16.0307 9.79047L14.6269 10.0244C14.4498 10.0545 14.3094 10.1849 14.2659 10.3553C14.1389 10.8467 13.9451 11.3179 13.6844 11.7558C13.5941 11.9095 13.6008 12.1001 13.7044 12.2471L14.53 13.4103C14.5534 13.4437 14.55 13.4938 14.5199 13.5239L13.5239 14.5199C13.5005 14.5433 13.4771 14.5467 13.4604 14.5467C13.4404 14.5467 13.4236 14.54 13.4103 14.53L12.2505 13.7044C12.1067 13.6008 11.9129 13.5941 11.7591 13.6844C11.3213 13.9451 10.85 14.1389 10.3587 14.2659C10.1849 14.3094 10.0545 14.4531 10.0278 14.6269L9.79047 16.0307C9.78379 16.0742 9.74702 16.1042 9.70357 16.1042H8.29643C8.25298 16.1042 8.21621 16.0742 8.20953 16.0307L7.97556 14.6269C7.94548 14.4498 7.81512 14.3094 7.64466 14.2659C7.1667 14.1423 6.70545 13.9517 6.27428 13.7044C6.20409 13.6643 6.12388 13.6442 6.047 13.6442C5.95676 13.6442 5.86317 13.671 5.7863 13.7278L4.61646 14.5601C4.59975 14.5701 4.58304 14.5768 4.56633 14.5768C4.55296 14.5768 4.52622 14.5734 4.50282 14.55L3.50679 13.554C3.47671 13.5239 3.47337 13.4771 3.49676 13.4404L4.31899 12.2872C4.4226 12.1402 4.42929 11.9463 4.33904 11.7926C4.07834 11.3581 3.87779 10.8868 3.75078 10.3954C3.70399 10.225 3.56361 10.0946 3.38981 10.0645L1.97598 9.8239C1.93253 9.81721 1.90244 9.78045 1.90244 9.737V8.32985C1.90244 8.2864 1.93253 8.24963 1.97598 8.24295L3.36975 8.00898C3.5469 7.9789 3.69062 7.84855 3.73407 7.67474C3.85774 7.18341 4.04826 6.70879 4.30562 6.27094C4.39586 6.11719 4.38584 5.92668 4.28222 5.78295L3.44997 4.61312C3.42657 4.57969 3.42991 4.52956 3.46 4.49948L4.45603 3.50345C4.47942 3.48005 4.50282 3.47671 4.51953 3.47671C4.53959 3.47671 4.5563 3.48339 4.56967 3.49342L5.72279 4.31565C5.86986 4.41926 6.06371 4.42595 6.21746 4.3357C6.65197 4.07499 7.12325 3.87445 7.61458 3.74744C7.78504 3.70065 7.9154 3.56027 7.94548 3.38646L8.18613 1.97263C8.19281 1.92918 8.22958 1.8991 8.27303 1.8991H9.68018C9.72363 1.8991 9.76039 1.92918 9.76708 1.97263L10.001 3.36641C10.0311 3.54356 10.1615 3.68728 10.3353 3.73073C10.84 3.85774 11.3213 4.05494 11.7692 4.31899C11.9229 4.40923 12.1134 4.40255 12.2605 4.29893L13.4136 3.47002C13.4303 3.46 13.447 3.45331 13.4638 3.45331C13.4771 3.45331 13.5039 3.45665 13.5273 3.48005L14.5233 4.47608C14.5534 4.50616 14.5567 4.55296 14.5333 4.58972L13.7078 5.74953C13.6041 5.89325 13.5975 6.08711 13.6877 6.24086C13.9484 6.67871 14.1423 7.14999 14.2693 7.64132C14.3127 7.81512 14.4564 7.94548 14.6302 7.97222L16.034 8.20953C16.0775 8.21621 16.1076 8.25298 16.1076 8.29643V9.70357H16.1042Z" fill="#666666"/>
<path d="M9.00216 5.54427C7.097 5.54427 5.54948 7.0918 5.54948 8.99696C5.54948 10.9021 7.097 12.4496 9.00216 12.4496C10.9073 12.4496 12.4548 10.9021 12.4548 8.99696C12.4548 7.0918 10.9073 5.54427 9.00216 5.54427ZM9.00216 11.5472C7.59502 11.5472 6.45192 10.4041 6.45192 8.99696C6.45192 7.58981 7.59502 6.44672 9.00216 6.44672C10.4093 6.44672 11.5524 7.58981 11.5524 8.99696C11.5524 10.4041 10.4093 11.5472 9.00216 11.5472Z" fill="#666666"/>
<path d="M16.1811 7.32045L15.0581 7.12993C14.9411 6.75225 14.7907 6.38793 14.6069 6.04032L15.2686 5.11448C15.5494 4.72008 15.506 4.18195 15.1617 3.84103L14.1657 2.845C13.9785 2.65782 13.7311 2.55421 13.4671 2.55421C13.2599 2.55421 13.0627 2.61771 12.8955 2.73804L11.9664 3.39983C11.6054 3.20932 11.2277 3.05222 10.8366 2.93524L10.6495 1.82557C10.5693 1.34761 10.1581 1 9.67349 1H8.26635C7.7817 1 7.37059 1.34761 7.29037 1.82557L7.09651 2.96198C6.72216 3.07896 6.35784 3.23271 6.01024 3.41989L5.09108 2.75809C4.92396 2.63777 4.72342 2.57426 4.51619 2.57426C4.25214 2.57426 4.00146 2.67788 3.81763 2.86505L2.81826 3.86108C2.47733 4.20201 2.43054 4.74013 2.7113 5.13453L3.37978 6.07374C3.19595 6.42469 3.04888 6.78901 2.93524 7.1667L1.82557 7.35387C1.34761 7.43409 1 7.84521 1 8.32985V9.737C1 10.2216 1.34761 10.6328 1.82557 10.713L2.96198 10.9068C3.07896 11.2812 3.23271 11.6455 3.41989 11.9931L2.76144 12.9089C2.48068 13.3033 2.52413 13.8414 2.86839 14.1824L3.86442 15.1784C4.0516 15.3656 4.29893 15.4692 4.56298 15.4692C4.77021 15.4692 4.96741 15.4057 5.13453 15.2854L6.07374 14.6169C6.41132 14.794 6.76561 14.9377 7.12993 15.0514L7.31711 16.1744C7.39733 16.6524 7.80844 17 8.29309 17H9.70357C10.1882 17 10.5993 16.6524 10.6795 16.1744L10.8701 15.0514C11.2478 14.9344 11.6121 14.784 11.9597 14.6002L12.8855 15.262C13.0526 15.3823 13.2532 15.4458 13.4604 15.4458C13.7245 15.4458 13.9718 15.3422 14.159 15.155L15.155 14.159C15.4959 13.818 15.5427 13.2799 15.262 12.8855L14.6002 11.9563C14.784 11.6054 14.9377 11.2411 15.0514 10.8667L16.1744 10.6795C16.6524 10.5993 17 10.1882 17 9.70357V8.29643C17.0067 7.81178 16.6591 7.40067 16.1811 7.32045ZM16.1042 9.70357C16.1042 9.74702 16.0742 9.78379 16.0307 9.79047L14.6269 10.0244C14.4498 10.0545 14.3094 10.1849 14.2659 10.3553C14.1389 10.8467 13.9451 11.3179 13.6844 11.7558C13.5941 11.9095 13.6008 12.1001 13.7044 12.2471L14.53 13.4103C14.5534 13.4437 14.55 13.4938 14.5199 13.5239L13.5239 14.5199C13.5005 14.5433 13.4771 14.5467 13.4604 14.5467C13.4404 14.5467 13.4236 14.54 13.4103 14.53L12.2505 13.7044C12.1067 13.6008 11.9129 13.5941 11.7591 13.6844C11.3213 13.9451 10.85 14.1389 10.3587 14.2659C10.1849 14.3094 10.0545 14.4531 10.0278 14.6269L9.79047 16.0307C9.78379 16.0742 9.74702 16.1042 9.70357 16.1042H8.29643C8.25298 16.1042 8.21621 16.0742 8.20953 16.0307L7.97556 14.6269C7.94548 14.4498 7.81512 14.3094 7.64466 14.2659C7.1667 14.1423 6.70545 13.9517 6.27428 13.7044C6.20409 13.6643 6.12388 13.6442 6.047 13.6442C5.95676 13.6442 5.86317 13.671 5.7863 13.7278L4.61646 14.5601C4.59975 14.5701 4.58304 14.5768 4.56633 14.5768C4.55296 14.5768 4.52622 14.5734 4.50282 14.55L3.50679 13.554C3.47671 13.5239 3.47337 13.4771 3.49676 13.4404L4.31899 12.2872C4.4226 12.1402 4.42929 11.9463 4.33904 11.7926C4.07834 11.3581 3.87779 10.8868 3.75078 10.3954C3.70399 10.225 3.56361 10.0946 3.38981 10.0645L1.97598 9.8239C1.93253 9.81721 1.90244 9.78045 1.90244 9.737V8.32985C1.90244 8.2864 1.93253 8.24963 1.97598 8.24295L3.36975 8.00898C3.5469 7.9789 3.69062 7.84855 3.73407 7.67474C3.85774 7.18341 4.04826 6.70879 4.30562 6.27094C4.39586 6.11719 4.38584 5.92668 4.28222 5.78295L3.44997 4.61312C3.42657 4.57969 3.42991 4.52956 3.46 4.49948L4.45603 3.50345C4.47942 3.48005 4.50282 3.47671 4.51953 3.47671C4.53959 3.47671 4.5563 3.48339 4.56967 3.49342L5.72279 4.31565C5.86986 4.41926 6.06371 4.42595 6.21746 4.3357C6.65197 4.07499 7.12325 3.87445 7.61458 3.74744C7.78504 3.70065 7.9154 3.56027 7.94548 3.38646L8.18613 1.97263C8.19281 1.92918 8.22958 1.8991 8.27303 1.8991H9.68018C9.72363 1.8991 9.76039 1.92918 9.76708 1.97263L10.001 3.36641C10.0311 3.54356 10.1615 3.68728 10.3353 3.73073C10.84 3.85774 11.3213 4.05494 11.7692 4.31899C11.9229 4.40923 12.1134 4.40255 12.2605 4.29893L13.4136 3.47002C13.4303 3.46 13.447 3.45331 13.4638 3.45331C13.4771 3.45331 13.5039 3.45665 13.5273 3.48005L14.5233 4.47608C14.5534 4.50616 14.5567 4.55296 14.5333 4.58972L13.7078 5.74953C13.6041 5.89325 13.5975 6.08711 13.6877 6.24086C13.9484 6.67871 14.1423 7.14999 14.2693 7.64132C14.3127 7.81512 14.4564 7.94548 14.6302 7.97222L16.034 8.20953C16.0775 8.21621 16.1076 8.25298 16.1076 8.29643V9.70357H16.1042Z" stroke="#666666" stroke-width="0.1"/>
<path d="M9.00216 5.54427C7.097 5.54427 5.54948 7.0918 5.54948 8.99696C5.54948 10.9021 7.097 12.4496 9.00216 12.4496C10.9073 12.4496 12.4548 10.9021 12.4548 8.99696C12.4548 7.0918 10.9073 5.54427 9.00216 5.54427ZM9.00216 11.5472C7.59502 11.5472 6.45192 10.4041 6.45192 8.99696C6.45192 7.58981 7.59502 6.44672 9.00216 6.44672C10.4093 6.44672 11.5524 7.58981 11.5524 8.99696C11.5524 10.4041 10.4093 11.5472 9.00216 11.5472Z" stroke="#666666" stroke-width="0.1"/>
</g>
</svg>
