<svg width="14" height="18" viewBox="0 0 14 18" fill="none" xmlns="http://www.w3.org/2000/svg">
<g id="Group">
<path id="Vector" fill-rule="evenodd" clip-rule="evenodd" d="M7.00029 16.999L7.62968 16.2898C8.34385 15.4719 8.9862 14.6959 9.55774 13.9578L10.0295 13.3354C11.9995 10.6812 12.985 8.57459 12.985 7.01758C12.985 3.6941 10.3058 1 7.00029 1C3.69476 1 1.01562 3.6941 1.01562 7.01758C1.01562 8.57459 2.0011 10.6812 3.97105 13.3354L4.44284 13.9578C5.25819 15.0025 6.11124 16.0162 7.00029 16.999Z" stroke="#666666" stroke-linecap="round" stroke-linejoin="round"/>
<path id="Vector_2" d="M7.00045 9.47828C8.37763 9.47828 9.49406 8.36185 9.49406 6.98467C9.49406 5.60749 8.37763 4.49106 7.00045 4.49106C5.62326 4.49106 4.50684 5.60749 4.50684 6.98467C4.50684 8.36185 5.62326 9.47828 7.00045 9.47828Z" stroke="#666666" stroke-linecap="round" stroke-linejoin="round"/>
</g>
</svg>
