<svg width="24" height="24" viewBox="0 0 24 24" fill="none" xmlns="http://www.w3.org/2000/svg">
<g id="material-symbols-light:language">
<path id="Vector" d="M12 20C10.899 20 9.86193 19.7896 8.88889 19.3689C7.91585 18.9481 7.06844 18.3763 6.34667 17.6533C5.6237 16.9321 5.05185 16.0847 4.63111 15.1111C4.21037 14.1381 4 13.101 4 12C4 10.896 4.21037 9.85807 4.63111 8.88622C5.05244 7.91437 5.6243 7.06756 6.34667 6.34578C7.06785 5.624 7.91526 5.05274 8.88889 4.632C9.86193 4.21067 10.899 4 12 4C13.104 4 14.1419 4.21037 15.1138 4.63111C16.0856 5.05244 16.9324 5.6243 17.6542 6.34667C18.376 7.06844 18.9473 7.91496 19.368 8.88622C19.7893 9.85807 20 10.896 20 12C20 13.101 19.7896 14.1381 19.3689 15.1111C18.9481 16.0841 18.3763 16.9316 17.6533 17.6533C16.9316 18.3757 16.085 18.9476 15.1138 19.3689C14.1419 19.7896 13.104 20 12 20ZM12 19.1182C12.5215 18.448 12.9517 17.7899 13.2907 17.144C13.629 16.4981 13.9043 15.7751 14.1164 14.9751H9.88356C10.1182 15.8201 10.3991 16.5656 10.7262 17.2116C11.0533 17.8575 11.4779 18.493 12 19.1182ZM10.8684 18.9849C10.4536 18.496 10.075 17.8916 9.73244 17.1716C9.38993 16.4521 9.13511 15.7197 8.968 14.9742H5.55822C6.06785 16.08 6.78993 16.9867 7.72444 17.6942C8.65956 18.4018 9.70726 18.832 10.8676 18.9849H10.8684ZM13.1316 18.9849C14.2919 18.832 15.3396 18.4018 16.2747 17.6942C17.2098 16.9867 17.9319 16.08 18.4409 14.9742H15.0329C14.8077 15.731 14.5241 16.4693 14.1822 17.1893C13.8397 17.9087 13.4895 18.5073 13.1316 18.9849ZM5.19644 14.0853H8.78311C8.71556 13.7209 8.66815 13.3656 8.64089 13.0196C8.61244 12.6735 8.59822 12.3336 8.59822 12C8.59822 11.6664 8.61215 11.3265 8.64 10.9804C8.66785 10.6344 8.71526 10.2788 8.78222 9.91378H5.19733C5.10074 10.2219 5.02519 10.5576 4.97067 10.9209C4.91615 11.2841 4.88889 11.6439 4.88889 12C4.88889 12.3567 4.91585 12.7164 4.96978 13.0791C5.0243 13.4424 5.09985 13.7778 5.19644 14.0853ZM9.672 14.0853H14.328C14.3956 13.7209 14.443 13.3713 14.4702 13.0364C14.4987 12.7022 14.5129 12.3567 14.5129 12C14.5129 11.6433 14.499 11.2978 14.4711 10.9636C14.4433 10.6287 14.3959 10.2791 14.3289 9.91467H9.67111C9.60415 10.2791 9.55674 10.6287 9.52889 10.9636C9.50104 11.2978 9.48711 11.6433 9.48711 12C9.48711 12.3567 9.50104 12.7022 9.52889 13.0364C9.55674 13.3713 9.60504 13.7209 9.672 14.0853ZM15.2169 14.0853H18.8036C18.9001 13.7772 18.9757 13.4418 19.0302 13.0791C19.0847 12.7164 19.1117 12.3567 19.1111 12C19.1111 11.6433 19.0841 11.2836 19.0302 10.9209C18.9757 10.5576 18.9001 10.2222 18.8036 9.91467H15.2169C15.2844 10.2791 15.3319 10.6344 15.3591 10.9804C15.3876 11.3265 15.4018 11.6664 15.4018 12C15.4018 12.3336 15.3879 12.6735 15.36 13.0196C15.3321 13.3656 15.2847 13.7212 15.2178 14.0862L15.2169 14.0853ZM15.0329 9.02578H18.4409C17.92 7.89748 17.2065 6.99081 16.3004 6.30578C15.3938 5.62074 14.3375 5.18519 13.1316 4.99911C13.5464 5.5443 13.9194 6.1683 14.2507 6.87111C14.5813 7.57333 14.8421 8.29156 15.0329 9.02578ZM9.88356 9.02578H14.1164C13.8818 8.19141 13.5923 7.43704 13.248 6.76267C12.9043 6.0877 12.4883 5.46074 12 4.88178C11.5123 5.46074 11.0963 6.0877 10.752 6.76267C10.4083 7.43704 10.1188 8.19141 9.88356 9.02578ZM5.55911 9.02578H8.96711C9.15793 8.29156 9.41867 7.57333 9.74933 6.87111C10.0806 6.1683 10.4536 5.544 10.8684 4.99822C9.65126 5.18489 8.5923 5.62341 7.69156 6.31378C6.79081 7.00474 6.0797 7.90844 5.55822 9.02489L5.55911 9.02578Z" fill="black"/>
</g>
</svg>
