<svg width="21" height="5" viewBox="0 0 21 5" fill="none" xmlns="http://www.w3.org/2000/svg">
<g id="Group 12191">
<path id="Vector" d="M19.9821 0.732232C20.9584 1.70854 20.9584 3.29146 19.9821 4.26777C19.0057 5.24408 17.4228 5.24408 16.4465 4.26777C15.4702 3.29146 15.4702 1.70854 16.4465 0.732232C17.4228 -0.244077 19.0057 -0.244077 19.9821 0.732232Z" fill="#666666"/>
<path id="Vector_2" d="M12.482 0.732232C13.4583 1.70854 13.4583 3.29146 12.482 4.26777C11.5057 5.24408 9.92283 5.24408 8.94652 4.26777C7.97022 3.29146 7.97022 1.70854 8.94652 0.732232C9.92283 -0.244077 11.5057 -0.244077 12.482 0.732232Z" fill="#666666"/>
<path id="Vector_3" d="M4.98205 0.732232C5.95836 1.70854 5.95836 3.29146 4.98205 4.26777C4.00575 5.24408 2.42283 5.24408 1.44652 4.26777C0.470218 3.29146 0.470218 1.70854 1.44652 0.732232C2.42283 -0.244077 4.00575 -0.244077 4.98205 0.732232Z" fill="#666666"/>
</g>
</svg>
