<?xml version="1.0" encoding="UTF-8"?>
<svg id="Layer_1" data-name="Layer 1" xmlns="http://www.w3.org/2000/svg" viewBox="0 0 32 32">
  <defs>
    <style>
      .cls-1 {
        fill: #1dd05d;
      }

      .cls-2 {
        fill: #498af8;
      }

      .cls-3 {
        fill: #db504a;
      }
    </style>
  </defs>
  <g id="large">
    <g>
      <g>
        <path class="cls-3" d="m12.59,23.77h-2.34c-1.29,0-2.35-1.02-2.35-2.28v-2.28h.2v2.28c0,1.15.96,2.08,2.15,2.08h2.34v.2Z"/>
        <path class="cls-3" d="m24.09,12.6h-.2v-2.28c0-1.15-.96-2.08-2.15-2.08h-2.34v-.2h2.34c1.29,0,2.35,1.02,2.35,2.28v2.28Z"/>
        <path class="cls-3" d="m21.75,23.77h-2.34v-.2h2.34c1.18,0,2.15-.93,2.15-2.08v-2.28h.2v2.28c0,1.26-1.05,2.28-2.35,2.28Z"/>
        <path class="cls-3" d="m8.1,12.6h-.2v-2.28c0-1.26,1.05-2.28,2.35-2.28h2.34v.2h-2.34c-1.18,0-2.15.93-2.15,2.08v2.28Z"/>
      </g>
      <g>
        <path class="cls-3" d="m12.85,18.34s-.02,0-.03,0c-.04-.01-.05-.06-.04-.09.14-.35.24-.71.3-1.08.06-.38.07-.76.04-1.14,0-.04.03-.07.06-.08.04,0,.07.03.08.06.03.39.02.79-.04,1.18-.06.38-.16.75-.3,1.11-.01.03-.04.04-.06.04Z"/>
        <path class="cls-3" d="m20.29,17.72s-.03,0-.04-.01c-.3-.22-.55-.49-.75-.8-.21-.32-.36-.68-.44-1.06,0-.04.02-.08.05-.08.04,0,.08.02.08.05.08.36.22.7.42,1.01.19.3.44.55.72.77.03.02.04.07.01.1-.01.02-.03.03-.06.03Z"/>
        <path class="cls-3" d="m20.04,18.98s-.03,0-.04-.02c-.23-.19-.44-.39-.65-.61-.21-.23-.41-.48-.59-.73-.02-.03-.01-.08.02-.1.03-.02.08-.01.1.02.18.25.37.49.58.72.2.21.41.41.63.6.03.02.03.07,0,.1-.01.02-.03.03-.05.03Z"/>
        <path class="cls-3" d="m12.75,20.72s-.03,0-.04-.01c-.03-.02-.04-.07-.01-.1.21-.29.41-.59.58-.9.18-.32.35-.66.5-.99.02-.04.06-.05.09-.04.04.02.05.06.04.09-.15.34-.32.68-.5,1.01-.18.31-.38.62-.59.91-.01.02-.03.03-.06.03Z"/>
        <path class="cls-3" d="m21.36,16.76s-.04-.01-.06-.03c-.12-.17-.24-.36-.34-.55-.1-.19-.2-.38-.28-.58-.01-.04,0-.08.04-.09.04-.01.08,0,.09.04.08.19.17.39.27.57.1.18.21.36.33.53.02.03.02.08-.02.1-.01,0-.03.01-.04.01Z"/>
        <path class="cls-3" d="m12.43,22.14s-.03,0-.05-.02c-.03-.03-.03-.07,0-.1.52-.58.97-1.23,1.33-1.92.34-.64.6-1.32.78-2.01,0-.04.05-.06.09-.05.04,0,.06.05.05.09-.19.71-.45,1.4-.8,2.04-.37.7-.82,1.35-1.35,1.94-.01.02-.03.02-.05.02Z"/>
        <path class="cls-3" d="m13.18,22.1s-.03,0-.04-.02c-.03-.02-.03-.07,0-.1.64-.77,1.15-1.64,1.5-2.57.31-.81.5-1.66.57-2.52,0-.04.04-.07.08-.06.04,0,.07.04.06.08-.07.88-.27,1.74-.58,2.56-.36.95-.88,1.83-1.53,2.61-.01.02-.03.03-.05.03Z"/>
        <path class="cls-3" d="m13.85,22.16s-.03,0-.04-.01c-.03-.02-.04-.07-.02-.1.44-.63.81-1.31,1.1-2.02.62-1.51.89-3.13.8-4.82,0-.04.03-.07.07-.07.04,0,.07.03.07.07.09,1.71-.18,3.35-.81,4.88-.29.71-.67,1.4-1.11,2.04-.01.02-.04.03-.06.03Z"/>
        <path class="cls-3" d="m14.54,22.16s-.03,0-.04-.01c-.03-.02-.04-.06-.02-.1.43-.7.8-1.44,1.08-2.2.32-.87.55-1.79.66-2.72,0-.04.04-.07.08-.06.04,0,.07.04.06.08-.12.94-.34,1.86-.67,2.75-.29.78-.66,1.53-1.1,2.23-.01.02-.04.03-.06.03Z"/>
        <path class="cls-3" d="m15.18,22.18s-.02,0-.04,0c-.03-.02-.04-.06-.03-.1.4-.69.73-1.42.98-2.17.21-.62.37-1.26.47-1.91,0-.03.03-.05.06-.06.03,0,.06.01.07.04.2.43.45.84.72,1.22.35.49.76.94,1.22,1.34.03.03.03.07,0,.1-.03.03-.07.03-.1,0-.46-.41-.88-.87-1.24-1.36-.24-.33-.45-.68-.64-1.04-.11.58-.25,1.16-.44,1.72-.26.76-.59,1.5-1,2.19-.01.02-.04.03-.06.03Z"/>
        <path class="cls-3" d="m15.77,22.16s-.02,0-.03,0c-.03-.02-.05-.06-.03-.09.29-.55.54-1.12.75-1.71.12-.33.22-.67.31-1.01,0-.03.03-.05.06-.05.03,0,.06.01.07.03.13.22.27.44.43.64.15.19.32.38.49.54.03.03.03.07,0,.1-.03.03-.07.03-.1,0-.18-.17-.35-.36-.51-.56-.13-.16-.25-.34-.36-.52-.08.29-.17.58-.27.86-.21.59-.46,1.17-.76,1.73-.01.02-.04.04-.06.04Z"/>
        <path class="cls-3" d="m16.38,22.16s-.02,0-.03,0c-.03-.02-.05-.06-.03-.1.18-.32.33-.66.46-1.01.08-.21.15-.44.21-.66,0-.03.04-.05.07-.05,0,0,0,0,0,0,.03,0,.06.02.07.05.03.08.06.16.11.23.06.08.13.14.21.2.03.02.04.06.02.1-.02.03-.06.04-.1.02-.1-.06-.18-.14-.24-.23-.02-.03-.04-.05-.05-.08-.05.16-.1.32-.16.48-.13.35-.29.7-.47,1.03-.01.02-.04.04-.06.04Z"/>
        <path class="cls-3" d="m16.89,22.2s-.02,0-.03,0c-.04-.02-.05-.06-.04-.09l.21-.48s.06-.05.09-.04c.04.02.05.06.04.09l-.21.48s-.04.04-.06.04Z"/>
        <path class="cls-3" d="m19.49,20.57s-.03,0-.04-.01c-.84-.55-1.57-1.29-2.11-2.14-.51-.8-.85-1.69-1.01-2.63,0-.04.02-.07.06-.08.04,0,.07.02.08.06.16.92.49,1.79.99,2.58.53.83,1.25,1.56,2.07,2.1.03.02.04.06.02.1-.01.02-.04.03-.06.03Z"/>
        <path class="cls-3" d="m19.88,20.25s-.03,0-.04-.01c-.61-.43-1.15-.95-1.62-1.53-.41-.51-.75-1.08-1.02-1.68-.02-.04,0-.08.04-.09.04-.02.08,0,.09.04.27.59.6,1.15,1.01,1.65.46.57.99,1.08,1.59,1.5.03.02.04.07.02.1-.01.02-.04.03-.06.03Z"/>
        <g>
          <path class="cls-3" d="m16.33,15.52s-.06-.03-.07-.06c-.03-.2-.04-.4-.05-.6,0,0-.01-.41-.11-.62-.02-.04-.05-.07-.05-.07-.06-.06-.14-.06-.14-.06,0,0-.08,0-.14.06-.06.05-.08.2-.06.4,0,.04-.03.07-.06.08-.04,0-.07-.03-.08-.06-.02-.26.01-.43.1-.52.1-.09.22-.09.24-.09.02,0,.14,0,.24.09.01.01.05.05.08.11.11.24.13.66.13.68,0,.19.02.39.04.58,0,.04-.02.07-.06.08,0,0,0,0,0,0Z"/>
          <path class="cls-3" d="m17.12,16.66s-.05-.01-.06-.04c-.19-.39-.31-.78-.35-1.16,0-.1-.01-.17-.02-.26,0-.12,0-.25-.03-.47-.08-.68-.18-.8-.23-.85-.08-.09-.25-.24-.5-.25-.02,0-.24,0-.41.13-.22.18-.21.54-.19,1.09v.13c.02.52.02,1.05.01,1.6,0,.04-.04.07-.07.07-.04,0-.07-.03-.07-.07.01-.54,0-1.08,0-1.59v-.13c-.02-.59-.04-.97.24-1.2.2-.16.45-.16.5-.16.3,0,.51.19.6.3.09.1.19.26.27.93.03.23.03.36.04.48,0,.08,0,.15.01.25.04.37.15.75.33,1.12.02.03,0,.08-.03.09-.01,0-.02,0-.03,0Z"/>
          <path class="cls-3" d="m19.98,19.67s-.03,0-.04-.01c-.83-.62-1.48-1.35-1.94-2.19-.23-.42-.54-.98-.7-1.79-.08-.41-.1-.73-.12-1.03-.03-.49-.05-.81-.34-1.12-.09-.1-.43-.42-.9-.42-.53,0-.87.42-.91.47-.28.35-.26.74-.22,1.39,0,.16.02.33.02.52.02.73-.02,1.48-.13,2.23,0,.04-.04.06-.08.06-.04,0-.06-.04-.06-.08.11-.74.15-1.48.12-2.21,0-.19-.02-.36-.02-.51-.04-.66-.06-1.09.25-1.49.04-.05.43-.51,1.02-.52.52,0,.88.32,1.01.46.32.35.35.71.38,1.21.02.29.04.61.12,1.01.16.79.47,1.34.69,1.74.45.83,1.09,1.55,1.9,2.15.03.02.04.07.01.1-.01.02-.03.03-.06.03Z"/>
          <path class="cls-3" d="m13.91,18.5s-.01,0-.02,0c-.04,0-.06-.05-.05-.08.26-1.06.35-2.1.29-3.09,0-.12-.02-.24-.03-.36-.05-.57-.09-1.06.2-1.56.02-.04.54-.89,1.53-.94.91-.04,1.53.64,1.74,1,.14.26.23.57.24.64h0c.04.16.05.32.08.62.02.2.03.31.03.39,0,.06,0,.11.02.18.04.34.12.57.25.92.14.37.31.73.51,1.07.02.03,0,.08-.02.1-.03.02-.08,0-.1-.02-.21-.35-.38-.72-.52-1.09-.13-.35-.22-.6-.26-.95,0-.07-.01-.12-.02-.18,0-.08-.01-.19-.03-.38-.03-.32-.05-.46-.08-.61,0,0-.08-.34-.23-.61-.19-.34-.76-.97-1.61-.93-.91.04-1.4.84-1.42.87-.27.46-.23.9-.19,1.47,0,.11.02.23.03.36.07,1.01-.03,2.06-.29,3.14,0,.03-.04.05-.07.05Z"/>
          <path class="cls-3" d="m13.21,18.97s-.02,0-.02,0c-.04-.01-.06-.05-.04-.09.27-.79.43-1.55.46-2.24.02-.41,0-.85,0-.86,0-.04.03-.07.07-.07.04,0,.07.03.07.07,0,0,0,.45,0,.86-.03.7-.18,1.47-.46,2.28-.01.03-.04.05-.07.05Z"/>
          <path class="cls-3" d="m13.64,13.93s0,0,0,0c-.04,0-.07-.04-.06-.08.07-.86,1.04-1.88,2.24-1.96,1.2-.08,2.17.78,2.38,1.41.01.04,0,.08-.04.09-.04.01-.08,0-.09-.04-.2-.59-1.11-1.39-2.24-1.31-1.22.08-2.05,1.12-2.11,1.83,0,.04-.03.06-.07.06Z"/>
          <path class="cls-3" d="m20.17,18.42s-.03,0-.05-.02c-.46-.43-.84-.91-1.13-1.45-.15-.27-.33-.61-.45-1.06-.06-.25-.15-.73-.2-1.07-.02-.1-.03-.19-.04-.28-.03-.2-.05-.4-.12-.69,0-.04.02-.08.05-.08.04,0,.08.02.08.05.07.29.09.5.12.7.01.09.02.18.04.28.05.34.14.81.2,1.06.11.43.29.76.43,1.02.29.52.66,1,1.11,1.42.03.03.03.07,0,.1-.01.01-.03.02-.05.02Z"/>
          <path class="cls-3" d="m13.18,15.71s-.06-.02-.07-.05c-.21-.72-.22-1.46-.04-2.15.05-.18.13-.49.33-.83.47-.77,1.35-1.32,2.25-1.4,1.69-.14,3.2,1.4,3.33,2.77.02.18.02.36,0,.53,0,.04-.04.07-.08.06-.04,0-.07-.04-.06-.08.01-.17.01-.34,0-.51-.12-1.31-1.56-2.78-3.18-2.64-.85.07-1.69.59-2.14,1.33-.19.32-.27.61-.32.79-.18.66-.16,1.38.04,2.07.01.04-.01.08-.05.09,0,0-.01,0-.02,0Z"/>
          <path class="cls-3" d="m12.52,17.72s-.01,0-.02,0c-.04-.01-.06-.05-.05-.09.22-.77.27-1.43.15-1.98-.04-.2-.12-.6-.16-1.06-.02-.18-.03-.42,0-.73,0-.04.04-.07.08-.06.04,0,.07.04.06.08-.02.3,0,.53,0,.7.04.45.12.84.16,1.03.13.57.07,1.26-.15,2.05,0,.03-.04.05-.07.05Z"/>
          <path class="cls-3" d="m12.55,13.57s-.01,0-.02,0c-.04,0-.06-.05-.05-.08.12-.47.45-1.36,1.32-2.02.56-.42,1.16-.65,1.8-.69.05,0,1.23-.07,2.34.75.03.02.04.07.02.1-.02.03-.07.04-.1.02-1.07-.78-2.24-.72-2.25-.72-.61.04-1.2.26-1.73.66-.84.63-1.16,1.49-1.27,1.94,0,.03-.04.05-.07.05Z"/>
          <path class="cls-3" d="m20.62,17.39s-.02,0-.04,0c-.16-.07-.71-.82-.97-1.75-.13-.45-.15-.77-.17-1.09-.02-.34-.04-.65-.19-1.09-.17-.48-.44-.92-.8-1.32-.03-.03-.02-.07,0-.1.03-.03.07-.02.1,0,.38.41.66.87.83,1.37.16.45.18.78.2,1.13.02.31.04.63.16,1.06.27.93.78,1.58.89,1.65.02,0,.05.02.06.04.02.03,0,.08-.03.09,0,0-.02,0-.04,0Z"/>
          <path class="cls-3" d="m12.12,17.07s0,0,0,0c-.04,0-.06-.04-.06-.08.05-.33.05-.67.02-1-.02-.19-.04-.31-.08-.47-.02-.08-.03-.17-.05-.28-.08-.45-.13-.95-.13-1.27,0-.84.38-1.49.56-1.8.75-1.29,2-1.82,2.61-1.93.04,0,.07.02.08.06,0,.04-.02.07-.06.08-.59.1-1.79.61-2.52,1.86-.18.3-.54.93-.54,1.73,0,.3.05.8.13,1.24.02.11.04.19.05.28.03.15.06.29.08.48.03.34.03.69-.02,1.04,0,.03-.03.06-.07.06Z"/>
          <path class="cls-3" d="m21.03,17.07s-.04,0-.05-.03c-.49-.59-.81-1.23-.95-1.91-.09-.43-.09-.74-.09-.98,0-.07,0-.13,0-.19-.05-1.65-1.72-3.4-3.51-3.68-.04,0-.06-.04-.06-.08s.04-.06.08-.06c1.85.29,3.58,2.11,3.62,3.82,0,.06,0,.12,0,.19,0,.24,0,.53.08.95.14.66.45,1.28.93,1.85.02.03.02.07,0,.1-.01.01-.03.02-.04.02Z"/>
          <path class="cls-3" d="m11.54,16.06s-.05-.02-.07-.05c-.15-.4-.25-.82-.28-1.24-.09-1.08.23-1.9.33-2.17.2-.52.45-.91.63-1.14.02-.03.07-.04.1-.01.03.02.04.07.01.1-.17.23-.41.61-.61,1.11-.1.26-.41,1.06-.32,2.1.04.41.13.81.27,1.2.01.04,0,.08-.04.09,0,0-.02,0-.02,0Z"/>
          <path class="cls-3" d="m13.27,10.55s-.05-.01-.06-.03c-.02-.03-.01-.08.02-.1.43-.27,1.29-.73,2.27-.82.47-.04.92,0,.97,0,.04,0,.07.04.06.08,0,.04-.04.07-.08.06-.05,0-.48-.05-.94,0-.95.09-1.79.54-2.21.8-.01,0-.02.01-.04.01Z"/>
          <path class="cls-3" d="m20.56,14.31s-.07-.03-.07-.07c0-.28-.03-.55-.09-.82-.13-.65-.51-1.86-1.64-2.76-.46-.36-.99-.63-1.58-.79-.04-.01-.06-.05-.05-.09.01-.04.05-.06.09-.05.6.17,1.15.44,1.63.81,1.17.92,1.56,2.18,1.69,2.84.05.28.08.56.09.85,0,.04-.03.07-.07.07h0Z"/>
        </g>
      </g>
    </g>
  </g>
  <path class="cls-1" d="m16,29.06c-2.53,0-4.91-.72-6.91-1.98l-1.32,2.12c2.39,1.5,5.21,2.36,8.23,2.36s5.9-.88,8.31-2.41l-1.34-2.11c-2.02,1.28-4.41,2.02-6.97,2.02Z"/>
  <path class="cls-2" d="m31.56,16c0,.29-.01.58-.03.87,0,.16-.01.32-.03.48,0,.14-.02.29-.04.43-.02.15-.04.29-.06.44-.03.23-.07.45-.12.68-.07.43-.17.85-.29,1.26-.07.25-.14.5-.23.75,0,.03-.01.06-.03.08-.07.23-.15.45-.24.67-.33.85-.74,1.67-1.21,2.43-.1.18-.22.36-.34.53-.52.78-1.1,1.51-1.75,2.18-.19.2-.39.39-.59.58-.23.22-.47.42-.71.63,0,0-.01,0-.02,0-.24.2-.49.39-.74.58-.27.19-.54.37-.82.55l-1.34-2.11c.23-.14.45-.29.67-.46.22-.15.44-.32.64-.49.35-.29.69-.6,1.01-.93.11-.1.21-.21.31-.32.45-.48.86-1,1.22-1.55.13-.17.24-.35.34-.53.12-.18.22-.36.32-.54,0,0,.01,0,.01-.01.19-.36.37-.73.53-1.11.01-.01.01-.02.01-.03.09-.19.16-.39.23-.59.06-.14.11-.28.15-.43.08-.23.15-.46.21-.69.07-.24.12-.49.17-.73.02-.08.04-.17.05-.26.04-.18.07-.35.09-.53.02-.11.03-.23.04-.35.06-.49.09-.99.09-1.49,0-7.2-5.86-13.06-13.06-13.06S2.94,8.8,2.94,16c0,.49.03.98.08,1.45.02.15.03.29.06.43.01.12.03.23.06.35.01.14.04.27.07.4.08.42.19.84.32,1.25.12.41.27.81.44,1.2.17.42.37.82.59,1.21.09.17.18.32.28.47.1.18.21.36.34.53.58.87,1.27,1.67,2.04,2.37.18.16.36.32.55.47.21.18.43.34.65.5.22.16.44.31.67.45l-1.32,2.12c-.29-.18-.57-.37-.85-.57-.25-.18-.49-.37-.73-.56-.03-.02-.05-.04-.08-.06-.22-.19-.44-.38-.65-.57-.22-.21-.43-.42-.64-.63-.82-.85-1.55-1.79-2.16-2.81-.1-.17-.2-.34-.3-.52-.38-.68-.71-1.41-.98-2.16-.07-.18-.13-.37-.19-.57-.09-.24-.16-.48-.22-.73-.07-.26-.14-.52-.19-.79-.07-.32-.13-.64-.17-.97-.03-.17-.05-.34-.07-.51-.02-.12-.03-.25-.04-.38,0-.17-.03-.33-.03-.5-.02-.28-.03-.58-.03-.87C.44,7.42,7.42.44,16,.44s15.56,6.98,15.56,15.56Z"/>
</svg>