<svg width="246" height="365" viewBox="0 0 246 365" fill="none" xmlns="http://www.w3.org/2000/svg">
<path d="M223.38 94.6208C223.38 94.2304 223.38 93.8521 223.38 93.4007C223.38 92.5954 223.307 91.7901 223.258 90.9604L223.185 89.8257C223.1 88.8008 223.014 87.7759 222.892 86.7632C222.892 86.4582 222.831 86.1654 222.795 85.8603C222.758 85.5553 222.734 85.3479 222.697 85.0917C222.661 84.8354 222.6 84.2986 222.539 83.8716C222.477 83.4445 222.453 83.2737 222.417 82.9809C222.343 82.4806 222.258 81.9926 222.172 81.5045C222.087 81.0165 221.989 80.382 221.88 79.8207C221.77 79.2595 221.745 79.0399 221.66 78.6006C221.575 78.1614 221.575 78.1492 221.526 77.9174L221.416 77.4171L221.233 76.5264L221.013 75.5747C221.013 75.4039 220.94 75.2453 220.891 75.0745C220.806 74.684 220.696 74.2814 220.599 73.8544C220.569 73.693 220.529 73.534 220.477 73.3785C220.367 72.9149 220.245 72.4634 220.123 72.012C220.001 71.5605 219.854 71.0359 219.708 70.56C219.715 70.5033 219.715 70.4459 219.708 70.3892C219.574 69.9256 219.439 69.4619 219.293 68.9983L219 68.0588C218.866 67.6317 218.72 67.2169 218.573 66.8387C218.573 66.68 218.476 66.5214 218.415 66.3628C218.292 65.9968 218.17 65.6429 218.036 65.2769L217.78 64.557C217.597 64.069 217.426 63.5931 217.243 63.1173C217.243 63.0197 217.158 62.9221 217.121 62.8123C216.999 62.5072 216.889 62.19 216.755 61.8728C216.621 61.5555 216.475 61.1651 216.316 60.8113C215.068 57.7672 213.655 54.7938 212.082 51.9044C211.85 51.4651 211.606 51.0259 211.362 50.5867L211.143 50.2084C210.911 49.7814 210.667 49.3543 210.411 48.9883C210.313 48.8297 210.24 48.6833 210.142 48.5368L209.556 47.5608L209.081 46.8043C208.788 46.3162 208.471 45.8282 208.165 45.3523C207.86 44.8765 207.665 44.5837 207.409 44.2054C206.86 43.3879 206.311 42.5827 205.725 41.7652C205.432 41.3381 205.127 40.9111 204.822 40.5451C204.517 40.179 204.029 39.4836 203.602 38.9589C203.175 38.4343 202.809 37.9218 202.382 37.4094C201.967 36.9091 201.565 36.3967 201.162 35.8964C200.759 35.3962 200.308 34.8837 199.869 34.3835L198.649 33.0169L198.38 32.7241L197.306 31.565L197.123 31.382C196.684 30.9183 196.245 30.4547 195.793 30.0032C195.342 29.5518 194.854 29.0637 194.378 28.6001C194.305 28.5147 194.232 28.4537 194.159 28.3805C193.341 27.5874 192.499 26.7943 191.645 26.0378C190.608 25.0861 189.534 24.171 188.448 23.2682L188.29 23.1339L186.789 21.9748L186.679 21.8894C186.179 21.4868 185.666 21.0963 185.154 20.6693C184.642 20.2423 184.068 19.864 183.531 19.4492C182.994 19.0343 182.433 18.6561 181.884 18.2291C181.335 17.802 180.786 17.4604 180.225 17.0943L178.541 15.984C176.284 14.5321 173.966 13.1778 171.611 11.921L169.829 10.9937C167.389 9.77362 164.949 8.65111 162.509 7.63841C158.727 6.06887 154.852 4.73636 150.905 3.64862L149.197 3.18497C148.282 2.95315 147.367 2.72132 146.44 2.5139C145.744 2.34309 145.036 2.19667 144.329 2.05026L143.646 1.90384L142.73 1.72082C141.352 1.58661 139.888 1.34259 138.436 1.13517C137.545 1.00095 136.642 0.878942 135.751 0.769131L133.311 0.512906C132.652 0.439698 131.981 0.378692 131.298 0.329888L130.005 0.244479H129.321L127.93 0.122467H126.576H125.881H124.66H122.342C120.634 0.122467 118.926 0.122467 117.218 0.281083H116.498L114.997 0.342089L113.997 0.427497L112.069 0.610515L111.203 0.720326L110.068 0.854539C109.202 0.952149 108.323 1.08636 107.457 1.22058L105.017 1.61101L103.796 1.84284L103.528 1.91604L102.857 2.05026L101.393 2.35529L100.173 2.63592L98.5255 3.02635C97.8056 3.19717 97.0979 3.38019 96.3781 3.57541L94.3526 4.14887C93.7914 4.31968 93.2179 4.4783 92.6689 4.66132C92.1198 4.84433 91.3023 5.10056 90.6191 5.32018L89.6308 5.64961L88.6547 5.99125L87.6664 6.35728L86.7513 6.69892L86.2144 6.90634L84.8601 7.33338L83.5668 7.87023C82.7127 8.21187 81.8708 8.5779 81.0289 8.96834L79.8088 9.5418L78.6741 10.0909C77.9176 10.4569 77.1611 10.8229 76.4169 11.2134C74.546 12.1651 72.7118 13.1778 70.9141 14.2515C70.3407 14.5931 69.694 14.9347 69.1938 15.3008C68.6935 15.6668 68.0468 16.0084 67.4856 16.3745C66.5339 16.9967 65.5822 17.5946 64.6549 18.2901L63.264 19.3028L62.4221 19.8884C61.8852 20.2911 61.3362 20.6937 60.8115 21.1085C58.6804 22.7354 56.6225 24.4598 54.6377 26.2819C54.1375 26.7211 53.6494 27.1847 53.1614 27.6362L51.7216 29.0271C51.2458 29.4908 50.7821 29.9666 50.3185 30.4425C50.3007 30.4727 50.2755 30.4978 50.2453 30.5157C49.4156 31.382 48.5859 32.2604 47.805 33.1633L47.3902 33.6392C47.0242 34.0296 46.6703 34.4323 46.3165 34.8593L45.0964 36.3112C45.0232 36.3844 44.9622 36.4699 44.9012 36.5431L44.0715 37.568L43.2662 38.5807L43.0588 38.8491L42.2657 39.8862L41.5824 40.8135L41.2774 41.2283C41.0456 41.5334 40.826 41.8506 40.6185 42.1556C40.4111 42.4607 40.2403 42.6803 40.0573 42.9365L39.1178 44.3152L38.3857 45.4377C37.4584 46.8775 36.5555 48.3416 35.7015 49.8302L35.006 51.0503L33.9811 52.7829C33.6761 53.3441 33.3832 53.9176 33.1026 54.4788L33.005 54.6741C32.7366 55.1946 32.4803 55.7193 32.2363 56.248C32.2341 56.2887 32.2341 56.3294 32.2363 56.37C31.9923 56.8825 31.7605 57.3827 31.5286 57.8952C31.5286 58.0294 31.4066 58.1514 31.3578 58.2734C31.1138 58.8225 30.8698 59.3715 30.638 59.9206L29.8693 61.7508C29.6253 62.3608 29.3812 62.9709 29.1494 63.5931C28.9176 64.2154 28.698 64.8133 28.4783 65.4355C28.2587 66.0578 28.0391 66.6556 27.8317 67.3145C27.6243 67.9734 27.3558 68.7542 27.1362 69.4741L26.6604 71.1213L26.2943 72.3414L26.0503 73.2809C25.9771 73.5859 25.8917 73.8788 25.8185 74.1716C25.7957 74.2828 25.7672 74.3928 25.7331 74.501C25.6233 74.9525 25.5256 75.4039 25.4158 75.8553C25.1718 76.9413 24.94 78.0394 24.7204 79.1375C24.6106 79.7109 24.5129 80.2966 24.4031 80.8822C24.2933 81.4679 24.2445 81.8461 24.1591 82.3342C24.0737 82.8222 24.0249 83.2371 23.9639 83.6885C23.9571 83.8023 23.9571 83.9164 23.9639 84.0302C23.9639 84.3108 23.8785 84.5914 23.8541 84.872L23.7077 86.0068C23.7077 86.141 23.7077 86.263 23.7077 86.3972C23.7077 86.8852 23.5979 87.3733 23.5613 87.8735C23.5247 88.3738 23.488 88.6422 23.4636 89.0937C23.4392 89.5451 23.3782 90.0088 23.3538 90.4724C23.3294 90.936 23.1586 91.5217 23.1342 91.9732C23.0732 93.0347 23 94.1084 23 95.1821C23 95.7555 23 96.4022 23 96.9268C23 97.4515 23 97.8663 23 98.3422C23 98.818 23 99.0377 23 99.3793C23 100.111 23 100.831 23.0732 101.563C23.1464 102.295 23.1952 103.015 23.244 103.723C23.3416 105.065 23.4636 106.395 23.6223 107.737L23.7687 108.957C23.7687 109.348 23.8663 109.738 23.9273 110.177C23.9883 110.617 24.0249 110.848 24.0737 111.178C24.1225 111.507 24.2201 112.13 24.2933 112.605C24.3665 113.081 24.4031 113.264 24.4763 113.581C24.757 115.192 25.0742 116.778 25.4524 118.364C25.5379 118.755 25.6355 119.145 25.7331 119.584C25.8307 120.024 25.9161 120.353 26.0259 120.731C26.1357 121.11 26.2211 121.5 26.3309 121.878C26.328 121.927 26.328 121.976 26.3309 122.025C26.5017 122.659 26.6848 123.245 26.8678 123.904C26.8678 124.014 26.8678 124.136 26.9654 124.245C27.124 124.77 27.2948 125.295 27.4534 125.819C27.6121 126.344 27.8317 126.966 28.0269 127.552C28.2221 128.138 28.5515 129.053 28.8322 129.797L29.247 130.907C29.5154 131.603 29.7961 132.298 30.0767 132.981C30.5403 134.128 31.0406 135.263 31.553 136.386C31.7117 136.739 31.8825 137.093 32.0533 137.447C32.2241 137.789 32.3949 138.143 32.5535 138.484C32.7122 138.826 32.9074 139.204 33.0904 139.558C33.2734 139.912 33.4564 140.253 33.6272 140.607C33.7981 140.961 33.9933 141.315 34.1885 141.669L34.6277 142.486C35.0548 143.267 35.4818 144.023 35.9333 144.792L36.5433 145.817C36.7508 146.159 36.946 146.5 37.1656 146.83L37.6048 147.55L37.9953 148.16L38.4467 148.855C39.0934 149.868 39.7767 150.856 40.4721 151.832L41.0456 152.638C41.1312 152.769 41.2249 152.896 41.3262 153.016L41.8875 153.784C42.3755 154.443 42.888 155.102 43.4004 155.749C43.9129 156.396 44.3277 156.969 44.8036 157.506L44.95 157.677L45.6454 158.506C45.9017 158.824 46.1701 159.129 46.4263 159.434L46.9998 160.068C47.6464 160.812 48.3053 161.544 48.9886 162.264L49.7084 163.021L50.5625 163.899C50.8432 164.192 51.136 164.473 51.4288 164.766L52.2951 165.62L53.1858 166.474C54.0765 167.303 54.9794 168.133 55.8944 168.914L57.7612 170.5C58.0785 170.756 58.3835 171.025 58.7007 171.269C59.323 171.793 59.9208 172.306 60.6041 172.794L61.5802 173.526C61.8974 173.782 62.2269 174.026 62.5563 174.258C63.5324 174.978 64.5207 175.686 65.5334 176.369L66.5461 177.04L67.5588 177.711C68.7789 178.516 70.0967 179.309 71.39 180.054C87.2008 189.24 105.171 194.054 123.457 194C141.743 193.946 159.685 189.028 175.442 179.749C175.783 179.541 176.125 179.346 176.467 179.126L176.699 178.992L177.65 178.406L177.894 178.248L178.883 177.626L180.322 176.674L181.799 175.673L181.933 175.576L183.324 174.588C183.324 174.588 183.324 174.588 183.385 174.527C183.873 174.173 184.361 173.819 184.837 173.453L186.155 172.452L186.399 172.257L187.704 171.208C188.168 170.842 188.607 170.464 189.046 170.085C189.109 170.048 189.166 170.003 189.217 169.951L190.437 168.853C190.889 168.45 191.34 168.06 191.791 167.633C193.585 166.01 195.318 164.314 196.965 162.557C197.38 162.118 197.794 161.691 198.185 161.239C198.575 160.788 198.99 160.361 199.405 159.897C199.82 159.434 200.149 159.055 200.503 158.677C200.559 158.626 200.608 158.569 200.65 158.506L201.711 157.286C202.016 156.908 202.321 156.542 202.614 156.151C202.907 155.761 203.004 155.676 203.187 155.432L203.968 154.419C204.322 153.943 204.688 153.455 205.03 152.979C206.754 150.62 208.381 148.18 209.91 145.658C209.983 145.536 210.069 145.414 210.13 145.292C210.411 144.817 210.679 144.341 210.947 143.865L211.692 142.559L212.045 141.888C212.216 141.571 212.387 141.266 212.546 140.949C212.647 140.776 212.737 140.597 212.814 140.412C213.058 139.973 213.278 139.546 213.497 139.094C213.717 138.643 213.998 138.081 214.242 137.569C214.766 136.447 215.279 135.324 215.767 134.189L216.499 132.432C217.17 130.785 217.719 129.138 218.341 127.479C218.476 127.088 218.61 126.71 218.732 126.332C219.845 122.93 220.761 119.467 221.477 115.961C221.636 115.192 221.782 114.411 221.916 113.63C222.05 112.849 222.221 111.898 222.355 111.031C222.355 110.726 222.441 110.434 222.478 110.141C222.514 109.848 222.612 109.213 222.661 108.75C222.709 108.286 222.746 108.091 222.783 107.762C222.819 107.432 222.868 106.968 222.905 106.541C222.941 106.114 222.99 105.748 223.027 105.321C223.027 104.528 223.149 103.747 223.197 102.954C223.283 101.734 223.332 100.514 223.356 99.3915C223.356 99.0498 223.356 98.7204 223.356 98.3788C223.356 97.4515 223.356 96.5486 223.356 95.6335C223.405 95.2675 223.393 94.938 223.38 94.6208ZM200.552 127.344C194.121 142.262 183.386 154.922 169.719 163.704C168.695 164.363 167.658 165.01 166.596 165.62C153.504 173.278 138.621 177.342 123.454 177.4C108.287 177.458 93.3736 173.507 80.2237 165.949C74.3375 162.558 68.8878 158.461 63.996 153.748C56.2489 146.286 50.072 137.35 45.8285 127.466C40.5637 115.178 38.5115 101.753 39.8647 88.4532C41.218 75.1535 45.9322 62.4166 53.564 51.4407C62.8891 38.0191 75.9589 27.6396 91.1437 21.5966C106.492 15.4632 123.278 13.8625 139.509 16.9845C155.64 20.0268 170.536 27.6957 182.384 39.0565C194.028 50.2596 202.015 64.7195 205.298 80.5406C208.53 96.2607 206.874 112.593 200.552 127.344Z" fill="#1DD05D"/>
<path d="M223.405 95.5846C223.405 96.4997 223.405 97.4026 223.405 98.3299C223.405 98.6716 223.405 99.001 223.405 99.3426C223.405 100.563 223.332 101.783 223.246 102.905C223.246 103.698 223.136 104.479 223.075 105.272C223.075 105.663 223.002 106.053 222.953 106.493C222.905 106.932 222.88 107.273 222.831 107.713C222.783 108.152 222.758 108.372 222.709 108.701C222.661 109.03 222.6 109.628 222.526 110.092C222.453 110.556 222.441 110.678 222.404 110.983C222.274 111.845 222.128 112.711 221.965 113.581C221.831 114.362 221.684 115.143 221.526 115.912C220.81 119.419 219.894 122.881 218.781 126.283C218.659 126.661 218.524 127.039 218.39 127.43C217.829 129.089 217.17 130.736 216.548 132.383L215.816 134.14C215.328 135.275 214.815 136.398 214.29 137.52C214.046 138.033 213.79 138.545 213.546 139.045C213.302 139.546 213.107 139.924 212.863 140.363C212.786 140.548 212.696 140.727 212.595 140.9C212.436 141.217 212.265 141.522 212.094 141.839L211.74 142.51L210.996 143.816C210.728 144.292 210.459 144.768 210.179 145.244C210.179 145.366 210.032 145.488 209.959 145.61C208.471 148.107 206.844 150.547 205.079 152.93C204.737 153.406 204.371 153.894 204.017 154.37L203.236 155.383C203.053 155.627 202.858 155.871 202.663 156.103C202.468 156.334 202.065 156.859 201.76 157.237L200.698 158.457C200.657 158.52 200.608 158.578 200.552 158.628C200.198 159.055 199.832 159.482 199.454 159.848C199.076 160.214 198.661 160.751 198.234 161.191C197.807 161.63 197.428 162.069 197.014 162.508C195.366 164.265 193.634 165.961 191.84 167.584C191.389 167.999 190.937 168.389 190.486 168.804L189.266 169.902C189.215 169.954 189.158 169.999 189.095 170.036C188.656 170.415 188.217 170.793 187.753 171.159L186.447 172.208L186.203 172.403L184.886 173.404C184.41 173.77 183.922 174.124 183.434 174.478C183.434 174.478 183.434 174.478 183.373 174.539L181.982 175.527L181.848 175.625C180.566 176.515 179.261 177.369 177.943 178.199C177.471 178.508 176.995 178.801 176.516 179.077L175.503 179.712L166.608 165.644C167.67 165.034 168.707 164.424 169.732 163.728C183.398 154.947 194.134 142.287 200.564 127.369C206.887 112.609 208.539 96.2672 205.298 80.5406C202.015 64.7195 194.028 50.2595 182.384 39.0565C170.549 27.6601 155.651 19.9566 139.509 16.8869C123.278 13.7648 106.492 15.3655 91.1437 21.4989C75.9589 27.542 62.8891 37.9215 53.564 51.3431C45.9322 62.319 41.218 75.0558 39.8647 88.3556C38.5115 101.655 40.5637 115.081 45.8285 127.369C50.072 137.253 56.2489 146.188 63.996 153.65C68.8878 158.363 74.3375 162.461 80.2237 165.851L71.4388 179.944C70.1455 179.187 68.8765 178.406 67.6198 177.589L66.6071 176.918L65.5944 176.247C64.5817 175.564 63.5934 174.856 62.6173 174.136C62.2879 173.904 61.9585 173.66 61.6412 173.404L60.6651 172.672C60.0185 172.184 59.384 171.671 58.7617 171.147C58.4445 170.903 58.1395 170.634 57.8222 170.378L55.9433 168.853C55.0282 168.048 54.1253 167.23 53.2346 166.413L52.3439 165.559L51.4776 164.704C51.1848 164.412 50.892 164.131 50.6113 163.838L49.7572 162.96L49.0374 162.203C48.3541 161.483 47.6952 160.751 47.0486 160.007L46.4751 159.373C46.2189 159.068 45.9505 158.762 45.6942 158.445L44.9988 157.616L44.8524 157.445C44.3765 156.871 43.9129 156.286 43.4492 155.688C42.9856 155.09 42.4243 154.382 41.9363 153.723L41.375 152.955C41.2737 152.835 41.18 152.708 41.0944 152.576L40.5209 151.771C39.8255 150.795 39.1422 149.807 38.4955 148.794L38.0441 148.099L37.6536 147.489L37.2144 146.769C36.9948 146.439 36.7996 146.098 36.5921 145.756L35.9821 144.731C35.5306 143.962 35.1036 143.206 34.6766 142.425L34.2373 141.547C34.0421 141.193 33.8591 140.839 33.6761 140.485C33.493 140.131 33.3222 139.79 33.1392 139.436C32.9562 139.082 32.7732 138.728 32.6023 138.362C32.4315 137.996 32.2729 137.667 32.1021 137.325C31.9313 136.971 31.7605 136.617 31.6019 136.263C31.0894 135.141 30.5891 134.006 30.1255 132.859C29.8449 132.176 29.5642 131.481 29.2958 130.785L28.881 129.675C28.6004 128.931 28.3319 128.186 28.0757 127.43C27.8195 126.673 27.6853 126.21 27.5022 125.697C27.3192 125.185 27.1728 124.648 27.0142 124.123C27.0142 124.013 27.0142 123.891 26.9166 123.782C26.7336 123.159 26.5506 122.562 26.3797 121.903C26.3768 121.854 26.3768 121.805 26.3797 121.756C26.2699 121.378 26.1723 121 26.0747 120.609C25.9771 120.219 25.8795 119.853 25.7819 119.462C25.6843 119.072 25.5867 118.694 25.5012 118.242C25.123 116.656 24.8058 115.07 24.5252 113.459C24.4519 113.142 24.4031 112.813 24.3421 112.483C24.2811 112.154 24.1835 111.532 24.1225 111.056C24.0615 110.58 24.0127 110.397 23.9761 110.055C23.9395 109.714 23.8663 109.274 23.8175 108.835L23.6711 107.615C23.4636 106.407 23.3416 105.077 23.244 103.723C23.244 103.003 23.1464 102.271 23.1098 101.551C23.0732 100.831 23 100.062 23 99.3792C23 99.0376 23 98.6837 23 98.3421C23 98.0005 23 97.4026 23 96.9268C23 96.4509 23 95.7067 23 95.182C23 94.1083 23 93.0346 23.1098 91.9731C23.1098 91.4728 23.1708 90.9726 23.2074 90.4723C23.244 89.9721 23.2074 89.5451 23.3172 89.0936C23.427 88.6422 23.3172 88.3249 23.4148 87.8735C23.5125 87.422 23.5125 86.8852 23.5613 86.3971C23.5613 86.2629 23.5613 86.1409 23.5613 86.0067L23.7077 84.872C23.7077 84.5914 23.7809 84.3107 23.8175 84.0301C23.8107 83.9163 23.8107 83.8023 23.8175 83.6885C23.8175 83.237 23.9517 82.7856 24.0127 82.3341C24.0737 81.8827 24.1713 81.358 24.2567 80.8822C24.3421 80.4063 24.4641 79.6621 24.574 79.1374C24.7936 78.0393 25.0254 76.9412 25.2694 75.8553C25.3792 75.4039 25.4768 74.9524 25.5867 74.501C25.6208 74.3927 25.6493 74.2827 25.6721 74.1715C25.7453 73.8787 25.8307 73.5859 25.9039 73.2808L26.1479 72.3413L26.5139 71.1212L26.9898 69.4863C27.2094 68.7705 27.4412 68.0506 27.6853 67.3267C27.8927 66.6922 28.1123 66.1065 28.3319 65.4477C28.5515 64.8376 28.7712 64.2275 29.003 63.6053C29.2348 62.983 29.4788 62.3852 29.7229 61.7629L30.4915 59.9327C30.7234 59.3837 30.9674 58.8346 31.2114 58.2856C31.2114 58.1635 31.3212 58.0415 31.3822 57.9073C31.6141 57.3949 31.8459 56.8946 32.0899 56.3822C32.0877 56.3415 32.0877 56.3008 32.0899 56.2602C32.3339 55.7314 32.5901 55.2068 32.8586 54.6862L32.9562 54.491C33.2368 53.9297 33.5296 53.3563 33.8347 52.795L34.7742 51.0624L35.4696 49.8423C36.3237 48.3538 37.2266 46.8896 38.1539 45.4499L38.886 44.3274L39.8255 42.9486C40.0085 42.6924 40.1915 42.424 40.3867 42.1678C40.5819 41.9115 40.8138 41.5455 41.0456 41.2405L41.3506 40.8256L42.0339 39.8983L42.827 38.8612L43.0344 38.5928L43.8397 37.5801L44.6693 36.5552C44.7303 36.482 44.7914 36.3966 44.8646 36.3234L46.0847 34.8714C46.4385 34.4566 46.7923 34.054 47.1584 33.6513L47.5732 33.1755C48.3907 32.2726 49.2204 31.3941 50.0135 30.5278C50.0437 30.51 50.0689 30.4848 50.0867 30.4546C50.5503 29.9788 51.014 29.5029 51.4898 29.0393L52.9296 27.6483C53.4176 27.1969 53.9057 26.7332 54.4059 26.294C56.3825 24.4882 58.4404 22.7638 60.5797 21.1207C61.1044 20.7059 61.6534 20.3032 62.1903 19.9006C63.8171 18.7049 65.4805 17.5539 67.1806 16.4476C67.7418 16.0816 68.3153 15.7278 68.8887 15.3739C69.4622 15.0201 70.0356 14.6663 70.6091 14.3246C73.7204 12.6042 76.6853 10.9937 79.7356 9.60275C92.663 3.59889 106.694 0.337762 120.944 0.0248722C135.194 -0.288017 149.355 2.35412 162.533 7.78477C164.973 8.80967 167.413 9.92812 169.854 11.1401L171.635 12.0674C173.99 13.2875 176.308 14.6785 178.565 16.1304L180.249 17.2407C180.81 17.6067 181.359 17.985 181.909 18.3754C182.458 18.7659 183.007 19.1441 183.556 19.5955C184.105 20.047 184.642 20.3886 185.178 20.8157C185.715 21.2427 186.203 21.5965 186.704 22.0358L186.813 22.1212L188.217 23.2559L188.375 23.3901C190.433 25.0983 192.41 26.8756 194.305 28.722C194.781 29.1857 195.257 29.6493 195.72 30.1252C196.184 30.601 196.611 31.0403 197.05 31.5039L197.233 31.6869L198.307 32.8461L198.575 33.1389L199.795 34.5054C200.235 35.0057 200.662 35.5059 201.089 36.0184C201.516 36.5308 201.918 37.0311 202.309 37.5313C202.724 38.0438 203.126 38.5562 203.529 39.0809C203.932 39.6055 204.334 40.1302 204.749 40.667C205.164 41.2039 205.359 41.5089 205.652 41.8871C206.238 42.6802 206.787 43.4855 207.336 44.3274C207.592 44.7056 207.848 45.0839 208.092 45.4743C208.336 45.8647 208.715 46.4382 209.007 46.9262L209.483 47.6827L210.069 48.6588C210.167 48.8052 210.24 48.9516 210.337 49.1103C210.594 49.5251 210.838 49.9521 211.069 50.3304L211.289 50.7086C211.533 51.1479 211.777 51.5871 212.009 52.0263C213.582 54.9157 214.995 57.8891 216.243 60.9332C216.401 61.2871 216.536 61.6409 216.682 61.9947C216.828 62.3486 216.926 62.6292 217.048 62.9342C217.048 63.044 217.133 63.1416 217.17 63.2393C217.353 63.7151 217.524 64.1909 217.707 64.679L217.963 65.3989C218.097 65.7649 218.219 66.1187 218.341 66.4848C218.341 66.6434 218.451 66.802 218.5 66.9606C218.646 67.3877 218.793 67.8025 218.927 68.1807L219.22 69.1202C219.366 69.5839 219.5 70.0475 219.635 70.5112C219.642 70.5679 219.642 70.6253 219.635 70.682C219.781 71.1578 219.915 71.6459 220.049 72.1339C220.184 72.622 220.293 73.0368 220.403 73.5005C220.455 73.6559 220.496 73.815 220.525 73.9763C220.623 74.3668 220.733 74.7694 220.818 75.1964C220.818 75.3672 220.904 75.5259 220.94 75.6967L221.16 76.6484L221.343 77.5391C221.428 77.9295 221.514 78.3199 221.587 78.7592C221.66 79.1984 221.733 79.5279 221.806 79.9793C221.88 80.4307 222.014 81.1018 222.099 81.6631C222.185 82.2243 222.27 82.6392 222.343 83.1394C222.343 83.4322 222.429 83.7373 222.465 84.0301C222.502 84.3229 222.575 84.8232 222.624 85.2502C222.673 85.6773 222.697 85.7627 222.722 86.0189C222.746 86.2751 222.795 86.6168 222.819 86.9218C222.941 87.9345 223.027 88.9594 223.112 89.9843L223.185 91.119C223.185 91.9243 223.283 92.7296 223.307 93.5592C223.307 93.9497 223.307 94.3279 223.307 94.7794C223.393 94.938 223.405 95.2674 223.405 95.5846Z" fill="#498AF8"/>
<path d="M101.32 146.854H86.2755C82.3382 146.906 78.5411 145.394 75.7181 142.649C72.8952 139.903 71.2771 136.15 71.2192 132.213V117.571H72.4394V132.213C72.4632 134 72.8392 135.766 73.5458 137.408C74.2524 139.05 75.2757 140.537 76.5573 141.784C77.839 143.03 79.3537 144.012 81.0149 144.672C82.6761 145.333 84.4513 145.66 86.2389 145.634H101.32V146.854Z" fill="#DB504A"/>
<path d="M175.161 75.1233H173.941V60.4818C173.917 58.6942 173.541 56.9288 172.835 55.2866C172.128 53.6443 171.105 52.1575 169.823 50.911C168.542 49.6645 167.027 48.6829 165.366 48.0222C163.704 47.3615 161.929 47.0347 160.142 47.0605H145.012V45.8404H160.056C163.994 45.7914 167.79 47.3047 170.615 50.0489C173.439 52.7931 175.061 56.5445 175.125 60.4818L175.161 75.1233Z" fill="#DB504A"/>
<path d="M160.093 146.854H145.012V145.634H160.056C161.844 145.66 163.619 145.333 165.28 144.672C166.942 144.012 168.456 143.03 169.738 141.784C171.019 140.537 172.043 139.05 172.749 137.408C173.456 135.766 173.832 134 173.856 132.213V117.571H175.076V132.213C175.015 136.136 173.406 139.877 170.6 142.619C167.793 145.361 164.017 146.884 160.093 146.854Z" fill="#DB504A"/>
<path d="M72.476 75.1233H71.2559V60.4818C71.3169 56.5456 72.936 52.7941 75.7583 50.0496C78.5805 47.3051 82.3758 45.7915 86.3121 45.8404H101.32V47.0605H86.2755C84.4879 47.0347 82.7128 47.3615 81.0515 48.0222C79.3903 48.6829 77.8756 49.6645 76.594 50.911C75.3124 52.1575 74.289 53.6443 73.5824 55.2866C72.8758 56.9288 72.4998 58.6942 72.476 60.4818V75.1233Z" fill="#DB504A"/>
<path d="M102.967 111.995C102.91 112.007 102.852 112.007 102.796 111.995C102.741 111.974 102.69 111.942 102.648 111.9C102.605 111.859 102.572 111.809 102.549 111.755C102.526 111.7 102.515 111.641 102.515 111.582C102.516 111.522 102.528 111.464 102.552 111.41C104.389 106.875 105.141 101.974 104.748 97.0976C104.741 97.0396 104.747 96.9808 104.764 96.9248C104.78 96.8689 104.809 96.817 104.846 96.7724C104.884 96.7278 104.931 96.6914 104.983 96.6655C105.035 96.6396 105.092 96.6247 105.151 96.6218C105.269 96.6115 105.386 96.648 105.477 96.7233C105.568 96.7986 105.626 96.9067 105.639 97.0244C105.843 99.5479 105.752 102.086 105.37 104.589C104.992 107.032 104.333 109.423 103.406 111.715C103.371 111.801 103.31 111.875 103.231 111.925C103.152 111.975 103.06 112 102.967 111.995Z" fill="#DB504A"/>
<path d="M150.746 108.03C150.648 108.029 150.554 107.995 150.478 107.932C146.565 105.005 143.84 100.763 142.803 95.9872C142.789 95.9294 142.787 95.8693 142.796 95.8106C142.806 95.7519 142.827 95.6957 142.859 95.6455C142.891 95.5953 142.933 95.5521 142.982 95.5185C143.031 95.485 143.087 95.4618 143.145 95.4503C143.202 95.436 143.261 95.4336 143.319 95.4433C143.377 95.453 143.433 95.4746 143.482 95.5067C143.531 95.5387 143.573 95.5806 143.606 95.6297C143.638 95.6788 143.66 95.734 143.67 95.7919C144.673 100.348 147.269 104.398 150.99 107.212C151.084 107.287 151.144 107.394 151.16 107.512C151.176 107.631 151.146 107.75 151.076 107.847C151.039 107.9 150.99 107.945 150.932 107.977C150.875 108.008 150.812 108.026 150.746 108.03Z" fill="#DB504A"/>
<path d="M149.16 116.119C149.059 116.117 148.961 116.083 148.88 116.022C147.416 114.81 146.03 113.505 144.731 112.117C143.351 110.629 142.075 109.047 140.912 107.383C140.877 107.335 140.852 107.279 140.839 107.221C140.826 107.163 140.824 107.102 140.834 107.043C140.844 106.984 140.866 106.928 140.899 106.877C140.931 106.827 140.973 106.783 141.022 106.749C141.121 106.685 141.239 106.661 141.355 106.681C141.47 106.702 141.574 106.765 141.644 106.859C142.783 108.486 144.035 110.031 145.39 111.483C146.657 112.846 148.015 114.121 149.453 115.302C149.523 115.362 149.572 115.442 149.595 115.531C149.618 115.62 149.613 115.714 149.582 115.8C149.55 115.886 149.492 115.961 149.417 116.013C149.342 116.066 149.252 116.094 149.16 116.095V116.119Z" fill="#DB504A"/>
<path d="M102.308 127.308C102.214 127.305 102.124 127.271 102.052 127.21C102.004 127.176 101.963 127.133 101.932 127.083C101.901 127.033 101.881 126.977 101.872 126.919C101.862 126.861 101.865 126.802 101.879 126.745C101.893 126.688 101.919 126.635 101.954 126.588C103.323 124.733 104.586 122.802 105.737 120.804C106.928 118.739 107.996 116.604 108.933 114.411C108.984 114.306 109.072 114.225 109.181 114.184C109.29 114.143 109.41 114.146 109.517 114.191C109.624 114.237 109.709 114.322 109.755 114.429C109.801 114.535 109.804 114.656 109.763 114.765C108.811 116.987 107.728 119.151 106.517 121.244C105.364 123.265 104.093 125.216 102.711 127.088C102.668 127.156 102.609 127.213 102.538 127.251C102.468 127.29 102.388 127.309 102.308 127.308Z" fill="#DB504A"/>
<path d="M157.604 101.881C157.533 101.881 157.462 101.865 157.399 101.833C157.335 101.801 157.28 101.755 157.238 101.697C156.439 100.573 155.705 99.4043 155.041 98.1958C154.375 96.9811 153.776 95.7306 153.248 94.45C153.203 94.3399 153.204 94.2167 153.25 94.1071C153.295 93.9974 153.382 93.9102 153.492 93.8643C153.546 93.8406 153.605 93.8281 153.664 93.8275C153.723 93.827 153.782 93.8385 153.837 93.8613C153.891 93.8841 153.941 93.9178 153.982 93.9602C154.024 94.0027 154.056 94.0531 154.077 94.1084C154.588 95.363 155.175 96.5853 155.834 97.7687C156.48 98.9477 157.193 100.088 157.97 101.185C158.038 101.283 158.067 101.404 158.048 101.522C158.03 101.64 157.967 101.747 157.872 101.82C157.79 101.863 157.697 101.884 157.604 101.881Z" fill="#DB504A"/>
<path d="M100.258 136.385C100.171 136.388 100.084 136.365 100.011 136.318C99.9365 136.272 99.8781 136.204 99.8428 136.124C99.8074 136.044 99.7967 135.956 99.8119 135.87C99.8272 135.783 99.8678 135.704 99.9286 135.641C106.384 128.423 111.034 119.775 113.496 110.409C113.51 110.351 113.536 110.297 113.572 110.25C113.607 110.203 113.652 110.163 113.703 110.133C113.754 110.104 113.811 110.085 113.87 110.078C113.929 110.07 113.988 110.075 114.045 110.092C114.103 110.106 114.157 110.131 114.204 110.167C114.252 110.203 114.291 110.247 114.321 110.299C114.351 110.35 114.37 110.407 114.377 110.466C114.384 110.524 114.379 110.584 114.363 110.641C113.169 115.197 111.457 119.602 109.262 123.769C106.893 128.263 103.984 132.45 100.6 136.239C100.555 136.285 100.502 136.322 100.444 136.347C100.385 136.372 100.322 136.385 100.258 136.385Z" fill="#DB504A"/>
<path d="M105.09 136.154C104.982 136.154 104.878 136.115 104.797 136.044C104.717 135.968 104.668 135.865 104.659 135.754C104.65 135.644 104.681 135.534 104.748 135.446C112.459 126.16 117.112 114.718 118.072 102.686C118.068 102.621 118.078 102.557 118.101 102.496C118.124 102.436 118.16 102.381 118.206 102.336C118.253 102.291 118.308 102.256 118.369 102.234C118.43 102.212 118.495 102.203 118.559 102.209C118.624 102.214 118.686 102.233 118.743 102.265C118.799 102.296 118.848 102.34 118.887 102.392C118.925 102.444 118.951 102.504 118.964 102.567C118.978 102.631 118.977 102.696 118.962 102.759C117.982 114.963 113.256 126.566 105.431 135.983C105.39 136.035 105.338 136.077 105.279 136.106C105.22 136.136 105.156 136.152 105.09 136.154Z" fill="#DB504A"/>
<path d="M109.433 136.556C109.34 136.56 109.249 136.53 109.177 136.471C109.079 136.404 109.011 136.301 108.988 136.185C108.966 136.068 108.99 135.947 109.055 135.849C111.855 131.796 114.215 127.456 116.095 122.903C120.101 113.108 121.848 102.536 121.207 91.973C121.197 91.9083 121.2 91.8421 121.218 91.7789C121.235 91.7157 121.266 91.6571 121.308 91.6071C121.351 91.5571 121.404 91.5169 121.463 91.4894C121.523 91.4618 121.587 91.4476 121.653 91.4476C121.718 91.4476 121.783 91.4618 121.843 91.4894C121.902 91.5169 121.955 91.5571 121.997 91.6071C122.04 91.6571 122.071 91.7157 122.088 91.7789C122.105 91.8421 122.109 91.9083 122.098 91.973C122.75 102.651 120.99 113.339 116.949 123.245C115.045 127.857 112.657 132.254 109.824 136.361C109.78 136.423 109.721 136.473 109.653 136.507C109.585 136.541 109.509 136.558 109.433 136.556Z" fill="#DB504A"/>
<path d="M113.85 136.556C113.767 136.556 113.686 136.531 113.619 136.483C113.567 136.453 113.522 136.413 113.486 136.365C113.45 136.317 113.425 136.262 113.411 136.204C113.397 136.145 113.396 136.085 113.406 136.026C113.417 135.967 113.439 135.911 113.472 135.861C116.269 131.394 118.6 126.651 120.427 121.707C122.51 116.079 123.935 110.228 124.673 104.272C124.679 104.213 124.697 104.156 124.725 104.104C124.754 104.052 124.793 104.006 124.84 103.97C124.886 103.933 124.94 103.907 124.997 103.892C125.055 103.876 125.114 103.873 125.173 103.881C125.29 103.9 125.395 103.961 125.467 104.054C125.54 104.147 125.574 104.264 125.564 104.382C124.821 110.409 123.38 116.33 121.269 122.025C119.418 127.024 117.059 131.819 114.229 136.337C114.189 136.402 114.133 136.456 114.067 136.494C114.001 136.532 113.927 136.554 113.85 136.556Z" fill="#DB504A"/>
<path d="M117.95 136.666C117.878 136.688 117.802 136.688 117.73 136.666C117.678 136.639 117.632 136.6 117.595 136.554C117.558 136.507 117.532 136.454 117.517 136.396C117.502 136.339 117.499 136.279 117.508 136.22C117.518 136.162 117.54 136.106 117.572 136.056C120.138 131.602 122.252 126.901 123.88 122.025C125.227 118.048 126.243 113.968 126.918 109.824C126.934 109.729 126.979 109.642 127.047 109.575C127.115 109.507 127.202 109.462 127.296 109.445C127.392 109.433 127.49 109.451 127.575 109.497C127.661 109.543 127.729 109.615 127.772 109.702C129.077 112.437 130.625 115.051 132.396 117.51C134.664 120.669 137.284 123.559 140.205 126.125C140.261 126.159 140.308 126.205 140.345 126.26C140.381 126.314 140.404 126.376 140.414 126.441C140.424 126.506 140.42 126.572 140.401 126.635C140.383 126.698 140.351 126.756 140.308 126.806C140.265 126.855 140.212 126.894 140.152 126.921C140.092 126.948 140.027 126.961 139.961 126.96C139.896 126.959 139.831 126.944 139.772 126.916C139.713 126.887 139.661 126.846 139.619 126.796C136.644 124.187 133.975 121.248 131.664 118.035C130.137 115.907 128.771 113.668 127.577 111.337C126.897 115.061 125.947 118.731 124.734 122.318C123.081 127.214 120.939 131.931 118.34 136.398C118.308 136.475 118.254 136.542 118.185 136.589C118.115 136.637 118.034 136.664 117.95 136.666Z" fill="#DB504A"/>
<path d="M121.732 136.556C121.664 136.572 121.593 136.572 121.525 136.556C121.472 136.531 121.425 136.494 121.387 136.45C121.349 136.405 121.32 136.353 121.303 136.297C121.286 136.241 121.28 136.182 121.287 136.124C121.294 136.066 121.312 136.009 121.342 135.958C123.197 132.416 124.799 128.746 126.137 124.977C126.893 122.854 127.564 120.683 128.138 118.499C128.162 118.413 128.211 118.337 128.278 118.278C128.345 118.22 128.428 118.182 128.516 118.169C128.604 118.157 128.695 118.171 128.775 118.21C128.855 118.249 128.922 118.312 128.967 118.389C129.787 119.834 130.712 121.217 131.737 122.525C132.713 123.759 133.773 124.925 134.909 126.014C134.952 126.055 134.986 126.103 135.01 126.156C135.034 126.209 135.047 126.267 135.049 126.325C135.05 126.383 135.04 126.441 135.02 126.496C134.999 126.55 134.968 126.6 134.928 126.643C134.888 126.685 134.839 126.719 134.786 126.743C134.733 126.767 134.676 126.78 134.617 126.782C134.559 126.784 134.501 126.774 134.446 126.753C134.392 126.732 134.342 126.701 134.299 126.661C133.125 125.545 132.032 124.347 131.029 123.074C130.197 122.017 129.427 120.913 128.723 119.767C128.211 121.622 127.625 123.428 126.978 125.282C125.625 129.09 123.994 132.793 122.098 136.361C122.055 136.419 122 136.466 121.937 136.5C121.874 136.533 121.804 136.553 121.732 136.556Z" fill="#DB504A"/>
<path d="M125.673 136.556C125.601 136.573 125.525 136.573 125.453 136.556C125.35 136.498 125.275 136.401 125.243 136.286C125.211 136.172 125.225 136.05 125.282 135.946C126.431 133.872 127.422 131.715 128.247 129.492C128.76 128.113 129.211 126.686 129.589 125.27C129.611 125.177 129.664 125.093 129.74 125.034C129.815 124.974 129.908 124.941 130.004 124.941C130.101 124.938 130.196 124.967 130.273 125.025C130.351 125.083 130.406 125.165 130.431 125.258C130.6 125.787 130.851 126.285 131.176 126.735C131.541 127.219 131.992 127.632 132.505 127.955C132.596 128.023 132.657 128.124 132.677 128.236C132.697 128.348 132.673 128.463 132.612 128.559C132.55 128.654 132.455 128.723 132.344 128.751C132.234 128.78 132.117 128.765 132.017 128.711C131.406 128.321 130.872 127.82 130.443 127.235C130.318 127.063 130.204 126.884 130.102 126.698C129.801 127.739 129.459 128.764 129.077 129.773C128.234 132.041 127.222 134.243 126.051 136.361C126.01 136.423 125.953 136.474 125.887 136.508C125.821 136.542 125.747 136.559 125.673 136.556Z" fill="#DB504A"/>
<path d="M128.894 136.788C128.834 136.8 128.772 136.8 128.711 136.788C128.657 136.764 128.607 136.73 128.566 136.687C128.525 136.644 128.493 136.593 128.471 136.537C128.449 136.482 128.439 136.423 128.441 136.363C128.442 136.303 128.455 136.245 128.48 136.19L129.846 133.14C129.87 133.085 129.905 133.036 129.948 132.995C129.991 132.954 130.042 132.922 130.097 132.9C130.153 132.879 130.212 132.868 130.271 132.87C130.331 132.871 130.39 132.884 130.444 132.908C130.499 132.932 130.548 132.967 130.589 133.01C130.63 133.053 130.662 133.103 130.684 133.159C130.705 133.214 130.716 133.274 130.714 133.333C130.713 133.393 130.7 133.451 130.676 133.506L129.309 136.568C129.265 136.638 129.204 136.694 129.131 136.733C129.058 136.771 128.977 136.79 128.894 136.788Z" fill="#DB504A"/>
<path d="M145.622 126.332C145.535 126.332 145.45 126.307 145.378 126.259C140.102 122.814 135.595 118.315 132.141 113.044C128.687 107.774 126.36 101.846 125.307 95.6336C125.29 95.5155 125.32 95.3953 125.39 95.2993C125.461 95.2032 125.567 95.1392 125.685 95.1211C125.743 95.1107 125.802 95.1119 125.86 95.1247C125.917 95.1376 125.971 95.1618 126.019 95.1959C126.067 95.23 126.107 95.2734 126.138 95.3234C126.169 95.3734 126.189 95.4291 126.198 95.4871C127.192 101.38 129.358 107.014 132.567 112.056C136.01 117.413 140.541 121.986 145.866 125.478C145.966 125.543 146.036 125.645 146.062 125.761C146.087 125.878 146.065 126 146 126.1C145.964 126.169 145.909 126.226 145.843 126.267C145.776 126.308 145.7 126.33 145.622 126.332Z" fill="#DB504A"/>
<path d="M148.111 124.27C148.019 124.27 147.929 124.24 147.855 124.184C140.46 118.956 134.603 111.839 130.895 103.577C130.85 103.466 130.848 103.342 130.891 103.231C130.934 103.12 131.019 103.029 131.127 102.979C131.181 102.955 131.239 102.941 131.297 102.94C131.356 102.939 131.414 102.949 131.469 102.971C131.524 102.992 131.573 103.025 131.615 103.066C131.657 103.107 131.69 103.156 131.713 103.21C133.421 106.996 135.589 110.557 138.167 113.813C141.101 117.49 144.539 120.735 148.38 123.452C148.457 123.508 148.515 123.588 148.545 123.679C148.574 123.77 148.574 123.868 148.544 123.959C148.514 124.05 148.456 124.129 148.379 124.185C148.301 124.241 148.207 124.271 148.111 124.27Z" fill="#DB504A"/>
<path d="M125.344 93.9619C125.236 93.96 125.133 93.9195 125.052 93.8479C124.971 93.7763 124.919 93.6783 124.905 93.5715C124.737 92.2967 124.639 91.0136 124.612 89.7281C124.584 88.3685 124.341 87.0219 123.892 85.7383C123.811 85.5821 123.708 85.4383 123.587 85.3112C123.331 85.0905 123.009 84.9617 122.672 84.9452C122.335 84.9635 122.013 85.0921 121.757 85.3112C121.326 86.0873 121.191 86.9935 121.378 87.8613C121.393 87.9244 121.394 87.9898 121.381 88.0532C121.367 88.1166 121.341 88.1764 121.303 88.2286C121.264 88.2809 121.215 88.3242 121.159 88.3559C121.102 88.3875 121.04 88.4066 120.975 88.4119C120.911 88.4172 120.846 88.4086 120.785 88.3866C120.724 88.3646 120.669 88.3298 120.623 88.2845C120.576 88.2393 120.54 88.1846 120.517 88.1242C120.494 88.0638 120.484 87.9991 120.488 87.9345C120.341 86.2507 120.561 85.1648 121.147 84.6036C121.573 84.2389 122.111 84.0321 122.672 84.0179C123.236 84.0272 123.777 84.2394 124.197 84.6158C124.402 84.8173 124.571 85.0525 124.697 85.3112C125.2 86.7137 125.468 88.1895 125.49 89.6793C125.519 90.9278 125.613 92.174 125.771 93.4128C125.785 93.5322 125.752 93.6524 125.679 93.748C125.606 93.8436 125.499 93.9071 125.38 93.9253L125.344 93.9619Z" fill="#DB504A"/>
<path d="M130.37 101.282C130.287 101.279 130.205 101.253 130.135 101.208C130.064 101.163 130.006 101.101 129.968 101.026C128.787 98.6908 128.039 96.161 127.759 93.5591C127.686 92.9246 127.674 92.4365 127.649 91.9119C127.649 91.1798 127.649 90.3379 127.43 88.8982C126.942 84.5424 126.271 83.7859 125.941 83.4199C125.553 82.9426 125.071 82.5495 124.526 82.2642C123.98 81.9789 123.383 81.8076 122.769 81.7605C121.834 81.7371 120.919 82.0294 120.17 82.5902C118.743 83.8103 118.816 86.0675 118.95 89.5571V90.399C119.06 93.7177 119.084 97.1706 118.95 100.672C118.936 100.788 118.882 100.895 118.797 100.976C118.713 101.056 118.603 101.104 118.486 101.112C118.368 101.105 118.256 101.054 118.174 100.967C118.092 100.881 118.047 100.767 118.047 100.648C118.12 97.1706 118.047 93.7299 118.047 90.4356V89.5815C117.925 85.8235 117.84 83.3467 119.609 81.8947C120.53 81.1951 121.661 80.8294 122.818 80.8576C123.564 80.8952 124.295 81.0857 124.964 81.4173C125.634 81.7489 126.228 82.2146 126.71 82.7854C127.283 83.4321 127.93 84.4814 128.406 88.7518C128.577 90.2281 128.613 91.0822 128.638 91.8387C128.638 92.3755 128.638 92.827 128.735 93.4248C129.004 95.921 129.723 98.3477 130.858 100.587C130.886 100.64 130.903 100.698 130.908 100.757C130.913 100.816 130.906 100.876 130.888 100.933C130.87 100.989 130.84 101.042 130.802 101.087C130.763 101.133 130.716 101.17 130.663 101.197C130.574 101.248 130.473 101.278 130.37 101.282Z" fill="#DB504A"/>
<path d="M148.758 120.548C148.66 120.545 148.566 120.511 148.489 120.451C143.381 116.716 139.14 111.921 136.056 106.395C133.968 102.824 132.461 98.9447 131.591 94.9012C131.165 92.7316 130.899 90.5334 130.798 88.3247C130.602 85.2012 130.48 83.127 128.626 81.126C127.127 79.5044 125.049 78.5398 122.842 78.4418C121.705 78.5032 120.593 78.802 119.578 79.3189C118.563 79.8359 117.668 80.5595 116.949 81.4432C115.156 83.7127 115.29 86.2261 115.522 90.3745C115.583 91.3872 115.644 92.4975 115.68 93.7055C115.822 98.4904 115.552 103.279 114.875 108.017C114.85 108.129 114.784 108.227 114.69 108.292C114.595 108.357 114.48 108.383 114.367 108.366C114.254 108.349 114.152 108.29 114.081 108.2C114.01 108.11 113.975 107.997 113.984 107.883C114.652 103.197 114.917 98.4616 114.777 93.7299C114.777 92.5097 114.68 91.436 114.631 90.4233C114.387 86.2139 114.228 83.4198 116.242 80.882C117.044 79.9029 118.04 79.1005 119.168 78.5251C120.296 77.9498 121.53 77.614 122.794 77.5389C124.016 77.5709 125.218 77.8539 126.327 78.3702C127.435 78.8866 128.425 79.6252 129.236 80.5404C131.31 82.7854 131.457 85.0914 131.676 88.2881C131.767 90.4561 132.024 92.6139 132.445 94.7426C133.311 98.6858 134.797 102.467 136.849 105.943C139.873 111.373 144.035 116.084 149.051 119.755C149.099 119.79 149.14 119.834 149.171 119.885C149.202 119.936 149.223 119.993 149.232 120.052C149.241 120.111 149.238 120.171 149.224 120.229C149.21 120.287 149.184 120.342 149.148 120.389C149.1 120.445 149.04 120.488 148.972 120.516C148.904 120.543 148.831 120.554 148.758 120.548Z" fill="#DB504A"/>
<path d="M109.775 113.008H109.628C109.516 112.976 109.42 112.904 109.359 112.804C109.297 112.705 109.276 112.586 109.299 112.471C110.926 105.983 111.555 99.2851 111.166 92.6076C111.166 91.8145 111.056 91.0458 110.995 90.3137C110.678 86.6534 110.409 83.5177 112.3 80.3331C112.447 80.1013 115.802 74.5864 122.061 74.3057C127.906 74.0495 131.908 78.3931 133.213 80.7236C133.906 82.0312 134.43 83.4209 134.775 84.8598C135.033 86.1819 135.213 87.5183 135.312 88.8618C135.446 90.0819 135.495 90.8262 135.532 91.302C135.568 91.7779 135.532 92.0219 135.629 92.4367C135.906 94.4605 136.452 96.4382 137.252 98.3177C138.131 100.7 139.221 102.999 140.51 105.187C140.548 105.237 140.575 105.295 140.59 105.357C140.604 105.419 140.606 105.483 140.594 105.545C140.582 105.607 140.557 105.666 140.521 105.718C140.484 105.77 140.438 105.814 140.383 105.847C140.329 105.88 140.269 105.901 140.206 105.908C140.143 105.916 140.079 105.911 140.018 105.892C139.958 105.874 139.902 105.842 139.854 105.801C139.806 105.759 139.768 105.708 139.741 105.651C138.443 103.427 137.349 101.092 136.471 98.6716C135.646 96.7203 135.08 94.6693 134.787 92.5709C134.787 92.1317 134.714 91.8145 134.69 91.3508C134.665 90.8872 134.604 90.1307 134.482 88.9106C134.414 87.6171 134.263 86.3293 134.031 85.055C133.688 83.6961 133.189 82.3817 132.542 81.1384C131.322 78.9788 127.662 74.9402 122.22 75.1964C116.376 75.4527 113.264 80.565 113.142 80.7846C111.385 83.7129 111.629 86.5924 111.922 90.2283C111.983 90.9604 112.056 91.7291 112.105 92.5343C112.493 99.302 111.856 106.089 110.214 112.666C110.192 112.765 110.135 112.853 110.055 112.916C109.975 112.978 109.876 113.01 109.775 113.008Z" fill="#DB504A"/>
<path d="M105.322 116.01C105.273 116.021 105.223 116.021 105.175 116.01C105.119 115.991 105.068 115.96 105.024 115.921C104.98 115.881 104.944 115.834 104.919 115.78C104.894 115.726 104.88 115.668 104.878 115.609C104.876 115.55 104.885 115.491 104.907 115.436C106.571 110.821 107.554 105.987 107.823 101.087C107.933 98.4764 107.823 95.6213 107.823 95.5969C107.812 95.5323 107.816 95.4661 107.833 95.4029C107.85 95.3397 107.881 95.2811 107.924 95.2311C107.966 95.1811 108.019 95.1409 108.078 95.1134C108.138 95.0858 108.203 95.0715 108.268 95.0715C108.334 95.0715 108.398 95.0858 108.458 95.1134C108.517 95.1409 108.57 95.1811 108.613 95.2311C108.655 95.2811 108.686 95.3397 108.703 95.4029C108.721 95.4661 108.724 95.5323 108.713 95.5969C108.713 95.5969 108.713 98.5008 108.713 101.136C108.438 106.136 107.435 111.068 105.736 115.778C105.697 115.852 105.637 115.913 105.563 115.955C105.489 115.996 105.406 116.015 105.322 116.01Z" fill="#DB504A"/>
<path d="M108.043 83.6764C107.924 83.664 107.815 83.6064 107.737 83.5155C107.66 83.4246 107.621 83.3074 107.628 83.1883C108.067 77.6856 114.302 71.1457 121.989 70.6211C129.675 70.0964 135.874 75.6602 137.228 79.6622C137.247 79.7174 137.255 79.7759 137.251 79.8342C137.247 79.8926 137.232 79.9495 137.205 80.0018C137.179 80.054 137.143 80.1006 137.099 80.1386C137.054 80.1767 137.003 80.2055 136.947 80.2234C136.834 80.2623 136.71 80.2545 136.602 80.2019C136.495 80.1493 136.413 80.0561 136.374 79.9428C135.154 76.1848 129.26 71.0237 122.013 71.5118C114.18 72.0486 108.86 78.7105 108.494 83.2615C108.482 83.3738 108.43 83.4779 108.347 83.5542C108.264 83.6306 108.155 83.674 108.043 83.6764Z" fill="#DB504A"/>
<path d="M149.99 112.532C149.877 112.529 149.769 112.486 149.685 112.41C146.764 109.717 144.292 106.574 142.364 103.101C141.107 100.98 140.146 98.698 139.509 96.3168C139.107 94.7062 138.558 91.6315 138.216 89.4353C138.106 88.8009 138.033 88.2152 137.948 87.6173C137.777 86.1363 137.525 84.6658 137.191 83.2127C137.166 83.0962 137.187 82.9744 137.251 82.8738C137.315 82.7733 137.416 82.7021 137.533 82.6758C137.59 82.6615 137.651 82.6591 137.709 82.6686C137.768 82.6782 137.824 82.6996 137.874 82.7316C137.925 82.7635 137.968 82.8053 138.001 82.8545C138.035 82.9036 138.058 82.9591 138.07 83.0175C138.43 84.494 138.711 85.9888 138.911 87.4953C138.997 88.0932 139.07 88.7154 139.18 89.3011C139.522 91.4729 140.058 94.5232 140.4 96.0972C141.023 98.402 141.959 100.611 143.182 102.661C145.041 106.052 147.435 109.122 150.271 111.751C150.354 111.836 150.401 111.95 150.401 112.069C150.401 112.187 150.354 112.301 150.271 112.386C150.199 112.468 150.099 112.52 149.99 112.532Z" fill="#DB504A"/>
<path d="M105.09 95.1821C104.991 95.1811 104.895 95.1486 104.816 95.0894C104.737 95.0301 104.679 94.9472 104.651 94.8527C103.335 90.3619 103.251 85.5998 104.407 81.0653C105.303 77.2336 107.393 73.7854 110.376 71.2177C113.358 68.65 117.078 67.0953 121 66.7777C131.847 65.8626 141.559 75.77 142.365 84.567C142.462 85.7078 142.462 86.8548 142.365 87.9956C142.352 88.1133 142.294 88.2214 142.203 88.2967C142.112 88.372 141.995 88.4085 141.877 88.3982C141.817 88.3953 141.758 88.3801 141.704 88.3535C141.65 88.327 141.603 88.2897 141.564 88.244C141.525 88.1983 141.496 88.145 141.478 88.0876C141.461 88.0302 141.455 87.9698 141.462 87.9102C141.553 86.8262 141.553 85.7364 141.462 84.6525C140.693 76.2458 131.42 66.8021 121.061 67.6806C118.268 67.9544 115.575 68.8671 113.19 70.3481C110.806 71.8291 108.794 73.8387 107.311 76.2214C106.375 77.7946 105.688 79.5024 105.273 81.2849C104.143 85.6653 104.223 90.2703 105.505 94.6086C105.522 94.6647 105.527 94.7236 105.521 94.7817C105.514 94.8399 105.496 94.8962 105.468 94.9473C105.439 94.9985 105.401 95.0434 105.355 95.0796C105.309 95.1157 105.256 95.1423 105.2 95.1577L105.09 95.1821Z" fill="#DB504A"/>
<path d="M100.88 108.03H100.746C100.634 107.996 100.539 107.919 100.482 107.817C100.425 107.715 100.411 107.594 100.441 107.481C101.799 103.39 102.138 99.0304 101.429 94.7793C100.943 92.537 100.593 90.2676 100.38 87.9832C100.224 86.4343 100.203 84.8747 100.319 83.3223C100.329 83.2026 100.386 83.0916 100.477 83.0138C100.569 82.936 100.687 82.8978 100.807 82.9075C100.927 82.9172 101.038 82.9741 101.116 83.0656C101.193 83.1571 101.232 83.2758 101.222 83.3955C101.093 84.8976 101.093 86.4079 101.222 87.91C101.453 90.1339 101.815 92.3421 102.308 94.523C103.069 98.9298 102.729 103.456 101.319 107.7C101.293 107.796 101.235 107.88 101.156 107.939C101.076 107.999 100.979 108.031 100.88 108.03Z" fill="#DB504A"/>
<path d="M101.088 81.3701H100.978C100.921 81.3573 100.867 81.333 100.819 81.2989C100.771 81.2647 100.731 81.2214 100.7 81.1713C100.669 81.1213 100.649 81.0656 100.64 81.0075C100.631 80.9494 100.634 80.8902 100.649 80.8333C101.936 75.6671 104.95 71.0956 109.19 67.8756C112.51 65.3003 116.517 63.7636 120.708 63.4588C126.099 63.3944 131.365 65.0813 135.715 68.266C135.79 68.3423 135.836 68.4427 135.843 68.5494C135.851 68.656 135.821 68.762 135.758 68.8485C135.695 68.9349 135.603 68.9962 135.499 69.0213C135.395 69.0465 135.286 69.034 135.19 68.9859C130.989 65.9568 125.936 64.3378 120.756 64.3617C116.709 64.6279 112.834 66.0981 109.629 68.5833C105.571 71.6822 102.692 76.0723 101.466 81.0285C101.447 81.1177 101.4 81.1986 101.332 81.2598C101.264 81.321 101.179 81.3596 101.088 81.3701Z" fill="#DB504A"/>
<path d="M152.857 105.882C152.773 105.898 152.686 105.898 152.601 105.882C151.576 105.431 148.05 100.612 146.342 94.6696C145.698 92.3884 145.342 90.0357 145.281 87.6661C145.244 85.2939 144.832 82.9425 144.06 80.6992C142.936 77.542 141.185 74.645 138.911 72.1828C138.828 72.0983 138.781 71.9843 138.781 71.8655C138.781 71.7468 138.828 71.6328 138.911 71.5483C138.997 71.4677 139.111 71.4228 139.229 71.4228C139.347 71.4228 139.46 71.4677 139.546 71.5483C141.901 74.077 143.72 77.0572 144.89 80.3088C145.68 82.6358 146.092 85.0744 146.11 87.5319C146.178 89.831 146.526 92.1132 147.147 94.328C148.855 100.282 152.15 104.492 152.857 104.943C152.956 104.95 153.05 104.989 153.124 105.054C153.199 105.12 153.25 105.208 153.269 105.305C153.288 105.402 153.275 105.503 153.232 105.592C153.188 105.681 153.117 105.753 153.028 105.797C152.977 105.835 152.919 105.864 152.857 105.882Z" fill="#DB504A"/>
<path d="M98.3301 103.845H98.2691C98.1513 103.83 98.0442 103.769 97.9712 103.675C97.8981 103.581 97.8648 103.463 97.8787 103.345C98.1854 101.211 98.2305 99.0473 98.0129 96.9024C97.9028 95.915 97.7439 94.9337 97.537 93.9619C97.4272 93.4373 97.3052 92.876 97.1832 92.1684C96.6897 89.4863 96.4123 86.7689 96.3535 84.0424C96.5162 79.9324 97.7804 75.9418 100.014 72.4878C101.797 69.3738 104.204 66.6619 107.085 64.5224C109.966 62.3828 113.258 60.8618 116.754 60.0548C116.812 60.0452 116.871 60.047 116.928 60.0602C116.985 60.0734 117.038 60.0977 117.086 60.1317C117.134 60.1657 117.174 60.2087 117.205 60.2583C117.236 60.3079 117.257 60.3631 117.266 60.4208C117.276 60.4785 117.274 60.5375 117.261 60.5945C117.248 60.6515 117.223 60.7053 117.189 60.7529C117.156 60.8005 117.112 60.8409 117.063 60.8718C117.013 60.9028 116.958 60.9237 116.9 60.9333C113.531 61.7057 110.357 63.1652 107.577 65.2206C104.797 67.276 102.472 69.8829 100.746 72.8783C98.6054 76.1981 97.3999 80.0339 97.2564 83.9814C97.3167 86.6587 97.59 89.327 98.0739 91.9609C98.1959 92.6442 98.3057 93.1811 98.4155 93.7179C98.6107 94.7062 98.7816 95.5725 98.9158 96.8048C99.1355 99.0192 99.0863 101.252 98.7694 103.454C98.7573 103.562 98.7058 103.662 98.6246 103.734C98.5435 103.806 98.4386 103.846 98.3301 103.845Z" fill="#DB504A"/>
<path d="M155.517 103.845C155.449 103.844 155.382 103.828 155.321 103.799C155.26 103.769 155.206 103.727 155.163 103.674C152.182 100.126 150.091 95.9183 149.063 91.3998C148.632 89.3385 148.448 87.2332 148.514 85.1284C148.514 84.6891 148.514 84.2987 148.514 83.9083C148.221 73.3298 137.533 62.0681 126.002 60.2745C125.944 60.2657 125.889 60.2453 125.839 60.2145C125.789 60.1838 125.745 60.1434 125.711 60.0956C125.677 60.0478 125.653 59.9937 125.64 59.9364C125.627 59.8791 125.626 59.8198 125.636 59.7621C125.645 59.704 125.666 59.6483 125.696 59.5983C125.727 59.5483 125.768 59.5049 125.815 59.4708C125.863 59.4367 125.917 59.4125 125.975 59.3997C126.032 59.3868 126.091 59.3856 126.149 59.396C138.008 61.2384 149.112 72.915 149.417 83.8838C149.417 84.2621 149.417 84.6647 149.417 85.104C149.345 87.1518 149.525 89.2007 149.953 91.2046C150.943 95.5934 152.977 99.6785 155.883 103.113C155.935 103.179 155.968 103.258 155.978 103.341C155.988 103.424 155.974 103.509 155.939 103.585C155.903 103.661 155.847 103.725 155.777 103.771C155.707 103.817 155.625 103.843 155.542 103.845H155.517Z" fill="#DB504A"/>
<path d="M94.5601 97.3293C94.4678 97.3285 94.3779 97.3002 94.3019 97.248C94.2258 97.1959 94.167 97.1222 94.133 97.0365C93.1692 94.4801 92.5616 91.8033 92.3273 89.0813C91.9415 84.3416 92.6728 79.5776 94.4625 75.1719C95.4757 72.5623 96.834 70.1001 98.5011 67.8512C98.535 67.8032 98.5782 67.7626 98.6281 67.7316C98.678 67.7007 98.7336 67.68 98.7916 67.6709C98.8496 67.6618 98.9088 67.6644 98.9658 67.6786C99.0228 67.6928 99.0764 67.7183 99.1233 67.7536C99.1717 67.7886 99.2126 67.8329 99.2437 67.8838C99.2748 67.9348 99.2955 67.9914 99.3046 68.0504C99.3136 68.1094 99.3109 68.1697 99.2966 68.2276C99.2822 68.2856 99.2565 68.3401 99.2209 68.388C97.5969 70.5757 96.2754 72.9725 95.2922 75.5135C93.5569 79.8138 92.8468 84.459 93.2179 89.0813C93.458 91.6958 94.0532 94.2654 94.9871 96.7192C95.0088 96.7745 95.0194 96.8335 95.0183 96.8929C95.0172 96.9523 95.0043 97.0108 94.9805 97.0652C94.9567 97.1196 94.9224 97.1688 94.8796 97.2099C94.8368 97.2511 94.7862 97.2833 94.7309 97.3049L94.5601 97.3293Z" fill="#DB504A"/>
<path d="M105.663 61.9582C105.586 61.96 105.509 61.9419 105.441 61.9056C105.373 61.8693 105.315 61.816 105.273 61.7508C105.213 61.6481 105.195 61.5262 105.222 61.4104C105.249 61.2946 105.32 61.1937 105.419 61.1285C109.84 58.2896 114.845 56.4876 120.061 55.8576C122.123 55.668 124.197 55.668 126.259 55.8576C126.318 55.864 126.376 55.8821 126.428 55.9107C126.48 55.9393 126.527 55.9779 126.564 56.0244C126.601 56.0708 126.629 56.1242 126.646 56.1814C126.663 56.2386 126.668 56.2986 126.662 56.3579C126.655 56.4172 126.637 56.4746 126.609 56.5269C126.58 56.5792 126.541 56.6254 126.495 56.6628C126.449 56.7002 126.395 56.7281 126.338 56.7448C126.281 56.7616 126.221 56.7669 126.161 56.7605C124.161 56.5749 122.147 56.5749 120.146 56.7605C115.09 57.3896 110.24 59.1494 105.956 61.9094C105.865 61.9523 105.764 61.9692 105.663 61.9582Z" fill="#DB504A"/>
<path d="M152.455 86.1166C152.339 86.1166 152.227 86.0703 152.145 85.988C152.062 85.9056 152.016 85.7939 152.016 85.6774C151.986 83.9038 151.802 82.1361 151.467 80.3942C150.16 73.4341 146.424 67.1642 140.925 62.7025C137.919 60.3492 134.471 58.6232 130.786 57.6268C130.728 57.6127 130.674 57.5871 130.627 57.5515C130.579 57.516 130.54 57.4712 130.51 57.4199C130.48 57.3686 130.462 57.3119 130.454 57.2531C130.447 57.1943 130.452 57.1346 130.469 57.0777C130.5 56.9633 130.575 56.8659 130.678 56.8065C130.781 56.7471 130.903 56.7306 131.018 56.7605C134.82 57.7823 138.377 59.5628 141.474 61.9948C147.144 66.5886 150.993 73.0504 152.333 80.2234C152.685 82.0165 152.873 83.838 152.894 85.6652C152.896 85.7239 152.886 85.7823 152.865 85.837C152.843 85.8917 152.811 85.9416 152.77 85.9837C152.729 86.0258 152.68 86.0592 152.626 86.082C152.572 86.1049 152.514 86.1166 152.455 86.1166Z" fill="#DB504A"/>
<path d="M7.79657 334.488H18.6678C21.0149 334.341 23.3435 334.985 25.2809 336.318C26.0337 336.885 26.6402 337.624 27.0498 338.473C27.4594 339.322 27.6603 340.256 27.6357 341.199C27.6495 342.174 27.4627 343.142 27.0867 344.042C26.7265 344.87 26.2085 345.62 25.5615 346.25C24.8963 346.914 24.1252 347.462 23.2799 347.873C22.3717 348.319 21.4071 348.639 20.4126 348.824C21.7865 349.226 23.0426 349.954 24.073 350.947C24.5802 351.456 24.9757 352.065 25.2341 352.735C25.4925 353.405 25.6082 354.122 25.5737 354.84C25.5818 356.045 25.2971 357.234 24.744 358.305C24.1526 359.395 23.3175 360.335 22.3038 361.05C21.1401 361.862 19.8436 362.465 18.4726 362.831C16.8016 363.277 15.0773 363.49 13.3481 363.466H0L7.79657 334.488ZM13.6898 360.623C15.8707 360.741 18.0372 360.206 19.9124 359.086C20.6331 358.633 21.2229 357.999 21.6231 357.248C22.0234 356.497 22.2202 355.654 22.194 354.803C22.2155 354.114 22.0421 353.433 21.6937 352.839C21.3498 352.269 20.8725 351.792 20.3028 351.448C19.6543 351.045 18.9397 350.76 18.192 350.606C17.3129 350.425 16.4175 350.335 15.5199 350.337H6.67406L3.94098 360.623H13.6898ZM15.764 347.434C17.9416 347.547 20.1024 346.998 21.9622 345.86C22.6766 345.416 23.2644 344.795 23.6684 344.058C24.0724 343.32 24.279 342.491 24.2682 341.65C24.2997 341.035 24.1753 340.421 23.9066 339.867C23.6378 339.312 23.2334 338.834 22.7309 338.478C21.4115 337.677 19.879 337.298 18.3384 337.392H10.1636L7.51595 347.434H15.764Z" fill="#498AF8"/>
<path d="M37.799 334.488H41.0689L33.2724 363.527H29.9902L37.799 334.488Z" fill="#498AF8"/>
<path d="M51.8185 363.1C50.3106 362.483 48.9416 361.57 47.7921 360.415C46.6603 359.272 45.7721 357.91 45.1811 356.413C44.5481 354.839 44.2289 353.156 44.2416 351.46C44.2432 349.223 44.6869 347.009 45.5471 344.944C46.3962 342.887 47.6069 340.999 49.1221 339.368C50.6384 337.738 52.4523 336.413 54.4662 335.464C56.5613 334.481 58.8504 333.98 61.1647 334C62.9371 333.975 64.6965 334.307 66.338 334.976C67.8439 335.584 69.2099 336.493 70.3522 337.648C71.4795 338.789 72.3709 340.14 72.9754 341.626C73.5964 343.177 73.9113 344.835 73.9027 346.506C73.8998 348.747 73.4562 350.965 72.5972 353.034C71.7609 355.102 70.5534 357 69.0344 358.634C67.5145 360.265 65.6963 361.591 63.6781 362.538C61.584 363.526 59.2948 364.031 56.9796 364.015C55.2158 364.052 53.462 363.741 51.8185 363.1ZM62.4702 359.818C64.0648 359.021 65.4901 357.923 66.6674 356.584C67.8496 355.22 68.7904 353.665 69.4493 351.984C70.1133 350.298 70.4568 348.502 70.462 346.689C70.4727 345.386 70.2453 344.092 69.7909 342.87C69.3783 341.727 68.7298 340.684 67.8875 339.808C67.0365 338.931 66.0151 338.237 64.886 337.77C63.64 337.259 62.3036 337.006 60.9572 337.026C59.1242 337.006 57.313 337.425 55.6741 338.246C54.0795 339.043 52.6542 340.141 51.4769 341.479C50.2679 342.842 49.3095 344.407 48.6462 346.103C47.9716 347.783 47.6237 349.576 47.6213 351.387C47.6065 352.698 47.834 354.001 48.2924 355.23C48.711 356.366 49.3589 357.405 50.1958 358.28C51.0484 359.146 52.0645 359.835 53.1851 360.306C54.4339 360.821 55.7753 361.074 57.1261 361.05C58.9601 361.066 60.7714 360.643 62.4092 359.818H62.4702Z" fill="#498AF8"/>
<path d="M84.5056 334.488H87.5681L93.8395 350.349L108.652 334.488H112.312L104.516 363.527H101.197L107.48 340.003L92.7536 355.559H92.595L86.2503 340.003L79.9423 363.478H76.709L84.5056 334.488Z" fill="#498AF8"/>
<path d="M120.548 334.488H141.29L140.46 337.477H123L120.341 347.397H136.007L135.177 350.386H119.56L116.814 360.549H134.531L133.75 363.527H112.751L120.548 334.488Z" fill="#498AF8"/>
<path d="M153.698 337.562H143.938L144.767 334.524H167.62L166.79 337.562H157.029L150.05 363.563H146.78L153.698 337.562Z" fill="#498AF8"/>
<path d="M173.196 334.488H183.652C185.965 334.366 188.263 334.922 190.265 336.086C191.043 336.583 191.704 337.243 192.201 338.02C192.699 338.798 193.021 339.674 193.145 340.588C193.334 342.439 193.006 344.306 192.199 345.981C191.391 347.657 190.135 349.076 188.569 350.081C186.885 351.035 185.034 351.66 183.116 351.923L189.082 363.527H185.312L179.589 352.204H171.707L168.669 363.478H165.399L173.196 334.488ZM180.37 349.349C182.221 349.398 184.062 349.079 185.788 348.409C187.089 347.931 188.202 347.045 188.96 345.884C189.862 344.726 190.297 343.272 190.18 341.809C190.13 341.182 189.941 340.574 189.626 340.03C189.312 339.485 188.88 339.017 188.362 338.661C186.906 337.808 185.227 337.413 183.543 337.526H175.746L172.549 349.349H180.37Z" fill="#498AF8"/>
<path d="M203.236 334.488H206.505L198.709 363.527H195.427L203.236 334.488Z" fill="#498AF8"/>
<path d="M217.047 363.246C215.589 362.7 214.254 361.871 213.118 360.806C211.978 359.762 211.065 358.496 210.434 357.085C209.762 355.491 209.43 353.775 209.458 352.046C209.451 349.715 209.916 347.408 210.824 345.262C211.712 343.13 212.977 341.175 214.558 339.491C216.165 337.811 218.079 336.452 220.195 335.489C222.316 334.491 224.634 333.982 226.979 334C229.21 333.894 231.426 334.422 233.369 335.523C235.312 336.625 236.904 338.254 237.96 340.223L235.129 341.955C234.325 340.524 233.207 339.293 231.859 338.356C230.317 337.401 228.522 336.938 226.71 337.026C224.87 337.01 223.051 337.428 221.403 338.246C219.755 339.069 218.277 340.194 217.047 341.565C215.791 342.968 214.796 344.583 214.106 346.335C213.39 348.103 213.021 349.992 213.02 351.899C213.002 353.196 213.234 354.485 213.704 355.694C214.133 356.765 214.776 357.736 215.595 358.549C216.411 359.348 217.389 359.964 218.462 360.355C219.634 360.783 220.875 360.994 222.123 360.977C223.862 361.025 225.589 360.661 227.162 359.915C228.625 359.168 229.963 358.197 231.127 357.036L233.323 359.196C232.637 359.873 231.908 360.505 231.139 361.087C230.338 361.685 229.479 362.204 228.577 362.636C227.606 363.095 226.587 363.442 225.539 363.673C224.361 363.931 223.158 364.058 221.952 364.052C220.282 364.082 218.62 363.809 217.047 363.246Z" fill="#498AF8"/>
<path d="M20.9738 225.311V316.698H5.03906V225.311H20.9738Z" fill="#666666"/>
<path d="M104.125 316.698L81.6019 284.841H61.4455V316.698H45.5107V225.311H86.2506C91.0489 225.247 95.828 225.931 100.416 227.337C104.33 228.52 107.969 230.474 111.117 233.084C114.037 235.566 116.339 238.695 117.839 242.222C119.429 246.043 120.214 250.151 120.146 254.289C120.2 257.775 119.647 261.243 118.511 264.538C117.496 267.433 115.985 270.129 114.045 272.506C112.102 274.834 109.785 276.821 107.188 278.387C104.436 280.011 101.471 281.243 98.3786 282.047L123.062 316.698H104.125ZM98.891 243.674C95.5723 241.088 90.9033 239.798 84.884 239.806H61.4455V270.614H85.0183C90.7772 270.614 95.3567 269.215 98.7568 266.417C100.426 265.064 101.757 263.341 102.644 261.384C103.531 259.427 103.951 257.29 103.869 255.143C103.869 250.076 102.21 246.253 98.891 243.674Z" fill="#666666"/>
<path d="M156.749 225.311V316.698H140.814V225.311H156.749Z" fill="#666666"/>
<path d="M195.647 253.899C196.421 255.391 197.574 256.653 198.99 257.559C201.058 258.91 203.304 259.965 205.664 260.695C208.494 261.647 212.094 262.647 216.462 263.696C220.8 264.766 225.063 266.119 229.224 267.747C232.601 269.011 235.737 270.844 238.497 273.165C240.872 275.206 242.771 277.742 244.061 280.595C245.386 283.756 246.03 287.161 245.952 290.588C246.013 294.593 245.179 298.561 243.512 302.203C241.965 305.541 239.683 308.486 236.838 310.817C233.808 313.268 230.319 315.089 226.577 316.174C222.299 317.433 217.858 318.05 213.399 318.004C206.493 318.019 199.641 316.792 193.17 314.38C186.561 311.896 180.489 308.168 175.283 303.399L184.946 291.906C188.97 295.476 193.491 298.443 198.367 300.715C203.22 302.833 208.471 303.882 213.765 303.79C218.731 303.79 222.66 302.74 225.588 300.654C226.981 299.717 228.112 298.442 228.876 296.948C229.641 295.454 230.012 293.79 229.956 292.113C229.983 290.593 229.692 289.085 229.102 287.684C228.413 286.199 227.328 284.933 225.967 284.024C224.018 282.727 221.905 281.697 219.683 280.961C216.269 279.777 212.795 278.775 209.275 277.96C204.863 276.964 200.515 275.701 196.257 274.177C192.804 272.975 189.575 271.206 186.703 268.943C184.175 266.916 182.156 264.325 180.81 261.378C179.368 257.953 178.677 254.258 178.784 250.544C178.755 246.808 179.564 243.114 181.151 239.733C182.675 236.51 184.857 233.642 187.557 231.314C190.425 228.887 193.741 227.047 197.318 225.897C201.363 224.603 205.59 223.965 209.837 224.006C215.99 223.913 222.112 224.909 227.919 226.946C233.376 228.955 238.47 231.839 242.999 235.487L234.385 247.627C230.564 244.778 226.394 242.428 221.977 240.636C218.036 239.046 213.83 238.218 209.58 238.196C204.883 238.196 201.222 239.27 198.599 241.393C197.39 242.297 196.406 243.469 195.727 244.818C195.047 246.167 194.69 247.655 194.683 249.165C194.649 250.795 194.978 252.412 195.647 253.899Z" fill="#666666"/>
</svg>
